<svg width="40" height="41" viewBox="0 0 40 41" fill="none" xmlns="http://www.w3.org/2000/svg">
  <path fill-rule="evenodd" clip-rule="evenodd" d="M38.021,22.791C39.075,23.123 39.66,24.247 39.328,25.3L38.829,26.881L38.161,28.493L37.356,30.041L36.418,31.513L35.356,32.897L34.177,34.183L32.89,35.362L31.506,36.424L30.034,37.362L28.564,38.127C27.584,38.638 26.377,38.257 25.867,37.277C25.357,36.297 25.737,35.09 26.717,34.579L28.032,33.895L29.21,33.145L30.317,32.295L31.346,31.352L32.289,30.323L33.138,29.216L33.888,28.039L34.533,26.801L35.067,25.512L35.513,24.097C35.845,23.044 36.968,22.459 38.021,22.791Z" fill="#ffffff"/>
  <path fill-rule="evenodd" clip-rule="evenodd" d="M38.193,18.867C37.115,19.106 36.047,18.426 35.808,17.348L35.487,15.9L35.067,14.569L34.533,13.279L33.889,12.041L33.139,10.864L32.289,9.757L31.346,8.728L30.317,7.785L29.21,6.936L28.033,6.186L26.795,5.541L25.506,5.007L24.174,4.587L22.812,4.285L21.428,4.103L20.034,4.042L18.639,4.103L17.256,4.285L15.893,4.587L14.562,5.007L13.273,5.541L12.035,6.186L10.858,6.936L9.75,7.785L8.721,8.728L7.779,9.757L6.929,10.864L6.179,12.041L5.535,13.279L5.001,14.569L4.581,15.9L4.279,17.262L4.097,18.646L4.036,20.041L4.097,21.435L4.279,22.819L4.581,24.181L5.001,25.512L5.535,26.802L6.179,28.039L6.929,29.217L7.779,30.324L8.721,31.353L9.75,32.296L10.858,33.145L12.035,33.895L13.273,34.54L14.562,35.074L15.893,35.493L17.256,35.796L18.639,35.978L20.121,36.042C21.225,36.09 22.08,37.024 22.032,38.128C21.984,39.231 21.05,40.087 19.947,40.039L18.291,39.966L16.56,39.738L14.857,39.361L13.193,38.836L11.581,38.168L10.033,37.363L8.561,36.425L7.177,35.363L5.89,34.184L4.712,32.897L3.649,31.513L2.712,30.041L1.906,28.494L1.238,26.882L0.713,25.217L0.336,23.514L0.108,21.784L0.032,20.04L0.108,18.297L0.336,16.567L0.713,14.864L1.238,13.199L1.906,11.587L2.712,10.04L3.649,8.568L4.712,7.183L5.89,5.897L7.177,4.718L8.561,3.656L10.033,2.718L11.581,1.913L13.193,1.245L14.857,0.72L16.56,0.342L18.291,0.115L20.034,0.039L21.777,0.115L23.507,0.342L25.211,0.72L26.875,1.245L28.487,1.913L30.035,2.718L31.507,3.656L32.891,4.718L34.177,5.897L35.356,7.183L36.418,8.568L37.356,10.04L38.162,11.587L38.829,13.199L39.354,14.864L39.713,16.482C39.952,17.56 39.272,18.628 38.193,18.867Z" fill="#ffffff"/>
</svg>

