<svg width="48" height="48" viewBox="0 0 48 48" fill="none" xmlns="http://www.w3.org/2000/svg">
<path d="M26 4L26.1094 4.00391C30.7696 4.26101 35.1723 6.22703 38.4727 9.52734C41.773 12.8277 43.739 17.2303 43.9961 21.8906C43.9981 21.9271 44 21.9635 44 22V22.9941L43.9941 23.5488C43.9198 26.3102 43.2326 29.0219 41.9863 31.4922L41.9883 31.4941C40.4111 34.6497 37.9867 37.3047 34.9863 39.1602C31.9869 41.0149 28.5304 41.9961 25.0039 41.998L25.0059 42L25.002 41.998L25 42V41.998C22.3324 42.0043 19.699 41.44 17.2715 40.3496L6.63281 43.8965C5.91414 44.136 5.1216 43.9497 4.58594 43.4141C4.0503 42.8784 3.86396 42.0858 4.10352 41.3672L7.64844 30.7266C6.55809 28.2981 5.99304 25.6627 6 22.9941C6.00232 19.4683 6.98545 16.0125 8.83984 13.0137C10.6953 10.0133 13.3503 7.58887 16.5059 6.01172C19.1398 4.68275 22.0498 3.99508 25 4.00195V4H26ZM24.9941 8C22.6696 7.99404 20.3756 8.53792 18.3008 9.58594L18.2949 9.58984C15.8036 10.835 13.7071 12.7484 12.2422 15.1172C10.7775 17.4857 10.0012 20.2152 10 23V23.0059C9.99403 25.3304 10.5379 27.6243 11.5859 29.6992C11.8259 30.175 11.8658 30.7269 11.6973 31.2324L9.16016 38.8379L16.7676 36.3027L16.959 36.25C17.4098 36.148 17.8844 36.2041 18.3008 36.4141C20.3756 37.4621 22.6696 38.006 24.9941 38H25C27.7848 37.9988 30.5143 37.2225 32.8828 35.7578C35.2516 34.2929 37.165 32.1964 38.4102 29.7051L38.4141 29.6992C39.4621 27.6243 40.006 25.3304 40 23.0059V22.0586C39.7855 18.4006 38.2364 14.9473 35.6445 12.3555C33.0522 9.76315 29.5982 8.21403 25.9395 8H24.9941Z" fill="black"/>
</svg>
