<svg width="14" height="14" viewBox="0 0 14 14" fill="none" xmlns="http://www.w3.org/2000/svg">
<path d="M12 2C12 1.82319 11.9297 1.65367 11.8047 1.52865C11.6797 1.40362 11.5101 1.33333 11.3333 1.33333H2C1.82319 1.33333 1.65367 1.40362 1.52865 1.52865C1.40362 1.65367 1.33333 1.82319 1.33333 2V11.0573L2.86198 9.52865L2.91081 9.48438C3.02945 9.38715 3.1786 9.33333 3.33333 9.33333H11.3333C11.5101 9.33333 11.6797 9.26305 11.8047 9.13802C11.9297 9.013 12 8.84348 12 8.66667V2ZM13.3333 8.66667C13.3333 9.1971 13.1225 9.70566 12.7474 10.0807C12.3723 10.4558 11.8638 10.6667 11.3333 10.6667H3.60938L1.13802 13.138C0.947356 13.3287 0.660575 13.3857 0.411458 13.2826C0.16239 13.1793 0 12.9363 0 12.6667V2C0 1.46957 0.210865 0.96101 0.585938 0.585938C0.96101 0.210865 1.46957 0 2 0H11.3333C11.8638 0 12.3723 0.210865 12.7474 0.585938C13.1225 0.96101 13.3333 1.46957 13.3333 2V8.66667Z" fill="#0C1013"/>
</svg>
