<svg width="331" height="188" viewBox="0 0 331 188" fill="none" xmlns="http://www.w3.org/2000/svg">
<path d="M87.6623 188C84.3017 188.002 80.9429 187.262 78.3854 185.783L16.0118 149.732C13.4242 148.237 12 146.214 12 144.035C12 141.856 13.4242 139.833 16.0118 138.338L78.057 102.221C83.1758 99.2583 91.4977 99.262 96.6128 102.219L158.986 138.268C161.574 139.765 163 141.788 163 143.965C163 146.144 161.574 148.167 158.986 149.665L96.943 185.782C94.3836 187.262 91.023 188 87.6623 188ZM87.3358 101.148C84.1853 101.148 81.0367 101.841 78.6406 103.227L16.5953 139.344C14.3812 140.625 13.1634 142.288 13.1634 144.035C13.1634 145.782 14.3812 147.444 16.5953 148.723L78.9689 184.775C83.7631 187.549 91.5671 187.547 96.3594 184.775L158.405 148.658C160.619 147.377 161.838 145.712 161.838 143.965C161.838 142.22 160.619 140.556 158.405 139.277L96.0311 103.227C93.633 101.841 90.4844 101.148 87.3358 101.148Z" fill="#4B6FFF"/>
<path d="M179.662 147C176.302 147.002 172.943 146.262 170.385 144.783L108.012 108.732C105.424 107.237 104 105.214 104 103.035C104 100.856 105.424 98.8328 108.012 97.3375L170.057 61.2206C175.176 58.2583 183.498 58.262 188.613 61.2187L250.986 97.268C253.574 98.7652 255 100.788 255 102.965C255 105.144 253.574 107.167 250.986 108.665L188.943 144.782C186.384 146.262 183.023 147 179.662 147ZM179.336 60.1479C176.185 60.1479 173.037 60.8411 170.641 62.2274L108.595 98.3444C106.381 99.6255 105.163 101.288 105.163 103.035C105.163 104.782 106.381 106.444 108.595 107.723L170.969 143.775C175.763 146.549 183.567 146.547 188.359 143.775L250.405 107.658C252.619 106.377 253.838 104.712 253.838 102.965C253.838 101.22 252.619 99.556 250.405 98.2767L188.031 62.2274C185.633 60.8411 182.484 60.1479 179.336 60.1479Z" fill="#4B6FFF"/>
<path d="M243.662 101C240.302 101.002 236.943 100.262 234.385 98.7834L172.012 62.7322C169.424 61.237 168 59.2139 168 57.0349C168 54.8559 169.424 52.8328 172.012 51.3375L234.057 15.2206C239.176 12.2583 247.498 12.262 252.613 15.2187L314.986 51.268C317.574 52.7652 319 54.7882 319 56.9653C319 59.1443 317.574 61.1674 314.986 62.6646L252.943 98.7816C250.384 100.262 247.023 101 243.662 101ZM243.336 14.1479C240.185 14.1479 237.037 14.8411 234.641 16.2274L172.595 52.3444C170.381 53.6255 169.163 55.2879 169.163 57.0349C169.163 58.7818 170.381 60.4443 172.595 61.7235L234.969 97.7747C239.763 100.549 247.567 100.547 252.359 97.7747L314.405 61.6577C316.619 60.3766 317.838 58.7123 317.838 56.9653C317.838 55.2203 316.619 53.556 314.405 52.2767L252.031 16.2274C249.633 14.8411 246.484 14.1479 243.336 14.1479Z" fill="#4B6FFF"/>
<path d="M126.605 105.578L126.597 80.3414L94.6661 84.5962L70.7573 70.8086C66.5638 68.3906 59.7637 68.3906 55.5702 70.8086L51.8459 73.1728L0.00292969 80.0817V105.614C0.00292969 105.628 0.00292969 105.643 0.00292969 105.657V105.777L0.0219448 105.774C0.0821923 107.313 1.10798 108.84 3.14371 110.015L55.846 140.405C60.0396 142.823 66.8397 142.823 71.0332 140.405L123.458 109.958C125.487 108.788 126.513 107.266 126.578 105.731L126.604 105.728V105.578H126.605Z" fill="#0C184B"/>
<path d="M123.46 75.465L70.7572 45.0743C66.5636 42.6562 59.7651 42.6562 55.57 45.0743L3.14516 75.5204C-1.04839 77.9384 -1.04839 81.8592 3.14516 84.2772L55.8475 114.668C60.041 117.086 66.8411 117.086 71.0346 114.668L123.46 84.2218C127.653 81.8037 127.653 77.8846 123.46 75.465Z" fill="#F2F4FF"/>
<path d="M123.46 82.6933L71.0346 113.139C66.8411 115.557 60.0411 115.557 55.8475 113.139L3.14518 82.7487C1.3869 81.7337 0.375385 80.4558 0.0915868 79.1351C-0.301608 80.9641 0.709909 82.8738 3.14518 84.2784L55.8475 114.669C60.0411 117.087 66.8411 117.087 71.0346 114.669L123.46 84.2213C125.895 82.8168 126.906 80.9071 126.513 79.0781C126.229 80.4004 125.218 81.6782 123.46 82.6933Z" fill="white"/>
<path d="M78.1201 121.407L75.6246 122.844V119.967L78.1201 118.529V121.407Z" fill="white"/>
<path d="M83.3394 118.396L80.8455 119.835V116.958L83.3394 115.519V118.396Z" fill="white"/>
<path d="M88.5603 115.386L86.0648 116.825V113.948L88.5603 112.509V115.386Z" fill="white"/>
<path d="M84.2923 123.677L81.7968 125.116V122.239L84.2923 120.8V123.677Z" fill="white"/>
<path d="M88.8885 121.028L86.393 122.465V119.588L88.8885 118.15V121.028Z" fill="white"/>
<path d="M105.303 105.732L102.807 107.17V104.293L105.303 102.854V105.732Z" fill="white"/>
<path d="M119.681 97.4398L117.186 98.8792V96.002L119.681 94.5625V97.4398Z" fill="white"/>
<path d="M93.7797 112.377L91.2841 113.815V110.938L93.7797 109.5V112.377Z" fill="white"/>
<path d="M46.3696 123.961L17.1099 107.089C16.4107 106.687 15.8447 105.605 15.8447 104.676V102.507C15.8447 101.577 16.4107 101.149 17.1099 101.552L46.3696 118.424C47.0672 118.826 47.6348 119.908 47.6348 120.837V123.007C47.6348 123.938 47.0688 124.365 46.3696 123.961Z" fill="white"/>
<path d="M236.605 62.317L236.597 37.0806L204.666 41.3355L180.757 27.5479C176.564 25.1299 169.764 25.1299 165.57 27.5479L161.846 29.9121L110.003 36.8209V62.3534C110.003 62.3677 110.003 62.3819 110.003 62.3962V62.5165L110.022 62.5134C110.082 64.0525 111.108 65.579 113.144 66.754L165.846 97.1447C170.04 99.5627 176.84 99.5627 181.033 97.1447L233.458 66.697C235.487 65.5268 236.513 64.005 236.578 62.4706L236.604 62.4674V62.317H236.605Z" fill="#0C184B"/>
<path d="M233.46 32.2042L180.757 1.81351C176.564 -0.604505 169.765 -0.604505 165.57 1.81351L113.145 32.2596C108.952 34.6777 108.952 38.5984 113.145 41.0164L165.847 71.4072C170.041 73.8252 176.841 73.8252 181.035 71.4072L233.46 40.961C237.653 38.543 237.653 34.6238 233.46 32.2042Z" fill="#F2F4FF"/>
<path d="M233.46 39.4325L181.035 69.8787C176.841 72.2967 170.041 72.2967 165.848 69.8787L113.145 39.4879C111.387 38.4729 110.375 37.1951 110.092 35.8744C109.698 37.7034 110.71 39.613 113.145 41.0176L165.848 71.4084C170.041 73.8264 176.841 73.8264 181.035 71.4084L233.46 40.9606C235.895 39.556 236.906 37.6463 236.513 35.8174C236.229 37.1396 235.218 38.4175 233.46 39.4325Z" fill="white"/>
<path d="M188.12 78.1458L185.625 79.5836V76.7064L188.12 75.2686V78.1458Z" fill="white"/>
<path d="M193.339 75.1351L190.845 76.5745V73.6972L193.339 72.2578V75.1351Z" fill="white"/>
<path d="M198.56 72.1253L196.065 73.5647V70.6875L198.56 69.248V72.1253Z" fill="white"/>
<path d="M194.292 80.4163L191.797 81.8557V78.9785L194.292 77.5391V80.4163Z" fill="white"/>
<path d="M198.889 77.7669L196.393 79.2047V76.3275L198.889 74.8896V77.7669Z" fill="white"/>
<path d="M215.303 62.4716L212.807 63.9094V61.0322L215.303 59.5928V62.4716Z" fill="white"/>
<path d="M229.681 54.179L227.186 55.6184V52.7412L229.681 51.3018V54.179Z" fill="white"/>
<path d="M203.78 69.1165L201.284 70.5543V67.6771L203.78 66.2393V69.1165Z" fill="white"/>
<path d="M156.37 80.7007L127.11 63.8285C126.411 63.4262 125.845 62.3447 125.845 61.4152V59.2458C125.845 58.3163 126.411 57.8887 127.11 58.2909L156.37 75.1632C157.067 75.5654 157.635 76.647 157.635 77.5765V79.7459C157.635 80.677 157.069 81.1045 156.37 80.7007Z" fill="white"/>
<path d="M330.605 106.317L330.597 81.0806L298.666 85.3355L274.757 71.5479C270.564 69.1299 263.764 69.1299 259.57 71.5479L255.846 73.9121L204.003 80.8209V106.353C204.003 106.368 204.003 106.382 204.003 106.396V106.517L204.022 106.513C204.082 108.053 205.108 109.579 207.144 110.754L259.846 141.145C264.04 143.563 270.84 143.563 275.033 141.145L327.458 110.697C329.487 109.527 330.513 108.005 330.578 106.471L330.604 106.467V106.317H330.605Z" fill="#0C184B"/>
<path d="M327.46 76.2042L274.757 45.8135C270.564 43.3955 263.765 43.3955 259.57 45.8135L207.145 76.2596C202.952 78.6777 202.952 82.5984 207.145 85.0164L259.847 115.407C264.041 117.825 270.841 117.825 275.035 115.407L327.46 84.961C331.653 82.543 331.653 78.6238 327.46 76.2042Z" fill="#F2F4FF"/>
<path d="M327.46 83.4325L275.035 113.879C270.841 116.297 264.041 116.297 259.848 113.879L207.145 83.4879C205.387 82.4729 204.375 81.1951 204.092 79.8744C203.698 81.7034 204.71 83.613 207.145 85.0176L259.848 115.408C264.041 117.826 270.841 117.826 275.035 115.408L327.46 84.9606C329.895 83.556 330.906 81.6463 330.513 79.8174C330.229 81.1396 329.218 82.4175 327.46 83.4325Z" fill="white"/>
<path d="M282.12 122.146L279.625 123.584V120.706L282.12 119.269V122.146Z" fill="white"/>
<path d="M287.339 119.135L284.846 120.574V117.697L287.339 116.258V119.135Z" fill="white"/>
<path d="M292.56 116.125L290.065 117.565V114.687L292.56 113.248V116.125Z" fill="white"/>
<path d="M288.292 124.416L285.797 125.856V122.979L288.292 121.539V124.416Z" fill="white"/>
<path d="M292.889 121.767L290.393 123.205V120.327L292.889 118.89V121.767Z" fill="white"/>
<path d="M309.303 106.472L306.807 107.909V105.032L309.303 103.593V106.472Z" fill="white"/>
<path d="M323.681 98.179L321.186 99.6184V96.7412L323.681 95.3018V98.179Z" fill="white"/>
<path d="M297.78 113.116L295.284 114.554V111.677L297.78 110.239V113.116Z" fill="white"/>
<path d="M250.37 124.701L221.11 107.828C220.411 107.426 219.845 106.345 219.845 105.415V103.246C219.845 102.316 220.411 101.889 221.11 102.291L250.37 119.163C251.067 119.565 251.635 120.647 251.635 121.576V123.746C251.635 124.677 251.069 125.105 250.37 124.701Z" fill="white"/>
<path d="M229.605 149.317L229.597 124.081L197.666 128.336L173.757 114.548C169.564 112.13 162.764 112.13 158.57 114.548L154.846 116.912L103.003 123.821V149.353C103.003 149.368 103.003 149.382 103.003 149.396V149.517L103.022 149.513C103.082 151.053 104.108 152.579 106.144 153.754L158.846 184.145C163.04 186.563 169.84 186.563 174.033 184.145L226.458 153.697C228.487 152.527 229.513 151.005 229.578 149.471L229.604 149.467V149.317H229.605Z" fill="#0C184B"/>
<path d="M226.46 119.204L173.757 88.8135C169.564 86.3955 162.765 86.3955 158.57 88.8135L106.145 119.26C101.952 121.678 101.952 125.598 106.145 128.016L158.847 158.407C163.041 160.825 169.841 160.825 174.035 158.407L226.46 127.961C230.653 125.543 230.653 121.624 226.46 119.204Z" fill="#F2F4FF"/>
<path d="M226.46 126.433L174.035 156.879C169.841 159.297 163.041 159.297 158.848 156.879L106.145 126.488C104.387 125.473 103.375 124.195 103.092 122.874C102.698 124.703 103.71 126.613 106.145 128.018L158.848 158.408C163.041 160.826 169.841 160.826 174.035 158.408L226.46 127.961C228.895 126.556 229.906 124.646 229.513 122.817C229.229 124.14 228.218 125.417 226.46 126.433Z" fill="white"/>
<path d="M181.12 165.146L178.625 166.584V163.706L181.12 162.269V165.146Z" fill="white"/>
<path d="M186.339 162.135L183.845 163.574V160.697L186.339 159.258V162.135Z" fill="white"/>
<path d="M191.56 159.125L189.065 160.565V157.687L191.56 156.248V159.125Z" fill="white"/>
<path d="M187.292 167.416L184.797 168.856V165.979L187.292 164.539V167.416Z" fill="white"/>
<path d="M191.889 164.767L189.393 166.205V163.327L191.889 161.89V164.767Z" fill="white"/>
<path d="M208.303 149.472L205.807 150.909V148.032L208.303 146.593V149.472Z" fill="white"/>
<path d="M222.681 141.179L220.186 142.618V139.741L222.681 138.302V141.179Z" fill="white"/>
<path d="M196.78 156.116L194.284 157.554V154.677L196.78 153.239V156.116Z" fill="white"/>
<path d="M149.37 167.701L120.11 150.828C119.411 150.426 118.845 149.345 118.845 148.415V146.246C118.845 145.316 119.411 144.889 120.11 145.291L149.37 162.163C150.067 162.565 150.635 163.647 150.635 164.576V166.746C150.635 167.677 150.069 168.105 149.37 167.701Z" fill="white"/>
</svg>
