<svg width="24" height="24" viewBox="0 0 24 24" fill="none" xmlns="http://www.w3.org/2000/svg">
<path d="M9.50065 9.5C9.50065 9.03978 9.87376 8.66669 10.334 8.66667H17.0007C17.6422 8.66667 18.0431 9.36111 17.7223 9.91667C17.5735 10.1745 17.2984 10.3333 17.0007 10.3333H10.334C9.87374 10.3333 9.50065 9.96024 9.50065 9.5ZM10.334 13.6667H17.0007C17.6422 13.6667 18.0431 12.9722 17.7223 12.4167C17.5735 12.1588 17.2984 12 17.0007 12H10.334C9.69249 12 9.29155 12.6944 9.6123 13.25C9.76116 13.5078 10.0363 13.6667 10.334 13.6667ZM23.6673 18.6667C23.6673 20.5076 22.1749 22 20.334 22H8.66732C6.82637 22 5.33398 20.5076 5.33398 18.6667V5.33333C5.33398 4.05033 3.9451 3.24846 2.83398 3.88996C2.31831 4.18768 2.00065 4.73789 2.00065 5.33333C2.00065 5.93125 2.50378 6.33542 2.50898 6.33958C3.01737 6.73081 2.9116 7.52569 2.31858 7.77035C2.21775 7.81195 2.10973 7.83335 2.00065 7.83333C1.82044 7.83364 1.64513 7.77472 1.50169 7.66562C1.38086 7.57708 0.333984 6.75104 0.333984 5.33333C0.333984 3.49238 1.82637 2 3.66732 2H17.834C19.6749 2 21.1673 3.49238 21.1673 5.33333V16.1667H22.0007C22.181 16.1667 22.3564 16.2251 22.5007 16.3333C22.6257 16.4229 23.6673 17.249 23.6673 18.6667ZM9.52773 16.7375C9.64454 16.3927 9.96999 16.1623 10.334 16.1667H19.5007V5.33333C19.5007 4.41286 18.7545 3.66667 17.834 3.66667H6.55169C6.84642 4.17261 7.00137 4.7478 7.00065 5.33333V18.6667C7.00065 19.9497 8.38954 20.7515 9.50065 20.11C10.0163 19.8123 10.334 19.2621 10.334 18.6667C10.334 18.0687 9.83086 17.6646 9.82565 17.6604C9.53409 17.4518 9.41314 17.0772 9.52773 16.7375ZM22.0007 18.6667C21.9902 18.3579 21.8711 18.0628 21.6642 17.8333H11.8725C11.9563 18.1032 11.9988 18.3841 11.9986 18.6667C11.9994 19.2519 11.8452 19.827 11.5517 20.3333H20.334C21.2545 20.3334 22.0007 19.5872 22.0007 18.6667Z" fill="#0C1013"/>
</svg>
