<svg width="24" height="24" viewBox="0 0 24 24" fill="none" xmlns="http://www.w3.org/2000/svg">
<path d="M22.9656 6.62018L18.2856 1.9401C17.2261 0.880645 15.5083 0.880645 14.4488 1.9401L1.03481 15.3541C-0.0246258 16.4136 -0.0246258 18.1313 1.03481 19.1908L4.43297 22.589C4.60327 22.7591 4.83436 22.8543 5.07506 22.8535H21.9482C22.6444 22.8535 23.0795 22.0999 22.7314 21.497C22.5699 21.2172 22.2713 21.0448 21.9482 21.0448H12.3733L22.9657 10.4569C24.0251 9.39743 24.0251 7.6797 22.9656 6.62018ZM9.8162 21.0448H5.44925L2.31563 17.9112C1.96273 17.558 1.96273 16.9858 2.31563 16.6326L8.38278 10.5666L14.3391 16.523L9.8162 21.0448ZM21.686 9.17501L15.6177 15.2444L9.66132 9.28805L15.7307 3.22203C16.084 2.86838 16.6572 2.86838 17.0104 3.22203L21.6882 7.89986C22.0411 8.25299 22.0411 8.82527 21.6882 9.1784L21.686 9.17501Z" fill="#0C1013"/>
</svg>
