<svg width="20" height="20" viewBox="0 0 20 20" fill="none" xmlns="http://www.w3.org/2000/svg">
<path d="M17.5236 10.0077C17.5236 5.85282 14.1556 2.48425 10.0008 2.48405C5.84586 2.48405 2.47721 5.8527 2.47721 10.0077C2.47741 14.1624 5.84599 17.5304 10.0008 17.5304C14.1555 17.5302 17.5234 14.1623 17.5236 10.0077ZM19.1903 10.0077C19.1901 15.0828 15.0759 19.1969 10.0008 19.1971C4.92551 19.1971 0.810747 15.0829 0.810547 10.0077C0.810547 4.93223 4.92539 0.817383 10.0008 0.817383C15.0761 0.817583 19.1903 4.93235 19.1903 10.0077Z" fill="#0C1013"/>
<path d="M5.74025 11.43C6.10835 11.154 6.62946 11.2289 6.90562 11.5968L6.90643 11.596L6.90481 11.5944C6.90896 11.5996 6.91845 11.6107 6.93166 11.6261C6.95815 11.657 7.00241 11.7066 7.06431 11.7685C7.18879 11.893 7.38168 12.0653 7.64211 12.2389C8.15999 12.5841 8.94226 12.9347 10.0005 12.9347C11.0587 12.9347 11.841 12.5841 12.3589 12.2389C12.6193 12.0652 12.8123 11.893 12.9367 11.7685C12.9987 11.7065 13.0429 11.657 13.0694 11.6261C13.0826 11.6107 13.0912 11.5996 13.0954 11.5944L13.0946 11.596C13.3707 11.2278 13.8926 11.1538 14.2608 11.43C14.6289 11.7061 14.7035 12.228 14.4276 12.5962L13.7611 12.0965C14.38 12.5607 14.4238 12.5943 14.4268 12.597L14.4252 12.5994L14.4227 12.6027C14.4208 12.6052 14.4187 12.6083 14.4162 12.6116C14.4111 12.6182 14.4043 12.6264 14.3967 12.636C14.3813 12.6553 14.3607 12.6807 14.3348 12.7109C14.283 12.7714 14.2097 12.8523 14.1151 12.9469C13.9262 13.1357 13.6495 13.3815 13.2834 13.6256C12.5478 14.116 11.4492 14.6013 10.0005 14.6014C8.55175 14.6014 7.45324 14.116 6.71763 13.6256C6.35155 13.3815 6.0748 13.1358 5.88593 12.9469C5.79142 12.8524 5.71806 12.7714 5.6662 12.7109C5.64024 12.6806 5.61897 12.6553 5.60354 12.636C5.59591 12.6265 5.58989 12.6182 5.58482 12.6116C5.58231 12.6084 5.58019 12.6051 5.57831 12.6027L5.57505 12.5994L5.57424 12.5978L5.57343 12.597C5.57343 12.597 5.59155 12.5828 6.23993 12.0965L5.57343 12.597C5.2974 12.2288 5.3721 11.7061 5.74025 11.43Z" fill="#0C1013"/>
<path d="M12.9252 7.50027C12.6945 7.50027 12.5074 7.31319 12.5074 7.0825C12.5074 6.85181 12.6945 6.66465 12.9252 6.66465C13.1559 6.66465 13.343 6.85173 13.343 7.0825C13.343 7.31327 13.156 7.50027 12.9252 7.50027Z" fill="#0C1013"/>
<path d="M12.9249 6.66709C12.6959 6.66725 12.5101 6.85273 12.5099 7.08213L12.518 7.16596C12.5566 7.3554 12.7242 7.49785 12.9249 7.49799C13.1546 7.49799 13.3408 7.31148 13.3408 7.08213C13.3406 6.88136 13.1981 6.71386 13.0087 6.67523L12.9249 6.66709ZM14.1765 7.08213C14.1765 7.77334 13.6157 8.33376 12.9249 8.33376C12.2341 8.3336 11.6741 7.77297 11.6741 7.08213C11.6743 6.39167 12.234 5.83148 12.9249 5.83132C13.6156 5.83132 14.1763 6.39119 14.1765 7.08213Z" fill="#0C1013"/>
<path d="M7.07566 7.50027C6.84489 7.50027 6.65782 7.31319 6.65782 7.0825C6.65782 6.85181 6.84489 6.66465 7.07566 6.66465C7.30644 6.66465 7.49343 6.85173 7.49343 7.0825C7.49343 7.31327 7.30636 7.50027 7.07566 7.50027Z" fill="#0C1013"/>
<path d="M7.0753 6.66709C6.84614 6.66729 6.66046 6.85286 6.66026 7.08213L6.6684 7.16596C6.707 7.35519 6.87442 7.49781 7.0753 7.49799C7.30486 7.49799 7.49115 7.31158 7.49115 7.08213C7.49098 6.88126 7.34842 6.71383 7.15912 6.67523L7.0753 6.66709ZM8.32692 7.08213C8.32692 7.77324 7.76613 8.33376 7.0753 8.33376C6.38456 8.33356 5.82448 7.77304 5.82448 7.08213C5.82468 6.39159 6.38448 5.83152 7.0753 5.83132C7.76638 5.83132 8.32673 6.39149 8.32692 7.08213Z" fill="#0C1013"/>
</svg>
