<svg width="24" height="24" viewBox="0 0 24 24" fill="none" xmlns="http://www.w3.org/2000/svg">
<path d="M20.8281 5C20.8281 4.76007 20.7812 4.52245 20.6894 4.30078C20.5976 4.07895 20.4627 3.87682 20.293 3.70703C20.1234 3.53747 19.9217 3.40338 19.7002 3.31152C19.4784 3.21964 19.2401 3.17188 19 3.17188C18.7599 3.17188 18.5216 3.21964 18.2998 3.31152C18.0783 3.40338 17.8766 3.53747 17.707 3.70703L4.39453 17.0186L3.4248 20.5742L6.98046 19.6045L20.293 6.29297C20.4627 6.12324 20.5976 5.92193 20.6894 5.7002C20.7813 5.47836 20.8281 5.24012 20.8281 5ZM22.8281 5C22.8281 5.50275 22.7295 6.00133 22.5371 6.46582C22.3447 6.93011 22.0624 7.35165 21.707 7.70703L8.20703 21.207C8.08397 21.3301 7.93058 21.4191 7.76269 21.4648L2.26269 22.9648C1.91657 23.0591 1.54663 22.9607 1.29296 22.707C1.03936 22.4533 0.940809 22.0834 1.03515 21.7373L2.53515 16.2373L2.57714 16.1143C2.62721 15.9946 2.70064 15.8853 2.79296 15.793L16.293 2.29297C16.6484 1.93754 17.0707 1.65526 17.5352 1.46289C17.9995 1.27059 18.4974 1.17188 19 1.17188C19.5026 1.17188 20.0005 1.27059 20.4648 1.46289C20.9293 1.65526 21.3516 1.93754 21.707 2.29297C22.0625 2.64846 22.3447 3.07068 22.5371 3.53516C22.7295 3.99955 22.8281 4.49735 22.8281 5Z" fill="white"/>
</svg>
