<svg width="16" height="16" viewBox="0 0 16 16" fill="none" xmlns="http://www.w3.org/2000/svg">
<path d="M8.5249 6.66699C8.89298 6.667 9.19172 6.96497 9.19189 7.33301V8.66602C9.19416 10.7084 8.57053 12.7022 7.40576 14.3799C7.19577 14.6823 6.78046 14.7578 6.47803 14.5479C6.17573 14.3379 6.10125 13.9225 6.31104 13.6201C7.32053 12.1661 7.86086 10.4371 7.85889 8.66699V7.33301C7.85906 6.96507 8.15696 6.66715 8.5249 6.66699ZM11.269 9.33789C11.6346 9.3807 11.8966 9.7116 11.854 10.0771C11.6818 11.5477 11.2531 12.9773 10.5874 14.2998C10.4218 14.6286 10.0207 14.7612 9.69189 14.5957C9.36318 14.4302 9.23066 14.029 9.396 13.7002C9.99157 12.517 10.3757 11.2385 10.5298 9.92285C10.5726 9.55727 10.9035 9.29526 11.269 9.33789ZM8.52979 1.31836C9.5841 1.31917 10.6194 1.5986 11.5317 2.12695C12.4442 2.65542 13.2016 3.41489 13.7271 4.3291C14.2521 5.24287 14.5284 6.27915 14.5259 7.33301V8C14.5781 9.64191 14.3661 11.2817 13.8979 12.8564C13.7931 13.2092 13.4217 13.4103 13.0688 13.3057C12.7161 13.2007 12.515 12.8294 12.6196 12.4766C13.0489 11.0324 13.2419 9.52729 13.1919 8.02148V7.33203C13.1941 6.51197 12.9803 5.70522 12.5718 4.99414C12.1631 4.28295 11.5736 3.69137 10.8638 3.28027C10.154 2.86929 9.34798 2.6529 8.52783 2.65234C7.70787 2.65187 6.90203 2.86741 6.19189 3.27734C5.87316 3.4612 5.46587 3.35176 5.28174 3.0332C5.09776 2.71436 5.20706 2.30712 5.52588 2.12305C6.4391 1.59589 7.47533 1.31764 8.52979 1.31836ZM8.5249 4C9.40896 4 10.2572 4.35144 10.8823 4.97656C11.5073 5.60159 11.8588 6.44915 11.8589 7.33301C11.8589 7.70119 11.5601 7.99999 11.1919 8C10.8237 8 10.5249 7.7012 10.5249 7.33301C10.5248 6.80269 10.314 6.29394 9.93896 5.91895C9.56392 5.54407 9.05519 5.33301 8.5249 5.33301L8.32764 5.34277C7.86988 5.38828 7.43897 5.59082 7.11084 5.91895C6.73584 6.29394 6.52499 6.80269 6.5249 7.33301V8C6.5249 9.58664 6.01005 11.1301 5.05811 12.3994C4.83722 12.6939 4.42003 12.754 4.12549 12.5332C3.83109 12.3124 3.77119 11.8951 3.9917 11.6006C4.77063 10.562 5.19189 9.29822 5.19189 8V7.33301C5.19198 6.44907 5.54341 5.60161 6.16846 4.97656C6.75449 4.39053 7.53602 4.04479 8.35986 4.00391L8.5249 4ZM3.354 4.32324C3.54398 4.00793 3.9537 3.90584 4.26904 4.0957C4.58427 4.2857 4.68642 4.69543 4.49658 5.01074C3.96909 5.88626 3.74376 6.91069 3.85498 7.92676L3.85889 8V8.66602C3.85978 9.48471 3.64517 10.2894 3.23682 10.999C3.05321 11.3179 2.64568 11.4275 2.32666 11.2441C2.00758 11.0605 1.89693 10.6531 2.08057 10.334C2.37235 9.82707 2.52653 9.25189 2.52588 8.66699V8.0293C2.39373 6.73706 2.68335 5.4366 3.354 4.32324Z" fill="black"/>
</svg>
