<svg width="24" height="18" viewBox="0 0 24 18" fill="none" xmlns="http://www.w3.org/2000/svg">
<path d="M14 17.1V15.3C14 14.5839 13.7232 13.8974 13.231 13.391C12.7387 12.8847 12.0712 12.6 11.375 12.6H4.375C3.67881 12.6 3.01133 12.8847 2.51904 13.391C2.02676 13.8974 1.75 14.5839 1.75 15.3V17.1C1.75 17.5971 1.35825 18 0.875 18C0.391751 18 0 17.5971 0 17.1V15.3C0 14.1065 0.461267 12.9623 1.28174 12.1184C2.10221 11.2744 3.21468 10.8 4.375 10.8H11.375C12.5353 10.8 13.6478 11.2744 14.4683 12.1184C15.2887 12.9623 15.75 14.1065 15.75 15.3V17.1C15.75 17.5971 15.3582 18 14.875 18C14.3918 18 14 17.5971 14 17.1ZM19.25 17.1V15.3009L19.2406 15.0776C19.1984 14.5591 19.0115 14.0623 18.6997 13.6485C18.3434 13.1757 17.8444 12.8383 17.2812 12.6888C16.8133 12.5645 16.5324 12.0732 16.6532 11.5919C16.7741 11.1107 17.2509 10.8217 17.7188 10.9459C18.6573 11.1952 19.4893 11.7575 20.0831 12.5455C20.6769 13.3335 20.9992 14.3022 21 15.2991V17.1C21 17.5971 20.6082 18 20.125 18C19.6418 18 19.25 17.5971 19.25 17.1ZM10.5 4.5C10.5 3.00883 9.32475 1.8 7.875 1.8C6.42525 1.8 5.25 3.00883 5.25 4.5C5.25 5.99117 6.42525 7.2 7.875 7.2C9.32475 7.2 10.5 5.99117 10.5 4.5ZM15.7568 4.50439C15.7568 3.90492 15.5631 3.32209 15.2057 2.84854C14.8483 2.37502 14.3475 2.03746 13.783 1.88877C13.3148 1.76547 13.0325 1.27516 13.1523 0.793652C13.2723 0.312198 13.7489 0.0217515 14.217 0.14502C15.1581 0.392858 15.9926 0.956198 16.5883 1.74551C17.1837 2.53473 17.5068 3.50539 17.5068 4.50439C17.5068 5.50359 17.1839 6.47485 16.5883 7.26416C15.9926 8.05343 15.1581 8.61593 14.217 8.86377C13.7489 8.98706 13.2722 8.69666 13.1523 8.21514C13.0325 7.73364 13.3148 7.2433 13.783 7.12002C14.3476 6.97132 14.8483 6.63383 15.2057 6.16025C15.5631 5.68667 15.7568 5.10391 15.7568 4.50439ZM12.25 4.5C12.25 6.98528 10.2912 9 7.875 9C5.45875 9 3.5 6.98528 3.5 4.5C3.5 2.01472 5.45875 0 7.875 0C10.2912 0 12.25 2.01472 12.25 4.5Z" fill="#1F4CFF"/>
<path d="M20.25 8.75V10.25C20.25 10.6642 20.5858 11 21 11C21.4142 11 21.75 10.6642 21.75 10.25V8.75H23.25C23.6642 8.75 24 8.41421 24 8C24 7.58579 23.6642 7.25 23.25 7.25H21.75V5.75C21.75 5.33579 21.4142 5 21 5C20.5858 5 20.25 5.33579 20.25 5.75V7.25H18.75C18.3358 7.25 18 7.58579 18 8C18 8.41421 18.3358 8.75 18.75 8.75H20.25Z" fill="#1F4CFF"/>
</svg>
