                                                                                                                                                                                        <svg width="16" height="16" viewBox="0 0 16 16" fill="none" xmlns="http://www.w3.org/2000/svg">
<path d="M13.5285 0.862208C13.7888 0.601889 14.2108 0.601951 14.4712 0.862208C14.7315 1.12256 14.7315 1.54457 14.4712 1.80492L13.6092 2.6669L15.1379 4.19554C15.3982 4.45589 15.3982 4.8779 15.1379 5.13825L12.8045 7.47158C12.5442 7.73184 12.1221 7.7319 11.8618 7.47158L10.3332 5.94294L8.50179 7.77432C8.70679 8.05155 8.87869 8.35274 9.01286 8.6721C9.23416 9.1989 9.34945 9.76413 9.3514 10.3355C9.35331 10.9069 9.2423 11.4733 9.02458 12.0015C8.80676 12.5299 8.48598 13.0102 8.08187 13.4143C7.67782 13.8183 7.19802 14.1385 6.66976 14.3563C6.14145 14.5741 5.57518 14.6857 5.00374 14.6838C4.43224 14.6819 3.86658 14.5666 3.33968 14.3453C2.81285 14.1239 2.3348 13.8009 1.93343 13.3941L1.92822 13.3889C1.13891 12.5716 0.702229 11.4769 0.712077 10.3407C0.72195 9.20458 1.17758 8.11746 1.98096 7.31403C2.78437 6.51062 3.8715 6.05505 5.00765 6.04515C5.9228 6.0372 6.81065 6.31959 7.54866 6.84203L13.5285 0.862208ZM5.01937 7.37848C4.23288 7.38532 3.48052 7.70066 2.92432 8.25674C2.36809 8.81296 2.05225 9.56585 2.04541 10.3524C2.03864 11.1381 2.34058 11.895 2.88591 12.4605C3.1631 12.7406 3.49264 12.9635 3.85596 13.1161C4.22073 13.2694 4.61265 13.3492 5.0083 13.3505C5.40379 13.3518 5.79564 13.2746 6.1613 13.1239C6.52704 12.9731 6.85941 12.7513 7.13916 12.4716C7.41891 12.1918 7.64071 11.8595 7.7915 11.4937C7.9423 11.1279 8.01939 10.7357 8.01807 10.3401C8.01672 9.94447 7.93692 9.55311 7.78369 9.18838C7.63181 8.82686 7.4101 8.49923 7.132 8.22289C7.13116 8.22209 7.13023 8.22109 7.12939 8.22028C6.56361 7.6739 5.80588 7.37166 5.01937 7.37848ZM11.2759 5.00023L12.3332 6.05752L13.7238 4.6669L12.6665 3.6096L11.2759 5.00023Z" fill="black"/>
`</svg>
