<svg width="246" height="69" viewBox="0 0 246 69" fill="none" xmlns="http://www.w3.org/2000/svg">
<rect width="246" height="69" fill="none"/>
<path d="M73.287 42H61.9843V38.9238L64.7441 38.3438V20.0977L61.9843 19.5V16.4062H73.2167C75.5136 16.4062 77.5292 16.9395 79.2636 18.0059C81.0097 19.0723 82.3691 20.5547 83.3417 22.4531C84.3261 24.3516 84.8183 26.5254 84.8183 28.9746V29.4492C84.8183 31.8867 84.3378 34.043 83.3769 35.918C82.416 37.8164 81.0624 39.3047 79.3163 40.3828C77.582 41.4609 75.5722 42 73.287 42ZM73.0234 20.3438H69.8769V38.0801H73.0234C74.4531 38.0801 75.6542 37.7051 76.6269 36.9551C77.6113 36.2168 78.3613 35.1973 78.8769 33.8965C79.4042 32.5957 79.6679 31.1133 79.6679 29.4492V28.957C79.6679 27.2812 79.4101 25.7871 78.8945 24.4746C78.3671 23.1855 77.6113 22.1777 76.6269 21.4512C75.6425 20.7129 74.4413 20.3438 73.0234 20.3438ZM107.301 35.0039V42H87.0507V38.9238L89.7753 38.3965V20.0273L87.0507 19.5V16.4062H106.914V23.3145H102.976L102.748 20.3613H94.9081V26.7949H103.574V30.75H94.9081V38.0625H103.17L103.398 35.0039H107.301ZM119.553 38.9238V42H109.691V38.9238L111.924 38.502L119.166 29.3262L112.346 19.9395L110.271 19.5V16.4062H120.273V19.5L117.83 19.7285L122.225 25.8809L126.619 19.7285L124.228 19.5V16.4062H134.09V19.5L131.822 19.9395L125.266 28.8691L132.613 38.4844L135.057 38.9238V42H124.809V38.9238L127.006 38.7129L122.26 32.209L117.408 38.7129L119.553 38.9238ZM147.818 42.3691C145.275 42.3691 143.107 41.8418 141.314 40.7871C139.521 39.7324 138.144 38.2676 137.184 36.3926C136.234 34.5176 135.76 32.3438 135.76 29.8711V28.9922C135.76 26.4375 136.234 24.1875 137.184 22.2422C138.133 20.2969 139.475 18.7793 141.209 17.6895C142.955 16.5879 145.018 16.0371 147.396 16.0371C149.236 16.0371 150.965 16.2891 152.582 16.793C154.199 17.2969 155.605 18.0527 156.801 19.0605V24.7383H153.004L152.283 21.3105C151.826 20.9121 151.211 20.5957 150.437 20.3613C149.664 20.1152 148.779 19.9922 147.783 19.9922C146.353 19.9922 145.123 20.3672 144.092 21.1172C143.06 21.8672 142.264 22.916 141.701 24.2637C141.15 25.6113 140.875 27.1758 140.875 28.957V29.8711C140.875 31.582 141.15 33.0879 141.701 34.3887C142.252 35.666 143.049 36.6621 144.092 37.377C145.146 38.0801 146.441 38.4316 147.976 38.4316C148.879 38.4316 149.705 38.3496 150.455 38.1855C151.217 38.0098 151.844 37.7988 152.336 37.5527V33.2109L148.68 32.9297V29.3262H157.486V39.6797C156.35 40.4883 154.978 41.1387 153.373 41.6309C151.779 42.123 149.928 42.3691 147.818 42.3691ZM177.332 30.8906L180.584 38.4141L182.764 38.9238V42H176.541L172.603 31.8926H167.928V38.3965L170.67 38.9238V42H160.07V38.9238L162.795 38.3965V20.0273L160.07 19.5V16.4062H172.199C174.18 16.4062 175.867 16.7109 177.262 17.3203C178.668 17.9297 179.746 18.8027 180.496 19.9395C181.258 21.0762 181.639 22.4414 181.639 24.0352C181.639 25.5469 181.264 26.8887 180.514 28.0605C179.764 29.2559 178.703 30.1992 177.332 30.8906ZM167.928 20.3613V27.9375H172.111C175.053 27.9375 176.523 26.7129 176.523 24.2637C176.523 23.0801 176.16 22.1367 175.434 21.4336C174.707 20.7188 173.629 20.3613 172.199 20.3613H167.928ZM193.275 38.9238V42H184.557V38.9238L186.385 38.6602L194.523 16.4062H199.779L207.865 38.6602L209.693 38.9238V42H200.975V38.9238L202.75 38.6074L201.625 35.0918H192.625L191.5 38.6074L193.275 38.9238ZM197.072 21.7676L196.809 22.5938L193.838 31.3125H200.412L197.424 22.541L197.178 21.7676H197.072ZM221.998 38.9238V42H211.398V38.9238L214.123 38.3965V20.0273L211.398 19.5V16.4062H221.717L228.695 34.248H228.801L235.551 16.4062H245.887V19.5L243.144 20.0273V38.3965L245.887 38.9238V42H235.287V38.9238L238.152 38.3965V33.4922L238.24 21.9434L238.135 21.9258L230.488 41.6484H226.603L218.781 22.084L218.676 22.1016L218.975 32.9648V38.3965L221.998 38.9238Z" fill="#145BB2"/>
<g clip-path="url(#clip0_22_2)">
<path d="M52.9154 37.4326L52.5073 39.2411L51.4775 39.8119L51.3536 40.4198L50.676 40.893L50.2381 40.8873L49.9118 41.3411L49.5862 41.6157L50.6347 41.8326L47.1475 42.929L46.2812 44.4169L47.2434 44.5821L47.2368 45.0893L45.6318 45.0683L45.4517 45.4219L43.7641 45.8871L43.1606 46.5339L45.6123 46.5659L45.0862 48.8709L44.5359 48.4826L44.1562 48.5786L43.2275 48.1853L41.263 48.821L43.5083 49.0017L43.2431 50.0246L42.8056 50.2301L42.3609 50.0463L41.2902 50.7122L41.0878 49.618L40.3858 49.5093L40.3395 49.5512L39.1958 50.7765L39.2073 51.5309L39.8422 51.6387L39.8374 52.0065L39.3034 51.9995L38.8576 51.9047L37.9481 52.4957L18.6001 52.243C15.7868 52.2062 13.9975 49.5975 15.3014 47.4302L34.7891 15.0282C35.9527 13.0928 39.1534 13.1346 40.2661 15.0998L52.4441 36.6005L52.9154 37.4326ZM51.2883 48.5721C51.4297 48.1411 51.3136 47.6841 50.8907 47.3559C50.2486 46.8589 49.3221 46.6489 48.4809 46.7999C47.9196 46.9015 47.5213 47.2575 47.4221 47.7249C47.3229 48.1923 47.5097 48.6091 47.9985 48.9169C47.8629 49.1356 47.7223 49.2731 47.4999 49.48C47.8871 49.5037 48.2656 49.3838 48.6643 49.2337C49.6427 49.5572 50.9895 49.4831 51.2898 48.5721L51.2883 48.5721ZM48.5019 48.1108C48.3802 48.084 48.3053 47.9755 48.3372 47.8696C48.3691 47.7638 48.4921 47.699 48.6138 47.7272C48.7355 47.7553 48.8104 47.8625 48.7785 47.9684C48.7466 48.0742 48.6236 48.139 48.5019 48.1108ZM49.3205 48.2928C49.1988 48.266 49.1254 48.1588 49.1558 48.053C49.1862 47.9471 49.3091 47.8837 49.4308 47.9105C49.5525 47.9373 49.6259 48.0445 49.5955 48.1503C49.5651 48.2562 49.4422 48.3196 49.3205 48.2928ZM50.1239 48.4653C50.0022 48.4385 49.9288 48.3313 49.9592 48.2255C49.9896 48.1196 50.1125 48.0562 50.2342 48.083C50.3559 48.1098 50.4293 48.217 50.3989 48.3228C50.3685 48.4287 50.2456 48.4921 50.1239 48.4653ZM42.7826 47.667C42.8557 47.4462 42.7962 47.2117 42.5787 47.0428C42.2494 46.7876 41.7731 46.6804 41.3434 46.7585C41.0558 46.8105 40.8505 46.9937 40.8001 47.2321C40.7496 47.4704 40.846 47.6855 41.0957 47.8441C41.0256 47.9561 40.9545 48.0268 40.8402 48.1329C41.0399 48.1448 41.233 48.0836 41.4369 48.0066C41.9383 48.1725 42.63 48.1337 42.7841 47.667L42.7826 47.667ZM41.3529 47.4305C41.2905 47.4164 41.2531 47.3615 41.2675 47.3072C41.282 47.253 41.3465 47.2206 41.4089 47.2334C41.4713 47.2462 41.5087 47.3024 41.4942 47.3567C41.4798 47.4109 41.4153 47.4433 41.3529 47.4305ZM41.7728 47.5236C41.7104 47.5095 41.673 47.4546 41.689 47.4004C41.7049 47.3461 41.7679 47.3138 41.8303 47.3279C41.8927 47.342 41.9301 47.3969 41.9141 47.4511C41.8982 47.5054 41.8352 47.5377 41.7728 47.5236ZM42.1852 47.6114C42.1228 47.5973 42.0854 47.5423 42.1013 47.4881C42.1173 47.4339 42.1803 47.4015 42.2427 47.4156C42.305 47.4297 42.3425 47.4846 42.3265 47.5388C42.3105 47.5931 42.2476 47.6254 42.1852 47.6114ZM55.3185 47.7271L56.4512 48.5081L57.1576 47.6954L58.5614 46.0605L53.4104 46.0331L54.5037 46.9105C55.5254 46.7246 56.4515 46.499 57.5304 46.3724L54.6173 47.3236L54.3234 48.3276L55.1633 47.9309C55.2109 47.9076 55.2764 47.797 55.32 47.7298L55.3185 47.7271ZM50.2284 52.032L51.0736 51.4601L51.9877 51.9195L53.1834 49.8637C52.6795 49.885 52.2196 49.9308 51.72 49.9827L49.2096 50.2433L50.2041 50.8525L52.47 50.1598L50.3314 51.1556L50.2284 52.032ZM44.5795 44.5566L45.0075 44.2674L45.4699 44.4992L46.0755 43.4581C45.8206 43.4681 45.5883 43.4929 45.3347 43.5188L44.0649 43.6509L44.5675 43.9589L45.7134 43.6087L44.6311 44.1125L44.5795 44.5566ZM55.1057 40.4237L50.5897 40.1403L52.7189 41.9674L55.1057 40.4237ZM56.3258 55.77L57.0892 56.2075L58.399 54.0575L54.6687 54.6024L55.5357 55.1647C56.2456 54.9018 56.8303 54.6452 57.5621 54.4649L55.6427 55.5034L55.5292 56.3651L56.3274 55.7686L56.3258 55.77ZM51.4438 39.0002L51.7028 39.1483L52.1472 38.4198L50.8829 38.6038L51.1764 38.7948C51.4172 38.7064 51.6151 38.6186 51.8631 38.5581L51.2131 38.9095L51.1742 39.2011L51.4439 38.9988L51.4438 39.0002ZM54.8735 43.2464L53.3812 41.8445L52.6816 42.2524L52.0456 41.7567L50.3165 42.9518L54.872 43.2463L54.8735 43.2464ZM57.5904 43.5302C57.3814 43.4132 57.1324 43.3144 56.8563 43.4276C56.5418 43.555 56.3477 43.818 56.3083 44.1415C56.286 44.3338 56.3993 44.5357 56.5721 44.627C56.7448 44.7182 56.9727 44.6774 57.1597 44.6147C57.311 44.8292 57.571 44.9029 57.885 44.8088C58.3094 44.6815 58.5649 44.2759 58.5519 43.872C58.5397 43.516 58.3 43.1796 57.9012 42.9845C57.2311 42.657 56.436 42.7768 55.976 43.3033C55.567 43.7706 55.5163 44.5016 56.043 44.9467C56.452 45.292 57.0186 45.3698 57.5613 45.2959L57.464 45.033C56.9505 45.094 56.4529 44.9879 56.1694 44.6151C55.8859 44.2422 55.982 43.7761 56.2994 43.423C56.5595 43.1343 57.085 42.9778 57.5393 43.1245C57.91 43.2435 58.1587 43.4805 58.2144 43.7733C58.32 44.3351 57.8118 44.6883 57.6166 44.5663C57.5788 44.5419 57.5896 44.4119 57.6085 44.3709L57.9538 43.6332L57.5935 43.5315L57.5904 43.5302ZM56.6922 44.3112C56.647 44.0291 56.7981 43.792 57.0838 43.6537C57.1698 43.6123 57.4359 43.6808 57.4347 43.7685C57.4306 43.9689 57.3397 44.1563 57.1989 44.3032C57.0751 44.433 56.8252 44.4112 56.6922 44.3112ZM48.5994 39.6004C48.4903 39.5392 48.3598 39.487 48.2155 39.5462C48.0514 39.6131 47.9489 39.7512 47.9284 39.9196C47.9164 40.0204 47.976 40.1261 48.0654 40.1737C48.1549 40.2213 48.2741 40.2003 48.3738 40.1671C48.4532 40.2797 48.5885 40.3186 48.7524 40.269C48.9745 40.2028 49.1085 39.9895 49.1006 39.7796C49.0938 39.5936 48.9695 39.4167 48.7603 39.3157C48.41 39.1438 47.9941 39.2074 47.7525 39.4818C47.5388 39.726 47.5124 40.1094 47.7871 40.3414C48.0014 40.5221 48.2969 40.5631 48.5812 40.5244L48.5296 40.3869C48.2606 40.4192 48.0004 40.3627 47.8519 40.1683C47.7034 39.9738 47.7539 39.7288 47.9196 39.5437C48.0558 39.3928 48.33 39.31 48.5686 39.3875C48.7631 39.4498 48.8927 39.5737 48.9212 39.7268C48.9769 40.0209 48.7105 40.206 48.6091 40.1423C48.5894 40.1301 48.5949 40.0611 48.6043 40.04L48.7848 39.6533L48.5963 39.6003L48.5994 39.6004ZM48.1301 40.0099C48.1061 39.8622 48.1856 39.7384 48.3345 39.666C48.3791 39.644 48.519 39.6803 48.5184 39.7255C48.517 39.8304 48.4684 39.928 48.3942 40.0054C48.3292 40.0736 48.1997 40.0613 48.1286 40.0099L48.1301 40.0099ZM43.5524 45.0425C43.4751 45.0003 43.384 44.9633 43.2828 45.0045C43.1677 45.0521 43.0947 45.1481 43.081 45.2674C43.0724 45.3377 43.1142 45.4126 43.1778 45.4453C43.2415 45.478 43.3256 45.4645 43.3946 45.4415C43.45 45.5205 43.5458 45.547 43.6607 45.5127C43.8169 45.4656 43.9104 45.3167 43.9063 45.168C43.9019 45.0364 43.8135 44.9131 43.6664 44.8422C43.4192 44.7221 43.1272 44.7661 42.9584 44.9591C42.8081 45.131 42.7893 45.4004 42.9825 45.5636C43.1334 45.6903 43.3406 45.7196 43.5408 45.6917L43.5055 45.5956C43.3175 45.6184 43.1334 45.5788 43.0299 45.442C42.9264 45.3052 42.9607 45.133 43.0783 45.0031C43.1743 44.8968 43.3673 44.8396 43.5345 44.8935C43.6712 44.9378 43.7617 45.024 43.7831 45.1318C43.8216 45.3382 43.6353 45.4685 43.5626 45.4237C43.549 45.4156 43.5527 45.3665 43.559 45.352L43.6862 45.0801L43.5539 45.0425L43.5524 45.0425ZM43.2221 45.329C43.2051 45.2252 43.2612 45.1383 43.3656 45.0879C43.3963 45.0723 43.4952 45.0975 43.4948 45.1307C43.4938 45.2051 43.4593 45.2737 43.4083 45.3274C43.3619 45.376 43.2704 45.3668 43.2221 45.3303L43.2221 45.329ZM56.1544 50.0857C56.0896 49.9109 55.9867 49.7277 55.7341 49.6713C55.4466 49.6064 55.1541 49.6863 54.9272 49.8798C54.7915 49.9949 54.7417 50.1801 54.7979 50.3216C54.854 50.4631 55.03 50.5438 55.1926 50.5924C55.1578 50.8044 55.2837 50.976 55.5496 51.0618C55.9082 51.1793 56.3297 51.0335 56.5728 50.7631C56.788 50.5242 56.8382 50.1903 56.6973 49.8737C56.4601 49.3421 55.8613 49.0448 55.2294 49.172C54.668 49.2855 54.1783 49.7399 54.2476 50.2799C54.3016 50.7002 54.6255 51.0178 55.0302 51.2263L55.1307 51.0085C54.7549 50.8057 54.4934 50.5009 54.538 50.123C54.5826 49.7452 54.9385 49.4843 55.3683 49.4036C55.7201 49.3378 56.1638 49.483 56.3718 49.7938C56.541 50.047 56.5588 50.3194 56.411 50.5379C56.1293 50.9565 55.574 50.9466 55.5213 50.7746C55.5111 50.7413 55.5991 50.6601 55.6375 50.642L56.3253 50.3217L56.1514 50.0844L56.1544 50.0857ZM55.0745 50.1725C55.2206 49.9673 55.4689 49.8829 55.743 49.9276C55.8252 49.9407 55.9587 50.1124 55.9031 50.1688C55.7747 50.2985 55.5982 50.3772 55.4147 50.4067C55.2511 50.4338 55.1018 50.3017 55.076 50.1726L55.0745 50.1725ZM44.5921 51.8867L47.1546 52.4327L46.1875 51.1227L45.5559 51.3469C45.4233 51.2163 45.3121 51.0874 45.1439 50.8807L43.5732 51.6264L44.096 51.7846L43.7781 52.2957C43.7422 52.3549 43.9329 52.4756 43.999 52.434L44.5576 52.0748L44.5936 51.888L44.5921 51.8867ZM44.2019 49.3998L45.6275 51.1234L47.7409 50.1883L44.2019 49.3998ZM55.2802 40.6145L53.6105 41.6962L55.0473 43.0242L55.2802 40.6145ZM50.4043 40.3145L50.1698 42.7308L51.8633 41.5791L50.4043 40.3145ZM42.6546 52.3301C42.489 52.2709 42.2643 52.1869 42.0983 52.1609C41.7937 52.1131 41.5786 52.3493 41.5023 52.578C41.4594 52.7102 41.4949 52.9099 41.5871 52.9775C41.6793 53.0451 41.9248 53.0629 42.0514 53.0659C42.3039 53.2391 42.6652 53.2664 42.9068 52.9947C43.1082 52.7663 43.1351 52.4559 42.9889 52.1964C42.8577 51.965 42.5896 51.8114 42.2592 51.7553C41.8116 51.6791 41.3742 51.8765 41.1842 52.1702C40.963 52.5125 40.9348 52.9172 41.2392 53.2106C41.5331 53.4933 42.0168 53.6138 42.4396 53.4826C42.3636 53.3421 42.2293 53.343 42.092 53.3426C41.5824 53.3426 41.1746 53.0212 41.2657 52.5895C41.3405 52.2333 41.5941 51.9763 41.9761 51.9335C42.3261 51.8943 42.7222 52.0588 42.8262 52.3908C42.917 52.6788 42.7563 53.0671 42.3162 53.0042L42.6546 52.3275L42.6546 52.3301ZM41.8221 52.8663C41.6145 52.7481 41.7986 52.4438 41.9917 52.3759C42.0362 52.3606 42.1416 52.3473 42.1844 52.3479C42.2377 52.3486 42.2894 52.4807 42.2765 52.539C42.2279 52.7508 42.0159 52.9777 41.8221 52.8663ZM47.8822 50.3508L46.3855 51.0377L47.3242 52.2942L47.8822 50.3508ZM44.0187 49.5262L43.4703 51.4418L44.9768 50.7099L44.0187 49.5275L44.0187 49.5262ZM53.7389 53.4735L52.7514 54.1962L54.3051 54.7556C54.1357 54.2847 53.9547 53.8972 53.739 53.4721L53.7389 53.4735ZM45.7102 53.0884C45.5025 52.9808 45.32 52.9399 45.0681 52.9472L44.8052 54.3819C44.853 54.4595 45.1543 54.5272 45.1842 54.4506L45.7102 53.0884ZM57.773 49.4164L57.7429 50.781L58.8922 50.1733L57.7745 49.4164L57.773 49.4164ZM60.3091 51.5104L60.2791 52.875L61.4284 52.2673L60.3106 51.5104L60.3091 51.5104ZM42.5537 43.3484L42.618 44.3849L43.7066 43.9835L42.5537 43.347L42.5537 43.3484ZM45.7966 45.4157L45.7666 46.7804L46.9159 46.1726L45.7982 45.4158L45.7966 45.4157ZM47.2748 40.8964L47.371 41.8231L48.4404 41.4919L47.2748 40.8964ZM47.6197 54.7931C47.4381 54.6752 47.2329 54.6141 47.0358 54.6354L46.6493 55.9516C46.7295 56.0071 46.9256 56.0655 46.9978 56.0252L47.6197 54.7944L47.6197 54.7931ZM52.3007 54.4692L51.6136 54.2703L51.0704 55.21L51.7348 55.2731L52.3023 54.4692L52.3007 54.4692ZM52.4137 52.4828L51.6204 53.406L53.0093 53.3736L52.4137 52.4841L52.4137 52.4828ZM55.0446 44.1662L53.7879 43.6518L54.1477 44.3749L55.0446 44.1662ZM54.1162 44.4488L53.9816 44.2386L53.3368 44.4254L54.5963 44.9557L54.358 44.3962L54.1162 44.4488ZM55.0405 44.2418L54.4375 44.384L54.6855 44.9051L55.0405 44.2418ZM53.6914 43.6744L53.3255 44.3548L53.9413 44.1757L53.6914 43.6758L53.6914 43.6744ZM54.7866 55.7379L53.0943 55.0439L53.579 56.0182L54.7866 55.7379ZM53.5366 56.1173L53.3556 55.8334L52.4872 56.0837L54.1838 56.7976L53.8625 56.0445L53.5366 56.116L53.5366 56.1173ZM54.7807 55.8401L53.968 56.0313L54.3006 56.7328L54.7792 55.8387L54.7807 55.8401ZM52.9642 55.0741L52.4716 55.9905L53.3003 55.749L52.9642 55.0754L52.9642 55.0741ZM53.4725 48.5236L52.4291 48.6149L52.9861 48.9634L53.4725 48.5236ZM52.999 49.022L52.8186 48.9307L52.4846 49.2703L53.537 49.1884L53.1318 48.9056L52.999 49.022ZM53.5038 48.5745L53.178 48.8717L53.5714 49.1265L53.5054 48.5745L53.5038 48.5745ZM52.3766 48.662L52.444 49.2286L52.761 48.9034L52.3751 48.6633L52.3766 48.662ZM42.4676 45.8463L41.7346 45.1914L41.7696 45.7867L42.4692 45.8463L42.4676 45.8463ZM41.7247 45.8313L41.6935 45.6516L41.1795 45.6343L41.9109 46.3011L41.9122 45.851L41.7247 45.8326L41.7247 45.8313ZM42.441 45.8991L41.97 45.8597L41.9858 46.2849L42.441 45.8977L42.441 45.8991ZM41.6584 45.1851L41.1909 45.5813L41.682 45.597L41.6584 45.1851ZM60.0006 53.283L59.4368 54.2729L60.7244 53.9458L60.0006 53.2817L60.0006 53.283ZM49.4225 51.3483C49.2869 51.2163 49.1583 51.1337 48.9698 51.0741L48.3692 52.0821C48.3364 52.1361 48.3926 52.2776 48.4364 52.31C48.4712 52.3357 48.5997 52.3108 48.6276 52.278L49.4225 51.3483ZM59.6207 52.2317L59.3028 51.9142L58.1801 52.7122L58.4168 52.9264L59.6222 52.2317L59.6207 52.2317ZM60.2407 46.6999C60.0277 46.652 59.8111 46.7647 59.7568 46.9499C59.7025 47.1351 59.8328 47.324 60.0458 47.3719C60.2588 47.4198 60.4754 47.3072 60.5297 47.122C60.584 46.9368 60.4537 46.7478 60.2407 46.6999ZM45.0181 42.054C44.8051 42.0061 44.5885 42.1188 44.5342 42.304C44.4799 42.4892 44.6102 42.6781 44.8232 42.726C45.0362 42.774 45.2528 42.6613 45.3071 42.4761C45.3614 42.2909 45.2311 42.1019 45.0181 42.054ZM52.3015 45.8845C52.1859 45.859 52.0691 45.9199 52.0403 46.0191C52.0116 46.1184 52.0819 46.2215 52.196 46.2469C52.3102 46.2723 52.4284 46.2114 52.4572 46.1122C52.486 46.013 52.4156 45.9098 52.3015 45.8845ZM53.2698 47.4507L52.7131 47.1951L52.2338 47.6762L52.7625 47.9713L53.2698 47.4507ZM46.3882 40.6604L45.8316 40.4048L45.3523 40.8859L45.881 41.1809L46.3882 40.6604ZM46.0098 47.0877L45.4387 46.8824L45.0234 47.1425L45.5712 47.3701L46.0098 47.0877ZM45.2043 46.0228L44.6476 45.7672L44.1683 46.2483L44.697 46.5434L45.2043 46.0228ZM42.4079 49.3657L41.8513 49.1101L41.372 49.5912L41.9006 49.8863L42.4079 49.3657ZM60.9172 54.4901C60.7133 54.4449 60.5059 54.5524 60.4532 54.7297C60.4005 54.9069 60.5264 55.0879 60.7302 55.1343C60.9341 55.1795 61.1415 55.072 61.1942 54.8947C61.2468 54.7175 61.121 54.5366 60.9172 54.4901ZM53.2581 45.0737L52.8651 44.9065L52.2905 45.6732L52.655 45.8067L53.2581 45.075L53.2581 45.0737ZM57.4042 51.8296L57.0259 51.591L56.6149 52.3305C56.5883 52.3793 56.5841 52.4722 56.5926 52.5162C56.5983 52.5494 56.7797 52.5664 56.8076 52.5336L57.4042 51.8296ZM47.6301 53.1746L47.3095 52.8411L46.683 53.4928C46.6397 53.5388 46.6742 53.6946 46.726 53.7006C46.7687 53.7064 46.8574 53.689 46.8928 53.6656L47.6301 53.1746ZM58.457 47.8624L58.0289 48.5154L58.929 48.4103L58.4555 47.8624L58.457 47.8624ZM47.1862 42.3054L46.3844 43.5285L48.0715 43.3328L47.1862 42.3054ZM53.5467 57.3271L52.9456 57.1998L52.9329 57.7068L53.4 57.8085L53.5467 57.3258L53.5467 57.3271ZM59.8844 55.6398C59.5638 55.5374 59.3421 55.338 58.9517 55.5493L59.6828 56.001L59.8844 55.6412L59.8844 55.6398ZM44.8979 54.7589C44.7427 54.725 44.586 54.8053 44.5461 54.9402C44.5062 55.0751 44.6006 55.2118 44.7558 55.247C44.9109 55.2822 45.0676 55.2006 45.1076 55.0657C45.1475 54.9308 45.0531 54.7941 44.8979 54.7589ZM54.1601 52.1883C54.0155 52.1558 53.8696 52.2323 53.8344 52.3566C53.7992 52.481 53.886 52.6096 54.029 52.6407C54.1721 52.6718 54.3195 52.5967 54.3547 52.4723C54.3899 52.348 54.3031 52.2193 54.1601 52.1883ZM46.6833 56.2708C46.5403 56.2384 46.3944 56.3135 46.3591 56.4392C46.3239 56.5648 46.4093 56.6908 46.5538 56.7219C46.6984 56.753 46.8428 56.6792 46.878 56.5535C46.9132 56.4278 46.8279 56.3019 46.6833 56.2708ZM54.6703 57.5211C54.5318 57.49 54.3905 57.5625 54.3553 57.6842C54.3202 57.806 54.404 57.9279 54.544 57.9589C54.684 57.99 54.8238 57.9174 54.8589 57.7957C54.8941 57.674 54.8102 57.5521 54.6703 57.5211ZM55.7633 53.2781C55.6385 53.25 55.511 53.316 55.4806 53.4245C55.4502 53.533 55.525 53.6442 55.6498 53.671C55.7746 53.6979 55.9021 53.6332 55.9325 53.5247C55.9629 53.4162 55.8881 53.305 55.7633 53.2781ZM48.232 52.4242C48.1133 52.3974 47.9935 52.4596 47.9631 52.5628C47.9328 52.666 48.0047 52.7705 48.1233 52.7973C48.242 52.824 48.3618 52.7619 48.3922 52.6587C48.4225 52.5555 48.3506 52.451 48.232 52.4242ZM46.4754 53.7305C46.3765 53.7079 46.2751 53.7611 46.2496 53.847C46.224 53.933 46.2854 54.0215 46.3843 54.044C46.4832 54.0665 46.5846 54.0134 46.6102 53.9274C46.6357 53.8415 46.5743 53.753 46.4754 53.7305ZM56.4759 52.6952C56.377 52.6727 56.2756 52.7258 56.25 52.8118C56.2245 52.8978 56.2859 52.9862 56.3848 53.0087C56.4837 53.0313 56.5851 52.9782 56.6106 52.8922C56.6362 52.8062 56.5747 52.7178 56.4759 52.6952ZM50.2848 39.6556L49.9064 39.4169L49.4954 40.1565C49.4689 40.2053 49.4646 40.2982 49.4732 40.3421C49.4788 40.3754 49.6602 40.3924 49.6881 40.3596L50.2848 39.6556ZM49.3564 40.5199C49.2575 40.4973 49.1561 40.5505 49.1306 40.6364C49.105 40.7224 49.1664 40.8109 49.2653 40.8334C49.3642 40.8559 49.4656 40.8028 49.4912 40.7168C49.5167 40.6309 49.4553 40.5424 49.3564 40.5199ZM51.8299 45.3047L51.4516 45.066L51.0406 45.8056C51.014 45.8544 51.0098 45.9473 51.0183 45.9912C51.024 46.0245 51.2054 46.0414 51.2333 46.0086L51.8299 45.3047ZM50.9001 46.1689C50.8012 46.1464 50.6998 46.1995 50.6742 46.2855C50.6487 46.3714 50.7101 46.4599 50.809 46.4824C50.9079 46.505 51.0093 46.4518 51.0348 46.3659C51.0604 46.2799 50.9989 46.1914 50.9001 46.1689ZM46.5936 47.8336C46.4947 47.8111 46.3933 47.8642 46.3678 47.9501C46.3423 48.0361 46.4037 48.1246 46.5026 48.1471C46.6014 48.1696 46.7028 48.1165 46.7284 48.0305C46.7539 47.9446 46.6925 47.8561 46.5936 47.8336ZM44.7073 47.8554C44.6085 47.8329 44.507 47.886 44.4815 47.972C44.456 48.058 44.5174 48.1464 44.6163 48.1689C44.7152 48.1915 44.8166 48.1384 44.8421 48.0524C44.8676 47.9664 44.8062 47.878 44.7073 47.8554ZM60.5641 48.4609C60.0386 48.2734 59.4567 48.4305 59.1476 48.8434L59.0681 48.9752C59.068 48.9845 59.0601 49.0003 59.0523 49.0175C58.8682 49.4426 59.0405 49.9229 59.472 50.1809C59.4901 50.1917 59.5068 50.1999 59.5128 50.2079L59.6645 50.2776C59.6767 50.2778 59.6934 50.2847 59.7131 50.2916C60.2024 50.4533 60.7521 50.3051 61.0484 49.9306C61.0608 49.9148 61.0702 49.9003 61.0794 49.8951L61.159 49.7634C61.1591 49.7541 61.1669 49.7382 61.1748 49.7211C61.3589 49.2959 61.1866 48.8156 60.7551 48.5577C60.7369 48.5468 60.7202 48.5386 60.7142 48.5306L60.5626 48.4609L60.5641 48.4609ZM59.6745 50.0985C59.2103 49.8866 59.0322 49.3877 59.274 48.9858C59.5157 48.584 60.0884 48.4295 60.5511 48.6413C61.0137 48.8532 61.1933 49.3522 60.9516 49.754C60.7098 50.1572 60.1371 50.3104 59.6745 50.0985ZM59.8072 49.8639L59.9104 49.9104L60.0039 49.7589L60.1497 49.8099C60.2684 49.8367 60.3742 49.7996 60.4409 49.7115C60.5077 49.6234 60.4998 49.525 60.4123 49.4508C60.5437 49.4406 60.6396 49.3383 60.6013 49.2302C60.5734 49.1528 60.5008 49.1028 60.4251 49.0553L60.5156 48.9011L60.4079 48.8519L60.3159 49.0034L60.2431 48.9706L60.3321 48.8177L60.2259 48.7685L60.1324 48.92L59.9124 48.8202L59.8547 48.9164L59.9548 48.9629C59.973 48.9711 59.9803 49.0004 59.9694 49.0175L59.7105 49.4457C59.698 49.4667 59.6613 49.4716 59.6416 49.462L59.5612 49.4265L59.5034 49.5253L59.7127 49.6223L59.6207 49.7765L59.7284 49.827L59.8219 49.6742L59.8962 49.7084L59.8057 49.8625L59.8072 49.8639ZM60.3163 49.3208C60.2779 49.3415 60.2291 49.3382 60.1852 49.3177L60.0669 49.2618L60.1792 49.076L60.3141 49.1415C60.3384 49.1524 60.3715 49.19 60.3772 49.2154C60.3903 49.2647 60.3547 49.3014 60.3163 49.3221L60.3163 49.3208ZM60.1932 49.6379C60.1026 49.6832 59.9678 49.6004 59.8875 49.5622L60.0107 49.3593L60.1851 49.4426C60.2214 49.4603 60.2606 49.5007 60.2647 49.5392C60.2687 49.5831 60.2331 49.6185 60.1947 49.6379L60.1932 49.6379ZM39.3275 48.643C39.0683 48.7418 38.9309 48.9777 38.9934 49.2189L39.0199 49.2896C39.0199 49.2896 39.0274 49.3017 39.0319 49.3097C39.1436 49.5156 39.4015 49.6292 39.6569 49.5861C39.6676 49.5849 39.6768 49.5824 39.6829 49.5824L39.7641 49.5596C39.7641 49.5596 39.7779 49.5531 39.7871 49.5493C40.0234 49.4528 40.1529 49.2287 40.1024 49.0063C40.101 48.997 40.0981 48.989 40.0982 48.9837L40.0716 48.9129C40.0716 48.9129 40.0641 48.9009 40.0597 48.8929C39.9479 48.6869 39.69 48.5733 39.4346 48.6165C39.4239 48.6177 39.4147 48.6202 39.4086 48.6201L39.3275 48.643ZM39.6933 49.4923C39.4451 49.5634 39.1766 49.4444 39.0955 49.2282C39.0144 49.012 39.1487 48.7787 39.3968 48.7089C39.6449 48.6391 39.9134 48.7568 39.9945 48.973C40.0756 49.1892 39.9414 49.4225 39.6933 49.4923ZM39.643 49.3695L39.6981 49.3529L39.6687 49.2702L39.7408 49.2433C39.793 49.216 39.815 49.1699 39.8019 49.1179C39.7889 49.0659 39.745 49.0348 39.684 49.0354C39.7242 48.9907 39.7159 48.9256 39.6583 48.8996C39.6158 48.8804 39.5715 48.8865 39.5256 48.8939L39.4931 48.8124L39.4349 48.8289L39.4659 48.9103L39.4276 48.9218L39.3951 48.8404L39.3384 48.8569L39.3678 48.9396L39.2499 48.9739L39.269 49.026L39.3226 49.0107C39.3318 49.0082 39.347 49.015 39.3499 49.0244L39.437 49.2552C39.4414 49.2672 39.4305 49.279 39.4198 49.2829L39.3769 49.2956L39.3976 49.3477L39.5109 49.3159L39.5419 49.3987L39.6001 49.3835L39.5691 49.3008L39.6089 49.2893L39.6414 49.3708L39.643 49.3695ZM39.5957 49.0209C39.5908 49.0395 39.5723 49.0538 39.5494 49.0602L39.485 49.0779L39.4467 48.9778L39.5202 48.9589C39.534 48.9551 39.5598 48.9594 39.572 48.9648C39.5962 48.9784 39.599 49.0011 39.5941 49.0209L39.5957 49.0209ZM39.6837 49.1695C39.671 49.2131 39.5899 49.2267 39.547 49.2394L39.5057 49.13L39.6007 49.1046C39.6206 49.0996 39.6511 49.1013 39.6677 49.1135C39.6873 49.127 39.6901 49.151 39.6837 49.1695ZM50.424 43.5986C49.8049 43.212 48.9895 43.2585 48.4373 43.712L48.2858 43.8628C48.2826 43.876 48.2656 43.8944 48.2501 43.9141C47.8574 44.4175 47.9112 45.0915 48.3798 45.5451C48.3994 45.5639 48.419 45.5801 48.4234 45.5921L48.5972 45.7245C48.6124 45.7274 48.6336 45.7423 48.6563 45.7558C49.2378 46.0994 50.0089 46.055 50.53 45.6489C50.5515 45.6319 50.5701 45.6162 50.5839 45.6111L50.7354 45.4603C50.7386 45.4471 50.7556 45.4287 50.7711 45.409C51.1638 44.9042 51.11 44.233 50.6398 43.778C50.6203 43.7591 50.6021 43.7443 50.5962 43.7309L50.4225 43.5985L50.424 43.5986ZM48.675 45.4932C48.1462 45.0906 48.0897 44.3927 48.5504 43.9326C49.0111 43.4739 49.8128 43.4272 50.3431 43.8299C50.8719 44.2325 50.9284 44.9304 50.4677 45.3904C50.007 45.8492 49.2053 45.8958 48.675 45.4932ZM48.9333 45.223L49.0512 45.3109L49.2289 45.1392L49.4 45.2464C49.5456 45.3133 49.6969 45.2941 49.8156 45.1973C49.9344 45.1006 49.959 44.9695 49.872 44.8502C50.0472 44.8724 50.2089 44.7656 50.1971 44.6141C50.1894 44.5051 50.1111 44.4204 50.0283 44.3383L50.2015 44.1627L50.0791 44.0694L49.9044 44.2424L49.8213 44.1789L49.993 44.0032L49.8721 43.9114L49.6959 44.083L49.4436 43.8938L49.3338 44.0039L49.4471 44.0917C49.4667 44.1079 49.4677 44.1464 49.4461 44.1661L48.956 44.655C48.9313 44.6799 48.884 44.6753 48.8614 44.6577L48.7692 44.5888L48.6594 44.7016L48.8981 44.8853L48.7234 45.0609L48.8457 45.1555L49.0235 44.9812L49.1065 45.046L48.9334 45.2217L48.9333 45.223ZM49.7922 44.6539C49.7355 44.6705 49.6717 44.6524 49.6234 44.6146L49.4889 44.5092L49.7008 44.2969L49.8533 44.4184C49.8805 44.44 49.9102 44.4975 49.9098 44.532C49.9089 44.5997 49.8504 44.6374 49.7922 44.6539ZM49.5172 45.0314C49.3825 45.0655 49.2363 44.9215 49.1442 44.85L49.3776 44.618L49.5755 44.7746C49.6163 44.807 49.652 44.8712 49.6438 44.9216C49.6338 44.9799 49.5754 45.0163 49.5172 45.0301L49.5172 45.0314ZM50.5501 53.5712C50.3813 53.172 49.9281 52.9403 49.4466 53.0071L49.3043 53.0398C49.3043 53.0398 49.2812 53.0501 49.2644 53.0565C48.8459 53.1997 48.5954 53.5723 48.6575 53.9595C48.6603 53.9755 48.6632 53.9901 48.6616 53.9981L48.6996 54.122C48.6996 54.122 48.7116 54.1421 48.719 54.1568C48.8851 54.5215 49.3141 54.7396 49.7603 54.6883C49.7787 54.6859 49.7955 54.6834 49.8046 54.6849L49.947 54.6522C49.947 54.6522 49.97 54.6419 49.9868 54.6368C50.4053 54.4936 50.6558 54.121 50.5937 53.7325C50.5909 53.7165 50.588 53.7019 50.5897 53.6939L50.5516 53.5699L50.5501 53.5712ZM48.8352 54.0242C48.7211 53.6456 48.981 53.2586 49.4156 53.1594C49.8503 53.0602 50.2959 53.2891 50.4115 53.6677C50.5256 54.0463 50.2657 54.4333 49.831 54.5325C49.3964 54.6317 48.9508 54.4028 48.8352 54.0242ZM49.0832 53.9624L49.1095 54.0464L49.2748 54.0114L49.3222 54.1222C49.3715 54.2038 49.4595 54.2408 49.5634 54.2263C49.6674 54.2117 49.7338 54.1515 49.738 54.0599C49.8226 54.1261 49.9524 54.1211 50.0084 54.0369C50.0489 53.9763 50.0421 53.9072 50.0339 53.838L50.1992 53.799L50.1729 53.7111L50.0076 53.7474L49.9901 53.6874L50.1539 53.6484L50.1275 53.5617L49.9623 53.5968L49.9066 53.4168L49.8026 53.4406L49.8259 53.5233C49.8303 53.5379 49.8132 53.559 49.7949 53.5627L49.3312 53.6669C49.3082 53.6719 49.284 53.6543 49.2797 53.6383L49.2592 53.573L49.1535 53.5981L49.2047 53.7701L49.0394 53.8078L49.0642 53.8958L49.231 53.8594L49.2485 53.9207L49.0832 53.9597L49.0832 53.9624ZM49.7763 53.9303C49.7398 53.9205 49.7127 53.8923 49.7025 53.8563L49.6748 53.759L49.8753 53.7138L49.9059 53.8257C49.9117 53.8457 49.9036 53.8855 49.8881 53.9039C49.8601 53.9393 49.8128 53.9414 49.7748 53.9316L49.7763 53.9303ZM49.4742 54.0445C49.3876 54.0208 49.3709 53.8984 49.3504 53.8318L49.5707 53.7829L49.6116 53.9281C49.6203 53.9588 49.6121 54.0038 49.5874 54.0274C49.558 54.0549 49.5123 54.0556 49.4742 54.0458L49.4742 54.0445Z" fill="url(#paint0_linear_22_2)"/>
<mask id="mask0_22_2" style="mask-type:luminance" maskUnits="userSpaceOnUse" x="14" y="13" width="46" height="40">
<path d="M34.7879 15.1158L15.3002 47.5191C13.9978 49.6851 15.7857 52.2939 18.6005 52.3306L55.4764 52.8123C58.2897 52.849 60.1465 50.2879 58.9012 48.0886L40.2665 15.1874C39.1538 13.2222 35.953 13.1804 34.7895 15.1159L34.7879 15.1158Z" fill="white"/>
</mask>
<g mask="url(#mask0_22_2)">
<path d="M37.5471 13.6897L15.3324 13.3996L14.8245 52.2825L37.0392 52.5727L37.5471 13.6897Z" fill="url(#paint1_linear_22_2)"/>
</g>
<path d="M42.2792 48.1238C42.398 48.1254 42.4954 48.0428 42.4968 47.9394C42.4981 47.836 42.4029 47.751 42.2841 47.7494C42.1653 47.7479 42.0679 47.8304 42.0665 47.9338C42.0652 48.0372 42.1604 48.1223 42.2792 48.1238Z" fill="#FEFEFE"/>
<path d="M73.287 42H61.9843V38.9238L64.7441 38.3438V20.0977L61.9843 19.5V16.4062H73.2167C75.5136 16.4062 77.5292 16.9395 79.2636 18.0059C81.0097 19.0723 82.3691 20.5547 83.3417 22.4531C84.3261 24.3516 84.8183 26.5254 84.8183 28.9746V29.4492C84.8183 31.8867 84.3378 34.043 83.3769 35.918C82.416 37.8164 81.0624 39.3047 79.3163 40.3828C77.582 41.4609 75.5722 42 73.287 42ZM73.0234 20.3438H69.8769V38.0801H73.0234C74.4531 38.0801 75.6542 37.7051 76.6269 36.9551C77.6113 36.2168 78.3613 35.1973 78.8769 33.8965C79.4042 32.5957 79.6679 31.1133 79.6679 29.4492V28.957C79.6679 27.2812 79.4101 25.7871 78.8945 24.4746C78.3671 23.1855 77.6113 22.1777 76.6269 21.4512C75.6425 20.7129 74.4413 20.3438 73.0234 20.3438ZM107.301 35.0039V42H87.0507V38.9238L89.7753 38.3965V20.0273L87.0507 19.5V16.4062H106.914V23.3145H102.976L102.748 20.3613H94.9081V26.7949H103.574V30.75H94.9081V38.0625H103.17L103.398 35.0039H107.301ZM119.553 38.9238V42H109.691V38.9238L111.924 38.502L119.166 29.3262L112.346 19.9395L110.271 19.5V16.4062H120.273V19.5L117.83 19.7285L122.225 25.8809L126.619 19.7285L124.228 19.5V16.4062H134.09V19.5L131.822 19.9395L125.266 28.8691L132.613 38.4844L135.057 38.9238V42H124.809V38.9238L127.006 38.7129L122.26 32.209L117.408 38.7129L119.553 38.9238ZM147.818 42.3691C145.275 42.3691 143.107 41.8418 141.314 40.7871C139.521 39.7324 138.144 38.2676 137.184 36.3926C136.234 34.5176 135.76 32.3438 135.76 29.8711V28.9922C135.76 26.4375 136.234 24.1875 137.184 22.2422C138.133 20.2969 139.475 18.7793 141.209 17.6895C142.955 16.5879 145.018 16.0371 147.396 16.0371C149.236 16.0371 150.965 16.2891 152.582 16.793C154.199 17.2969 155.605 18.0527 156.801 19.0605V24.7383H153.004L152.283 21.3105C151.826 20.9121 151.211 20.5957 150.437 20.3613C149.664 20.1152 148.779 19.9922 147.783 19.9922C146.353 19.9922 145.123 20.3672 144.092 21.1172C143.06 21.8672 142.264 22.916 141.701 24.2637C141.15 25.6113 140.875 27.1758 140.875 28.957V29.8711C140.875 31.582 141.15 33.0879 141.701 34.3887C142.252 35.666 143.049 36.6621 144.092 37.377C145.146 38.0801 146.441 38.4316 147.976 38.4316C148.879 38.4316 149.705 38.3496 150.455 38.1855C151.217 38.0098 151.844 37.7988 152.336 37.5527V33.2109L148.68 32.9297V29.3262H157.486V39.6797C156.35 40.4883 154.978 41.1387 153.373 41.6309C151.779 42.123 149.928 42.3691 147.818 42.3691ZM177.332 30.8906L180.584 38.4141L182.764 38.9238V42H176.541L172.603 31.8926H167.928V38.3965L170.67 38.9238V42H160.07V38.9238L162.795 38.3965V20.0273L160.07 19.5V16.4062H172.199C174.18 16.4062 175.867 16.7109 177.262 17.3203C178.668 17.9297 179.746 18.8027 180.496 19.9395C181.258 21.0762 181.639 22.4414 181.639 24.0352C181.639 25.5469 181.264 26.8887 180.514 28.0605C179.764 29.2559 178.703 30.1992 177.332 30.8906ZM167.928 20.3613V27.9375H172.111C175.053 27.9375 176.523 26.7129 176.523 24.2637C176.523 23.0801 176.16 22.1367 175.434 21.4336C174.707 20.7188 173.629 20.3613 172.199 20.3613H167.928ZM193.275 38.9238V42H184.557V38.9238L186.385 38.6602L194.523 16.4062H199.779L207.865 38.6602L209.693 38.9238V42H200.975V38.9238L202.75 38.6074L201.625 35.0918H192.625L191.5 38.6074L193.275 38.9238ZM197.072 21.7676L196.809 22.5938L193.838 31.3125H200.412L197.424 22.541L197.178 21.7676H197.072ZM221.998 38.9238V42H211.398V38.9238L214.123 38.3965V20.0273L211.398 19.5V16.4062H221.717L228.695 34.248H228.801L235.551 16.4062H245.887V19.5L243.144 20.0273V38.3965L245.887 38.9238V42H235.287V38.9238L238.152 38.3965V33.4922L238.24 21.9434L238.135 21.9258L230.488 41.6484H226.603L218.781 22.084L218.676 22.1016L218.975 32.9648V38.3965L221.998 38.9238Z" fill="#34529B"/>
<path d="M52.9154 37.4326L52.5073 39.2411L51.4775 39.8119L51.3536 40.4198L50.676 40.893L50.2381 40.8873L49.9118 41.3411L49.5862 41.6157L50.6347 41.8326L47.1475 42.929L46.2812 44.4169L47.2434 44.5821L47.2368 45.0893L45.6318 45.0683L45.4517 45.4219L43.7641 45.8871L43.1606 46.5339L45.6123 46.5659L45.0862 48.8709L44.5359 48.4826L44.1562 48.5786L43.2275 48.1853L41.263 48.821L43.5083 49.0017L43.2431 50.0246L42.8056 50.2301L42.3609 50.0463L41.2902 50.7122L41.0878 49.618L40.3858 49.5093L40.3395 49.5512L39.1958 50.7765L39.2073 51.5309L39.8422 51.6387L39.8374 52.0065L39.3034 51.9995L38.8576 51.9047L37.9481 52.4957L18.6001 52.243C15.7868 52.2062 13.9975 49.5975 15.3014 47.4302L34.7891 15.0282C35.9527 13.0928 39.1534 13.1346 40.2661 15.0998L52.4441 36.6005L52.9154 37.4326ZM51.2883 48.5721C51.4297 48.1411 51.3136 47.6841 50.8907 47.3559C50.2486 46.8589 49.3221 46.6489 48.4809 46.7999C47.9196 46.9015 47.5213 47.2575 47.4221 47.7249C47.3229 48.1923 47.5097 48.6091 47.9985 48.9169C47.8629 49.1356 47.7223 49.2731 47.4999 49.48C47.8871 49.5037 48.2656 49.3838 48.6643 49.2337C49.6427 49.5572 50.9895 49.4831 51.2898 48.5721L51.2883 48.5721ZM48.5019 48.1108C48.3802 48.084 48.3053 47.9755 48.3372 47.8696C48.3691 47.7638 48.4921 47.699 48.6138 47.7272C48.7355 47.7553 48.8104 47.8625 48.7785 47.9684C48.7466 48.0742 48.6236 48.139 48.5019 48.1108ZM49.3205 48.2928C49.1988 48.266 49.1254 48.1588 49.1558 48.053C49.1862 47.9471 49.3091 47.8837 49.4308 47.9105C49.5525 47.9373 49.6259 48.0445 49.5955 48.1503C49.5651 48.2562 49.4422 48.3196 49.3205 48.2928ZM50.1239 48.4653C50.0022 48.4385 49.9288 48.3313 49.9592 48.2255C49.9896 48.1196 50.1125 48.0562 50.2342 48.083C50.3559 48.1098 50.4293 48.217 50.3989 48.3228C50.3685 48.4287 50.2456 48.4921 50.1239 48.4653ZM42.7826 47.667C42.8557 47.4462 42.7962 47.2117 42.5787 47.0428C42.2494 46.7876 41.7731 46.6804 41.3434 46.7585C41.0558 46.8105 40.8505 46.9937 40.8001 47.2321C40.7496 47.4704 40.846 47.6855 41.0957 47.8441C41.0256 47.9561 40.9545 48.0268 40.8402 48.1329C41.0399 48.1448 41.233 48.0836 41.4369 48.0066C41.9383 48.1725 42.63 48.1337 42.7841 47.667L42.7826 47.667ZM41.3529 47.4305C41.2905 47.4164 41.2531 47.3615 41.2675 47.3072C41.282 47.253 41.3465 47.2206 41.4089 47.2334C41.4713 47.2462 41.5087 47.3024 41.4942 47.3567C41.4798 47.4109 41.4153 47.4433 41.3529 47.4305ZM41.7728 47.5236C41.7104 47.5095 41.673 47.4546 41.689 47.4004C41.7049 47.3461 41.7679 47.3138 41.8303 47.3279C41.8927 47.342 41.9301 47.3969 41.9141 47.4511C41.8982 47.5054 41.8352 47.5377 41.7728 47.5236ZM42.1852 47.6114C42.1228 47.5973 42.0854 47.5423 42.1013 47.4881C42.1173 47.4339 42.1803 47.4015 42.2427 47.4156C42.305 47.4297 42.3425 47.4846 42.3265 47.5388C42.3105 47.5931 42.2476 47.6254 42.1852 47.6114ZM55.3185 47.7271L56.4512 48.5081L57.1576 47.6954L58.5614 46.0605L53.4104 46.0331L54.5037 46.9105C55.5254 46.7246 56.4515 46.499 57.5304 46.3724L54.6173 47.3236L54.3234 48.3276L55.1633 47.9309C55.2109 47.9076 55.2764 47.797 55.32 47.7298L55.3185 47.7271ZM50.2284 52.032L51.0736 51.4601L51.9877 51.9195L53.1834 49.8637C52.6795 49.885 52.2196 49.9308 51.72 49.9827L49.2096 50.2433L50.2041 50.8525L52.47 50.1598L50.3314 51.1556L50.2284 52.032ZM44.5795 44.5566L45.0075 44.2674L45.4699 44.4992L46.0755 43.4581C45.8206 43.4681 45.5883 43.4929 45.3347 43.5188L44.0649 43.6509L44.5675 43.9589L45.7134 43.6087L44.6311 44.1125L44.5795 44.5566ZM55.1057 40.4237L50.5897 40.1403L52.7189 41.9674L55.1057 40.4237ZM56.3258 55.77L57.0892 56.2075L58.399 54.0575L54.6687 54.6024L55.5357 55.1647C56.2456 54.9018 56.8303 54.6452 57.5621 54.4649L55.6427 55.5034L55.5292 56.3651L56.3274 55.7686L56.3258 55.77ZM51.4438 39.0002L51.7028 39.1483L52.1472 38.4198L50.8829 38.6038L51.1764 38.7948C51.4172 38.7064 51.6151 38.6186 51.8631 38.5581L51.2131 38.9095L51.1742 39.2011L51.4439 38.9988L51.4438 39.0002ZM54.8735 43.2464L53.3812 41.8445L52.6816 42.2524L52.0456 41.7567L50.3165 42.9518L54.872 43.2463L54.8735 43.2464ZM57.5904 43.5302C57.3814 43.4132 57.1324 43.3144 56.8563 43.4276C56.5418 43.555 56.3477 43.818 56.3083 44.1415C56.286 44.3338 56.3993 44.5357 56.5721 44.627C56.7448 44.7182 56.9727 44.6774 57.1597 44.6147C57.311 44.8292 57.571 44.9029 57.885 44.8088C58.3094 44.6815 58.5649 44.2759 58.5519 43.872C58.5397 43.516 58.3 43.1796 57.9012 42.9845C57.2311 42.657 56.436 42.7768 55.976 43.3033C55.567 43.7706 55.5163 44.5016 56.043 44.9467C56.452 45.292 57.0186 45.3698 57.5613 45.2959L57.464 45.033C56.9505 45.094 56.4529 44.9879 56.1694 44.6151C55.8859 44.2422 55.982 43.7761 56.2994 43.423C56.5595 43.1343 57.085 42.9778 57.5393 43.1245C57.91 43.2435 58.1587 43.4805 58.2144 43.7733C58.32 44.3351 57.8118 44.6883 57.6166 44.5663C57.5788 44.5419 57.5896 44.4119 57.6085 44.3709L57.9538 43.6332L57.5935 43.5315L57.5904 43.5302ZM56.6922 44.3112C56.647 44.0291 56.7981 43.792 57.0838 43.6537C57.1698 43.6123 57.4359 43.6808 57.4347 43.7685C57.4306 43.9689 57.3397 44.1563 57.1989 44.3032C57.0751 44.433 56.8252 44.4112 56.6922 44.3112ZM48.5994 39.6004C48.4903 39.5392 48.3598 39.487 48.2155 39.5462C48.0514 39.6131 47.9489 39.7512 47.9284 39.9196C47.9164 40.0204 47.976 40.1261 48.0654 40.1737C48.1549 40.2213 48.2741 40.2003 48.3738 40.1671C48.4532 40.2797 48.5885 40.3186 48.7524 40.269C48.9745 40.2028 49.1085 39.9895 49.1006 39.7796C49.0938 39.5936 48.9695 39.4167 48.7603 39.3157C48.41 39.1438 47.9941 39.2074 47.7525 39.4818C47.5388 39.726 47.5124 40.1094 47.7871 40.3414C48.0014 40.5221 48.2969 40.5631 48.5812 40.5244L48.5296 40.3869C48.2606 40.4192 48.0004 40.3627 47.8519 40.1683C47.7034 39.9738 47.7539 39.7288 47.9196 39.5437C48.0558 39.3928 48.33 39.31 48.5686 39.3875C48.7631 39.4498 48.8927 39.5737 48.9212 39.7268C48.9769 40.0209 48.7105 40.206 48.6091 40.1423C48.5894 40.1301 48.5949 40.0611 48.6043 40.04L48.7848 39.6533L48.5963 39.6003L48.5994 39.6004ZM48.1301 40.0099C48.1061 39.8622 48.1856 39.7384 48.3345 39.666C48.3791 39.644 48.519 39.6803 48.5184 39.7255C48.517 39.8304 48.4684 39.928 48.3942 40.0054C48.3292 40.0736 48.1997 40.0613 48.1286 40.0099L48.1301 40.0099ZM43.5524 45.0425C43.4751 45.0003 43.384 44.9633 43.2828 45.0045C43.1677 45.0521 43.0947 45.1481 43.081 45.2674C43.0724 45.3377 43.1142 45.4126 43.1778 45.4453C43.2415 45.478 43.3256 45.4645 43.3946 45.4415C43.45 45.5205 43.5458 45.547 43.6607 45.5127C43.8169 45.4656 43.9104 45.3167 43.9063 45.168C43.9019 45.0364 43.8135 44.9131 43.6664 44.8422C43.4192 44.7221 43.1272 44.7661 42.9584 44.9591C42.8081 45.131 42.7893 45.4004 42.9825 45.5636C43.1334 45.6903 43.3406 45.7196 43.5408 45.6917L43.5055 45.5956C43.3175 45.6184 43.1334 45.5788 43.0299 45.442C42.9264 45.3052 42.9607 45.133 43.0783 45.0031C43.1743 44.8968 43.3673 44.8396 43.5345 44.8935C43.6712 44.9378 43.7617 45.024 43.7831 45.1318C43.8216 45.3382 43.6353 45.4685 43.5626 45.4237C43.549 45.4156 43.5527 45.3665 43.559 45.352L43.6862 45.0801L43.5539 45.0425L43.5524 45.0425ZM43.2221 45.329C43.2051 45.2252 43.2612 45.1383 43.3656 45.0879C43.3963 45.0723 43.4952 45.0975 43.4948 45.1307C43.4938 45.2051 43.4593 45.2737 43.4083 45.3274C43.3619 45.376 43.2704 45.3668 43.2221 45.3303L43.2221 45.329ZM56.1544 50.0857C56.0896 49.9109 55.9867 49.7277 55.7341 49.6713C55.4466 49.6064 55.1541 49.6863 54.9272 49.8798C54.7915 49.9949 54.7417 50.1801 54.7979 50.3216C54.854 50.4631 55.03 50.5438 55.1926 50.5924C55.1578 50.8044 55.2837 50.976 55.5496 51.0618C55.9082 51.1793 56.3297 51.0335 56.5728 50.7631C56.788 50.5242 56.8382 50.1903 56.6973 49.8737C56.4601 49.3421 55.8613 49.0448 55.2294 49.172C54.668 49.2855 54.1783 49.7399 54.2476 50.2799C54.3016 50.7002 54.6255 51.0178 55.0302 51.2263L55.1307 51.0085C54.7549 50.8057 54.4934 50.5009 54.538 50.123C54.5826 49.7452 54.9385 49.4843 55.3683 49.4036C55.7201 49.3378 56.1638 49.483 56.3718 49.7938C56.541 50.047 56.5588 50.3194 56.411 50.5379C56.1293 50.9565 55.574 50.9466 55.5213 50.7746C55.5111 50.7413 55.5991 50.6601 55.6375 50.642L56.3253 50.3217L56.1514 50.0844L56.1544 50.0857ZM55.0745 50.1725C55.2206 49.9673 55.4689 49.8829 55.743 49.9276C55.8252 49.9407 55.9587 50.1124 55.9031 50.1688C55.7747 50.2985 55.5982 50.3772 55.4147 50.4067C55.2511 50.4338 55.1018 50.3017 55.076 50.1726L55.0745 50.1725ZM44.5921 51.8867L47.1546 52.4327L46.1875 51.1227L45.5559 51.3469C45.4233 51.2163 45.3121 51.0874 45.1439 50.8807L43.5732 51.6264L44.096 51.7846L43.7781 52.2957C43.7422 52.3549 43.9329 52.4756 43.999 52.434L44.5576 52.0748L44.5936 51.888L44.5921 51.8867ZM44.2019 49.3998L45.6275 51.1234L47.7409 50.1883L44.2019 49.3998ZM55.2802 40.6145L53.6105 41.6962L55.0473 43.0242L55.2802 40.6145ZM50.4043 40.3145L50.1698 42.7308L51.8633 41.5791L50.4043 40.3145ZM42.6546 52.3301C42.489 52.2709 42.2643 52.1869 42.0983 52.1609C41.7937 52.1131 41.5786 52.3493 41.5023 52.578C41.4594 52.7102 41.4949 52.9099 41.5871 52.9775C41.6793 53.0451 41.9248 53.0629 42.0514 53.0659C42.3039 53.2391 42.6652 53.2664 42.9068 52.9947C43.1082 52.7663 43.1351 52.4559 42.9889 52.1964C42.8577 51.965 42.5896 51.8114 42.2592 51.7553C41.8116 51.6791 41.3742 51.8765 41.1842 52.1702C40.963 52.5125 40.9348 52.9172 41.2392 53.2106C41.5331 53.4933 42.0168 53.6138 42.4396 53.4826C42.3636 53.3421 42.2293 53.343 42.092 53.3426C41.5824 53.3426 41.1746 53.0212 41.2657 52.5895C41.3405 52.2333 41.5941 51.9763 41.9761 51.9335C42.3261 51.8943 42.7222 52.0588 42.8262 52.3908C42.917 52.6788 42.7563 53.0671 42.3162 53.0042L42.6546 52.3275L42.6546 52.3301ZM41.8221 52.8663C41.6145 52.7481 41.7986 52.4438 41.9917 52.3759C42.0362 52.3606 42.1416 52.3473 42.1844 52.3479C42.2377 52.3486 42.2894 52.4807 42.2765 52.539C42.2279 52.7508 42.0159 52.9777 41.8221 52.8663ZM47.8822 50.3508L46.3855 51.0377L47.3242 52.2942L47.8822 50.3508ZM44.0187 49.5262L43.4703 51.4418L44.9768 50.7099L44.0187 49.5275L44.0187 49.5262ZM53.7389 53.4735L52.7514 54.1962L54.3051 54.7556C54.1357 54.2847 53.9547 53.8972 53.739 53.4721L53.7389 53.4735ZM45.7102 53.0884C45.5025 52.9808 45.32 52.9399 45.0681 52.9472L44.8052 54.3819C44.853 54.4595 45.1543 54.5272 45.1842 54.4506L45.7102 53.0884ZM57.773 49.4164L57.7429 50.781L58.8922 50.1733L57.7745 49.4164L57.773 49.4164ZM60.3091 51.5104L60.2791 52.875L61.4284 52.2673L60.3106 51.5104L60.3091 51.5104ZM42.5537 43.3484L42.618 44.3849L43.7066 43.9835L42.5537 43.347L42.5537 43.3484ZM45.7966 45.4157L45.7666 46.7804L46.9159 46.1726L45.7982 45.4158L45.7966 45.4157ZM47.2748 40.8964L47.371 41.8231L48.4404 41.4919L47.2748 40.8964ZM47.6197 54.7931C47.4381 54.6752 47.2329 54.6141 47.0358 54.6354L46.6493 55.9516C46.7295 56.0071 46.9256 56.0655 46.9978 56.0252L47.6197 54.7944L47.6197 54.7931ZM52.3007 54.4692L51.6136 54.2703L51.0704 55.21L51.7348 55.2731L52.3023 54.4692L52.3007 54.4692ZM52.4137 52.4828L51.6204 53.406L53.0093 53.3736L52.4137 52.4841L52.4137 52.4828ZM55.0446 44.1662L53.7879 43.6518L54.1477 44.3749L55.0446 44.1662ZM54.1162 44.4488L53.9816 44.2386L53.3368 44.4254L54.5963 44.9557L54.358 44.3962L54.1162 44.4488ZM55.0405 44.2418L54.4375 44.384L54.6855 44.9051L55.0405 44.2418ZM53.6914 43.6744L53.3255 44.3548L53.9413 44.1757L53.6914 43.6758L53.6914 43.6744ZM54.7866 55.7379L53.0943 55.0439L53.579 56.0182L54.7866 55.7379ZM53.5366 56.1173L53.3556 55.8334L52.4872 56.0837L54.1838 56.7976L53.8625 56.0445L53.5366 56.116L53.5366 56.1173ZM54.7807 55.8401L53.968 56.0313L54.3006 56.7328L54.7792 55.8387L54.7807 55.8401ZM52.9642 55.0741L52.4716 55.9905L53.3003 55.749L52.9642 55.0754L52.9642 55.0741ZM53.4725 48.5236L52.4291 48.6149L52.9861 48.9634L53.4725 48.5236ZM52.999 49.022L52.8186 48.9307L52.4846 49.2703L53.537 49.1884L53.1318 48.9056L52.999 49.022ZM53.5038 48.5745L53.178 48.8717L53.5714 49.1265L53.5054 48.5745L53.5038 48.5745ZM52.3766 48.662L52.444 49.2286L52.761 48.9034L52.3751 48.6633L52.3766 48.662ZM42.4676 45.8463L41.7346 45.1914L41.7696 45.7867L42.4692 45.8463L42.4676 45.8463ZM41.7247 45.8313L41.6935 45.6516L41.1795 45.6343L41.9109 46.3011L41.9122 45.851L41.7247 45.8326L41.7247 45.8313ZM42.441 45.8991L41.97 45.8597L41.9858 46.2849L42.441 45.8977L42.441 45.8991ZM41.6584 45.1851L41.1909 45.5813L41.682 45.597L41.6584 45.1851ZM60.0006 53.283L59.4368 54.2729L60.7244 53.9458L60.0006 53.2817L60.0006 53.283ZM49.4225 51.3483C49.2869 51.2163 49.1583 51.1337 48.9698 51.0741L48.3692 52.0821C48.3364 52.1361 48.3926 52.2776 48.4364 52.31C48.4712 52.3357 48.5997 52.3108 48.6276 52.278L49.4225 51.3483ZM59.6207 52.2317L59.3028 51.9142L58.1801 52.7122L58.4168 52.9264L59.6222 52.2317L59.6207 52.2317ZM60.2407 46.6999C60.0277 46.652 59.8111 46.7647 59.7568 46.9499C59.7025 47.1351 59.8328 47.324 60.0458 47.3719C60.2588 47.4198 60.4754 47.3072 60.5297 47.122C60.584 46.9368 60.4537 46.7478 60.2407 46.6999ZM45.0181 42.054C44.8051 42.0061 44.5885 42.1188 44.5342 42.304C44.4799 42.4892 44.6102 42.6781 44.8232 42.726C45.0362 42.774 45.2528 42.6613 45.3071 42.4761C45.3614 42.2909 45.2311 42.1019 45.0181 42.054ZM52.3015 45.8845C52.1859 45.859 52.0691 45.9199 52.0403 46.0191C52.0116 46.1184 52.0819 46.2215 52.196 46.2469C52.3102 46.2723 52.4284 46.2114 52.4572 46.1122C52.486 46.013 52.4156 45.9098 52.3015 45.8845ZM53.2698 47.4507L52.7131 47.1951L52.2338 47.6762L52.7625 47.9713L53.2698 47.4507ZM46.3882 40.6604L45.8316 40.4048L45.3523 40.8859L45.881 41.1809L46.3882 40.6604ZM46.0098 47.0877L45.4387 46.8824L45.0234 47.1425L45.5712 47.3701L46.0098 47.0877ZM45.2043 46.0228L44.6476 45.7672L44.1683 46.2483L44.697 46.5434L45.2043 46.0228ZM42.4079 49.3657L41.8513 49.1101L41.372 49.5912L41.9006 49.8863L42.4079 49.3657ZM60.9172 54.4901C60.7133 54.4449 60.5059 54.5524 60.4532 54.7297C60.4005 54.9069 60.5264 55.0879 60.7302 55.1343C60.9341 55.1795 61.1415 55.072 61.1942 54.8947C61.2468 54.7175 61.121 54.5366 60.9172 54.4901ZM53.2581 45.0737L52.8651 44.9065L52.2905 45.6732L52.655 45.8067L53.2581 45.075L53.2581 45.0737ZM57.4042 51.8296L57.0259 51.591L56.6149 52.3305C56.5883 52.3793 56.5841 52.4722 56.5926 52.5162C56.5983 52.5494 56.7797 52.5664 56.8076 52.5336L57.4042 51.8296ZM47.6301 53.1746L47.3095 52.8411L46.683 53.4928C46.6397 53.5388 46.6742 53.6946 46.726 53.7006C46.7687 53.7064 46.8574 53.689 46.8928 53.6656L47.6301 53.1746ZM58.457 47.8624L58.0289 48.5154L58.929 48.4103L58.4555 47.8624L58.457 47.8624ZM47.1862 42.3054L46.3844 43.5285L48.0715 43.3328L47.1862 42.3054ZM53.5467 57.3271L52.9456 57.1998L52.9329 57.7068L53.4 57.8085L53.5467 57.3258L53.5467 57.3271ZM59.8844 55.6398C59.5638 55.5374 59.3421 55.338 58.9517 55.5493L59.6828 56.001L59.8844 55.6412L59.8844 55.6398ZM44.8979 54.7589C44.7427 54.725 44.586 54.8053 44.5461 54.9402C44.5062 55.0751 44.6006 55.2118 44.7558 55.247C44.9109 55.2822 45.0676 55.2006 45.1076 55.0657C45.1475 54.9308 45.0531 54.7941 44.8979 54.7589ZM54.1601 52.1883C54.0155 52.1558 53.8696 52.2323 53.8344 52.3566C53.7992 52.481 53.886 52.6096 54.029 52.6407C54.1721 52.6718 54.3195 52.5967 54.3547 52.4723C54.3899 52.348 54.3031 52.2193 54.1601 52.1883ZM46.6833 56.2708C46.5403 56.2384 46.3944 56.3135 46.3591 56.4392C46.3239 56.5648 46.4093 56.6908 46.5538 56.7219C46.6984 56.753 46.8428 56.6792 46.878 56.5535C46.9132 56.4278 46.8279 56.3019 46.6833 56.2708ZM54.6703 57.5211C54.5318 57.49 54.3905 57.5625 54.3553 57.6842C54.3202 57.806 54.404 57.9279 54.544 57.9589C54.684 57.99 54.8238 57.9174 54.8589 57.7957C54.8941 57.674 54.8102 57.5521 54.6703 57.5211ZM55.7633 53.2781C55.6385 53.25 55.511 53.316 55.4806 53.4245C55.4502 53.533 55.525 53.6442 55.6498 53.671C55.7746 53.6979 55.9021 53.6332 55.9325 53.5247C55.9629 53.4162 55.8881 53.305 55.7633 53.2781ZM48.232 52.4242C48.1133 52.3974 47.9935 52.4596 47.9631 52.5628C47.9328 52.666 48.0047 52.7705 48.1233 52.7973C48.242 52.824 48.3618 52.7619 48.3922 52.6587C48.4225 52.5555 48.3506 52.451 48.232 52.4242ZM46.4754 53.7305C46.3765 53.7079 46.2751 53.7611 46.2496 53.847C46.224 53.933 46.2854 54.0215 46.3843 54.044C46.4832 54.0665 46.5846 54.0134 46.6102 53.9274C46.6357 53.8415 46.5743 53.753 46.4754 53.7305ZM56.4759 52.6952C56.377 52.6727 56.2756 52.7258 56.25 52.8118C56.2245 52.8978 56.2859 52.9862 56.3848 53.0087C56.4837 53.0313 56.5851 52.9782 56.6106 52.8922C56.6362 52.8062 56.5747 52.7178 56.4759 52.6952ZM50.2848 39.6556L49.9064 39.4169L49.4954 40.1565C49.4689 40.2053 49.4646 40.2982 49.4732 40.3421C49.4788 40.3754 49.6602 40.3924 49.6881 40.3596L50.2848 39.6556ZM49.3564 40.5199C49.2575 40.4973 49.1561 40.5505 49.1306 40.6364C49.105 40.7224 49.1664 40.8109 49.2653 40.8334C49.3642 40.8559 49.4656 40.8028 49.4912 40.7168C49.5167 40.6309 49.4553 40.5424 49.3564 40.5199ZM51.8299 45.3047L51.4516 45.066L51.0406 45.8056C51.014 45.8544 51.0098 45.9473 51.0183 45.9912C51.024 46.0245 51.2054 46.0414 51.2333 46.0086L51.8299 45.3047ZM50.9001 46.1689C50.8012 46.1464 50.6998 46.1995 50.6742 46.2855C50.6487 46.3714 50.7101 46.4599 50.809 46.4824C50.9079 46.505 51.0093 46.4518 51.0348 46.3659C51.0604 46.2799 50.9989 46.1914 50.9001 46.1689ZM46.5936 47.8336C46.4947 47.8111 46.3933 47.8642 46.3678 47.9501C46.3423 48.0361 46.4037 48.1246 46.5026 48.1471C46.6014 48.1696 46.7028 48.1165 46.7284 48.0305C46.7539 47.9446 46.6925 47.8561 46.5936 47.8336ZM44.7073 47.8554C44.6085 47.8329 44.507 47.886 44.4815 47.972C44.456 48.058 44.5174 48.1464 44.6163 48.1689C44.7152 48.1915 44.8166 48.1384 44.8421 48.0524C44.8676 47.9664 44.8062 47.878 44.7073 47.8554ZM60.5641 48.4609C60.0386 48.2734 59.4567 48.4305 59.1476 48.8434L59.0681 48.9752C59.068 48.9845 59.0601 49.0003 59.0523 49.0175C58.8682 49.4426 59.0405 49.9229 59.472 50.1809C59.4901 50.1917 59.5068 50.1999 59.5128 50.2079L59.6645 50.2776C59.6767 50.2778 59.6934 50.2847 59.7131 50.2916C60.2024 50.4533 60.7521 50.3051 61.0484 49.9306C61.0608 49.9148 61.0702 49.9003 61.0794 49.8951L61.159 49.7634C61.1591 49.7541 61.1669 49.7382 61.1748 49.7211C61.3589 49.2959 61.1866 48.8156 60.7551 48.5577C60.7369 48.5468 60.7202 48.5386 60.7142 48.5306L60.5626 48.4609L60.5641 48.4609ZM59.6745 50.0985C59.2103 49.8866 59.0322 49.3877 59.274 48.9858C59.5157 48.584 60.0884 48.4295 60.5511 48.6413C61.0137 48.8532 61.1933 49.3522 60.9516 49.754C60.7098 50.1572 60.1371 50.3104 59.6745 50.0985ZM59.8072 49.8639L59.9104 49.9104L60.0039 49.7589L60.1497 49.8099C60.2684 49.8367 60.3742 49.7996 60.4409 49.7115C60.5077 49.6234 60.4998 49.525 60.4123 49.4508C60.5437 49.4406 60.6396 49.3383 60.6013 49.2302C60.5734 49.1528 60.5008 49.1028 60.4251 49.0553L60.5156 48.9011L60.4079 48.8519L60.3159 49.0034L60.2431 48.9706L60.3321 48.8177L60.2259 48.7685L60.1324 48.92L59.9124 48.8202L59.8547 48.9164L59.9548 48.9629C59.973 48.9711 59.9803 49.0004 59.9694 49.0175L59.7105 49.4457C59.698 49.4667 59.6613 49.4716 59.6416 49.462L59.5612 49.4265L59.5034 49.5253L59.7127 49.6223L59.6207 49.7765L59.7284 49.827L59.8219 49.6742L59.8962 49.7084L59.8057 49.8625L59.8072 49.8639ZM60.3163 49.3208C60.2779 49.3415 60.2291 49.3382 60.1852 49.3177L60.0669 49.2618L60.1792 49.076L60.3141 49.1415C60.3384 49.1524 60.3715 49.19 60.3772 49.2154C60.3903 49.2647 60.3547 49.3014 60.3163 49.3221L60.3163 49.3208ZM60.1932 49.6379C60.1026 49.6832 59.9678 49.6004 59.8875 49.5622L60.0107 49.3593L60.1851 49.4426C60.2214 49.4603 60.2606 49.5007 60.2647 49.5392C60.2687 49.5831 60.2331 49.6185 60.1947 49.6379L60.1932 49.6379ZM39.3275 48.643C39.0683 48.7418 38.9309 48.9777 38.9934 49.2189L39.0199 49.2896C39.0199 49.2896 39.0274 49.3017 39.0319 49.3097C39.1436 49.5156 39.4015 49.6292 39.6569 49.5861C39.6676 49.5849 39.6768 49.5824 39.6829 49.5824L39.7641 49.5596C39.7641 49.5596 39.7779 49.5531 39.7871 49.5493C40.0234 49.4528 40.1529 49.2287 40.1024 49.0063C40.101 48.997 40.0981 48.989 40.0982 48.9837L40.0716 48.9129C40.0716 48.9129 40.0641 48.9009 40.0597 48.8929C39.9479 48.6869 39.69 48.5733 39.4346 48.6165C39.4239 48.6177 39.4147 48.6202 39.4086 48.6201L39.3275 48.643ZM39.6933 49.4923C39.4451 49.5634 39.1766 49.4444 39.0955 49.2282C39.0144 49.012 39.1487 48.7787 39.3968 48.7089C39.6449 48.6391 39.9134 48.7568 39.9945 48.973C40.0756 49.1892 39.9414 49.4225 39.6933 49.4923ZM39.643 49.3695L39.6981 49.3529L39.6687 49.2702L39.7408 49.2433C39.793 49.216 39.815 49.1699 39.8019 49.1179C39.7889 49.0659 39.745 49.0348 39.684 49.0354C39.7242 48.9907 39.7159 48.9256 39.6583 48.8996C39.6158 48.8804 39.5715 48.8865 39.5256 48.8939L39.4931 48.8124L39.4349 48.8289L39.4659 48.9103L39.4276 48.9218L39.3951 48.8404L39.3384 48.8569L39.3678 48.9396L39.2499 48.9739L39.269 49.026L39.3226 49.0107C39.3318 49.0082 39.347 49.015 39.3499 49.0244L39.437 49.2552C39.4414 49.2672 39.4305 49.279 39.4198 49.2829L39.3769 49.2956L39.3976 49.3477L39.5109 49.3159L39.5419 49.3987L39.6001 49.3835L39.5691 49.3008L39.6089 49.2893L39.6414 49.3708L39.643 49.3695ZM39.5957 49.0209C39.5908 49.0395 39.5723 49.0538 39.5494 49.0602L39.485 49.0779L39.4467 48.9778L39.5202 48.9589C39.534 48.9551 39.5598 48.9594 39.572 48.9648C39.5962 48.9784 39.599 49.0011 39.5941 49.0209L39.5957 49.0209ZM39.6837 49.1695C39.671 49.2131 39.5899 49.2267 39.547 49.2394L39.5057 49.13L39.6007 49.1046C39.6206 49.0996 39.6511 49.1013 39.6677 49.1135C39.6873 49.127 39.6901 49.151 39.6837 49.1695ZM50.424 43.5986C49.8049 43.212 48.9895 43.2585 48.4373 43.712L48.2858 43.8628C48.2826 43.876 48.2656 43.8944 48.2501 43.9141C47.8574 44.4175 47.9112 45.0915 48.3798 45.5451C48.3994 45.5639 48.419 45.5801 48.4234 45.5921L48.5972 45.7245C48.6124 45.7274 48.6336 45.7423 48.6563 45.7558C49.2378 46.0994 50.0089 46.055 50.53 45.6489C50.5515 45.6319 50.5701 45.6162 50.5839 45.6111L50.7354 45.4603C50.7386 45.4471 50.7556 45.4287 50.7711 45.409C51.1638 44.9042 51.11 44.233 50.6398 43.778C50.6203 43.7591 50.6021 43.7443 50.5962 43.7309L50.4225 43.5985L50.424 43.5986ZM48.675 45.4932C48.1462 45.0906 48.0897 44.3927 48.5504 43.9326C49.0111 43.4739 49.8128 43.4272 50.3431 43.8299C50.8719 44.2325 50.9284 44.9304 50.4677 45.3904C50.007 45.8492 49.2053 45.8958 48.675 45.4932ZM48.9333 45.223L49.0512 45.3109L49.2289 45.1392L49.4 45.2464C49.5456 45.3133 49.6969 45.2941 49.8156 45.1973C49.9344 45.1006 49.959 44.9695 49.872 44.8502C50.0472 44.8724 50.2089 44.7656 50.1971 44.6141C50.1894 44.5051 50.1111 44.4204 50.0283 44.3383L50.2015 44.1627L50.0791 44.0694L49.9044 44.2424L49.8213 44.1789L49.993 44.0032L49.8721 43.9114L49.6959 44.083L49.4436 43.8938L49.3338 44.0039L49.4471 44.0917C49.4667 44.1079 49.4677 44.1464 49.4461 44.1661L48.956 44.655C48.9313 44.6799 48.884 44.6753 48.8614 44.6577L48.7692 44.5888L48.6594 44.7016L48.8981 44.8853L48.7234 45.0609L48.8457 45.1555L49.0235 44.9812L49.1065 45.046L48.9334 45.2217L48.9333 45.223ZM49.7922 44.6539C49.7355 44.6705 49.6717 44.6524 49.6234 44.6146L49.4889 44.5092L49.7008 44.2969L49.8533 44.4184C49.8805 44.44 49.9102 44.4975 49.9098 44.532C49.9089 44.5997 49.8504 44.6374 49.7922 44.6539ZM49.5172 45.0314C49.3825 45.0655 49.2363 44.9215 49.1442 44.85L49.3776 44.618L49.5755 44.7746C49.6163 44.807 49.652 44.8712 49.6438 44.9216C49.6338 44.9799 49.5754 45.0163 49.5172 45.0301L49.5172 45.0314ZM50.5501 53.5712C50.3813 53.172 49.9281 52.9403 49.4466 53.0071L49.3043 53.0398C49.3043 53.0398 49.2812 53.0501 49.2644 53.0565C48.8459 53.1997 48.5954 53.5723 48.6575 53.9595C48.6603 53.9755 48.6632 53.9901 48.6616 53.9981L48.6996 54.122C48.6996 54.122 48.7116 54.1421 48.719 54.1568C48.8851 54.5215 49.3141 54.7396 49.7603 54.6883C49.7787 54.6859 49.7955 54.6834 49.8046 54.6849L49.947 54.6522C49.947 54.6522 49.97 54.6419 49.9868 54.6368C50.4053 54.4936 50.6558 54.121 50.5937 53.7325C50.5909 53.7165 50.588 53.7019 50.5897 53.6939L50.5516 53.5699L50.5501 53.5712ZM48.8352 54.0242C48.7211 53.6456 48.981 53.2586 49.4156 53.1594C49.8503 53.0602 50.2959 53.2891 50.4115 53.6677C50.5256 54.0463 50.2657 54.4333 49.831 54.5325C49.3964 54.6317 48.9508 54.4028 48.8352 54.0242ZM49.0832 53.9624L49.1095 54.0464L49.2748 54.0114L49.3222 54.1222C49.3715 54.2038 49.4595 54.2408 49.5634 54.2263C49.6674 54.2117 49.7338 54.1515 49.738 54.0599C49.8226 54.1261 49.9524 54.1211 50.0084 54.0369C50.0489 53.9763 50.0421 53.9072 50.0339 53.838L50.1992 53.799L50.1729 53.7111L50.0076 53.7474L49.9901 53.6874L50.1539 53.6484L50.1275 53.5617L49.9623 53.5968L49.9066 53.4168L49.8026 53.4406L49.8259 53.5233C49.8303 53.5379 49.8132 53.559 49.7949 53.5627L49.3312 53.6669C49.3082 53.6719 49.284 53.6543 49.2797 53.6383L49.2592 53.573L49.1535 53.5981L49.2047 53.7701L49.0394 53.8078L49.0642 53.8958L49.231 53.8594L49.2485 53.9207L49.0832 53.9597L49.0832 53.9624ZM49.7763 53.9303C49.7398 53.9205 49.7127 53.8923 49.7025 53.8563L49.6748 53.759L49.8753 53.7138L49.9059 53.8257C49.9117 53.8457 49.9036 53.8855 49.8881 53.9039C49.8601 53.9393 49.8128 53.9414 49.7748 53.9316L49.7763 53.9303ZM49.4742 54.0445C49.3876 54.0208 49.3709 53.8984 49.3504 53.8318L49.5707 53.7829L49.6116 53.9281C49.6203 53.9588 49.6121 54.0038 49.5874 54.0274C49.558 54.0549 49.5123 54.0556 49.4742 54.0458L49.4742 54.0445Z" fill="url(#paint2_linear_22_2)"/>
<mask id="mask1_22_2" style="mask-type:luminance" maskUnits="userSpaceOnUse" x="14" y="13" width="46" height="40">
<path d="M34.7879 15.1158L15.3002 47.5191C13.9978 49.6851 15.7857 52.2939 18.6005 52.3306L55.4764 52.8123C58.2897 52.849 60.1465 50.2879 58.9012 48.0886L40.2665 15.1874C39.1538 13.2222 35.953 13.1804 34.7895 15.1159L34.7879 15.1158Z" fill="white"/>
</mask>
<g mask="url(#mask1_22_2)">
<path d="M37.5471 13.6897L15.3324 13.3996L14.8245 52.2825L37.0392 52.5727L37.5471 13.6897Z" fill="url(#paint3_linear_22_2)"/>
</g>
<path d="M42.2792 48.1238C42.398 48.1254 42.4954 48.0428 42.4968 47.9394C42.4981 47.836 42.4029 47.751 42.2841 47.7494C42.1653 47.7479 42.0679 47.8304 42.0665 47.9338C42.0652 48.0372 42.1604 48.1223 42.2792 48.1238Z" fill="#FEFEFE"/>
</g>
<defs>
<linearGradient id="paint0_linear_22_2" x1="38.553" y1="13.5965" x2="37.9779" y2="57.6224" gradientUnits="userSpaceOnUse">
<stop stop-color="#0474FF"/>
<stop offset="1" stop-color="#1E61B0"/>
</linearGradient>
<linearGradient id="paint1_linear_22_2" x1="15.0785" y1="32.8404" x2="37.2916" y2="33.1305" gradientUnits="userSpaceOnUse">
<stop stop-color="#0474FF"/>
<stop offset="1" stop-color="#1A5396"/>
</linearGradient>
<linearGradient id="paint2_linear_22_2" x1="38.553" y1="13.5965" x2="37.9779" y2="57.6224" gradientUnits="userSpaceOnUse">
<stop stop-color="#0474FF"/>
<stop offset="1" stop-color="#1E61B0"/>
</linearGradient>
<linearGradient id="paint3_linear_22_2" x1="15.0785" y1="32.8404" x2="37.2916" y2="33.1305" gradientUnits="userSpaceOnUse">
<stop stop-color="#0474FF"/>
<stop offset="1" stop-color="#1A5396"/>
</linearGradient>
<clipPath id="clip0_22_2">
<rect width="78.1188" height="67.9815" fill="white" transform="translate(0.887875) rotate(0.748335)"/>
</clipPath>
</defs>
</svg>
