<svg width="16" height="16" viewBox="0 0 16 16" fill="none" xmlns="http://www.w3.org/2000/svg">
<path d="M13.3335 8.66699C13.3335 8.2988 13.035 8.00033 12.6668 8.00033H3.3335C2.96531 8.00033 2.66683 8.2988 2.66683 8.66699V13.3337C2.66683 13.7018 2.96531 14.0003 3.3335 14.0003H12.6668C13.035 14.0003 13.3335 13.7018 13.3335 13.3337V8.66699ZM10.6668 4.66699C10.6668 3.95975 10.3857 3.28167 9.88558 2.78158C9.38548 2.28148 8.70741 2.00033 8.00016 2.00033C7.29292 2.00033 6.61484 2.28148 6.11475 2.78158C5.61465 3.28167 5.3335 3.95975 5.3335 4.66699V6.66699H10.6668V4.66699ZM12.0002 6.66699H12.6668C13.7714 6.66699 14.6668 7.56242 14.6668 8.66699V13.3337C14.6668 14.4382 13.7714 15.3337 12.6668 15.3337H3.3335C2.22893 15.3337 1.3335 14.4382 1.3335 13.3337V8.66699C1.3335 7.56242 2.22893 6.66699 3.3335 6.66699H4.00016V4.66699C4.00016 3.60613 4.42189 2.58901 5.17204 1.83887C5.92218 1.08872 6.9393 0.666992 8.00016 0.666992C9.06103 0.666992 10.0781 1.08872 10.8283 1.83887C11.5784 2.58901 12.0002 3.60613 12.0002 4.66699V6.66699Z" fill="black"/>
</svg>
