<svg width="16" height="16" viewBox="0 0 16 16" fill="none" xmlns="http://www.w3.org/2000/svg">
<path d="M10.6667 2.6665C10.6667 2.29831 10.3682 1.99984 10 1.99984H6C5.63181 1.99984 5.33333 2.29831 5.33333 2.6665V10.6665C5.33333 11.0347 5.63181 11.3332 6 11.3332H10C10.3682 11.3332 10.6667 11.0347 10.6667 10.6665V2.6665ZM12 10.6665C12 11.7711 11.1046 12.6665 10 12.6665H6C4.89543 12.6665 4 11.7711 4 10.6665V2.6665C4 1.56193 4.89543 0.666504 6 0.666504H10C11.1046 0.666504 12 1.56193 12 2.6665V10.6665Z" fill="black"/>
<path d="M9.3335 12.6668H6.66683V13.5002C6.66683 13.7763 6.89069 14.0002 7.16683 14.0002H8.8335C9.10964 14.0002 9.3335 13.7763 9.3335 13.5002V12.6668ZM10.6668 14.0002C10.6668 14.7365 10.0699 15.3335 9.3335 15.3335H6.66683C5.93045 15.3335 5.3335 14.7365 5.3335 14.0002V11.3335H10.6668V14.0002Z" fill="black"/>
<path d="M6.6665 6.66683C6.6665 5.93045 7.26346 5.3335 7.99984 5.3335C8.73622 5.3335 9.33317 5.93045 9.33317 6.66683C9.33317 7.40321 8.73622 8.00016 7.99984 8.00016C7.26346 8.00016 6.6665 7.40321 6.6665 6.66683Z" fill="black"/>
</svg>
