<?xml version="1.0" encoding="UTF-8"?>
  <svg version="1.1" xmlns="http://www.w3.org/2000/svg" width="512" height="512">
<path d="M0 0 C5.28 0 10.56 0 16 0 C15.95174072 1.7442627 15.90348145 3.48852539 15.85375977 5.28564453 C15.7108284 11.10494591 15.63914128 16.9228934 15.61396885 22.74371529 C15.59620392 26.26769602 15.55153991 29.78668901 15.44116211 33.30908203 C14.27494729 50.0403022 14.27494729 50.0403022 20.29199219 64.92626953 C23.33308206 68.02489284 26.62809462 70.56000149 30.28352356 72.89189148 C32.42304564 74.27310627 34.2635805 75.89251811 36.125 77.625 C36.71667969 78.13417969 37.30835938 78.64335938 37.91796875 79.16796875 C41.3796619 82.21399893 44.74319693 85.36654828 48.12426758 88.50146484 C52.69326999 92.73209708 57.32711834 96.88437873 62 101 C65.01605232 93.71250675 67.65580862 86.34042768 70.16015625 78.86328125 C70.9569222 76.50096723 71.75371688 74.1386629 72.55053711 71.77636719 C72.96125458 70.55542358 73.37197205 69.33447998 73.7951355 68.07653809 C75.91926278 61.76793786 78.05751395 55.4641343 80.1953125 49.16015625 C80.82224251 47.31126297 80.82224251 47.31126297 81.46183777 45.42501831 C82.64060785 41.94980228 83.82007149 38.47482287 85 35 C85.32641479 34.0384198 85.65282959 33.0768396 85.98913574 32.08612061 C87.56637103 27.44545391 89.15413323 22.80881799 90.76730347 18.18051147 C91.41994483 16.30056794 92.06084724 14.41656202 92.70141602 12.5324707 C93.08740967 11.43378662 93.47340332 10.33510254 93.87109375 9.203125 C94.19005615 8.28176758 94.50901855 7.36041016 94.83764648 6.41113281 C96.18919121 3.60755044 97.58316986 1.95580339 100 0 C105.41826923 -0.77403846 105.41826923 -0.77403846 108 0 C112.41501002 3.64899882 114.82010741 7.83995201 117.4375 12.8125 C118.31267431 14.42970273 119.19041908 16.04551625 120.0703125 17.66015625 C120.77462402 18.95397217 120.77462402 18.95397217 121.49316406 20.27392578 C124.18606203 25.14574995 127.00007466 29.94649081 129.8125 34.75 C130.39717041 35.74942627 130.98184082 36.74885254 131.58422852 37.77856445 C137.69262753 48.20348754 143.83962536 58.60572283 150 69 C159.84078533 58.57827808 159.84078533 58.57827808 169.37109375 47.875 C171.33665089 45.61248819 173.35673309 43.40309317 175.375 41.1875 C178.42858867 37.81059018 181.34429205 34.36782868 184.1875 30.8125 C188.58200442 25.3698364 193.31109408 20.28465086 198.12768555 15.21411133 C200.62842519 12.57547748 203.02758114 9.96532388 205.29296875 7.1171875 C207.5912615 4.26667338 208.49853706 4.05626773 212.16796875 3.64453125 C217.05426171 4.09779594 219.46282746 5.81086993 223.3125 8.6875 C223.99836182 9.17935791 224.68422363 9.67121582 225.39086914 10.17797852 C227.60500982 11.77057096 229.80217156 13.38499457 232 15 C233.4804841 16.06949181 234.96225823 17.13720008 236.4453125 18.203125 C239.46743567 20.37703696 242.48365823 22.55877977 245.49609375 24.74609375 C249.80481428 27.86799219 254.14686045 30.94046302 258.5 34 C264.51179856 38.22651913 270.48437032 42.50376845 276.4375 46.8125 C277.57384888 47.63065186 277.57384888 47.63065186 278.7331543 48.46533203 C281.9066459 50.75097448 285.062693 53.04752037 288.1796875 55.41015625 C289.48292969 56.38275391 289.48292969 56.38275391 290.8125 57.375 C291.87404297 58.19097656 291.87404297 58.19097656 292.95703125 59.0234375 C295.71801456 60.34321919 297.07919275 59.79369762 300 59 C302.09398337 57.94020503 302.09398337 57.94020503 304.08984375 56.55078125 C304.86247559 56.03974854 305.63510742 55.52871582 306.43115234 55.00219727 C307.67179443 54.16579712 307.67179443 54.16579712 308.9375 53.3125 C310.7401801 52.11872591 312.54359134 50.9260553 314.34765625 49.734375 C315.27980957 49.11626953 316.21196289 48.49816406 317.17236328 47.86132812 C321.70692802 44.87639274 326.28971567 41.96868925 330.875 39.0625 C332.71876769 37.89195495 334.56251757 36.72138184 336.40625 35.55078125 C337.32535156 34.9676416 338.24445313 34.38450195 339.19140625 33.78369141 C342.03577382 31.97728064 344.8776479 30.16701049 347.71875 28.35546875 C349.14018311 27.44945923 349.14018311 27.44945923 350.59033203 26.52514648 C352.35722021 25.39880561 354.12385252 24.27206316 355.89013672 23.14477539 C357.55976293 22.08114841 359.23836275 21.031476 360.92565918 19.99610901 C363.14129488 18.55754034 365.15497774 17.12068859 367.22305298 15.50045776 C378.87116866 6.78421029 389.28553218 6.66927686 403.4375 7.0234375 C405.65662418 7.04213242 407.87579017 7.05634634 410.0949707 7.0663147 C415.88278974 7.10415418 421.66802338 7.20207738 427.45483398 7.31335449 C433.38099203 7.41640214 439.30757566 7.46148233 445.234375 7.51171875 C456.82404093 7.61835966 468.41180393 7.78860305 480 8 C480 13.28 480 18.56 480 24 C478.88818359 23.9792189 477.77636719 23.95843781 476.63085938 23.93702698 C466.04266842 23.74923925 455.45625479 23.64357731 444.8664093 23.61396885 C439.42432817 23.59623056 433.98548374 23.55169587 428.54443359 23.44116211 C394.3510405 22.33627814 394.3510405 22.33627814 365.12561035 38.20401001 C362.23665875 40.64496922 359.19747895 42.51884303 355.9609375 44.47265625 C354.09814552 45.66800511 352.23613712 46.86457617 350.375 48.0625 C348.2905053 49.39995892 346.2058669 50.7371939 344.12109375 52.07421875 C343.1038623 52.72696777 342.08663086 53.3797168 341.03857422 54.05224609 C334.38848369 58.31501503 327.72712706 62.55973196 321.05078125 66.78125 C317.79101924 68.84591035 314.56237483 70.94799818 311.35546875 73.09375 C310.63625244 73.56635254 309.91703613 74.03895508 309.17602539 74.52587891 C307.86465213 75.38847248 306.56199956 76.26456991 305.27124023 77.15771484 C301.66415764 79.50384167 298.45847974 80.76028367 294.10253906 80.50732422 C289.74831654 79.45668855 286.3675849 76.74484198 282.8125 74.125 C281.97589844 73.53074219 281.13929688 72.93648438 280.27734375 72.32421875 C274.54524606 68.22356425 268.96830533 63.93826264 263.42578125 59.5859375 C258.52514667 55.81667128 253.35542831 52.42689366 248.23413086 48.96801758 C242.21637533 44.88387536 236.38743436 40.60014773 230.60229492 36.19482422 C224.89705339 31.86942454 219.01911479 27.87594513 213 24 C212.59140747 24.89187012 212.59140747 24.89187012 212.17456055 25.80175781 C211.02970512 27.94440556 209.87355302 29.42006637 208.20703125 31.171875 C207.66296631 31.749375 207.11890137 32.326875 206.55834961 32.921875 C205.98221924 33.52515625 205.40608887 34.1284375 204.8125 34.75 C203.62163003 36.01490446 202.43151821 37.28052314 201.2421875 38.546875 C200.39092285 39.45083008 200.39092285 39.45083008 199.52246094 40.37304688 C195.65425534 44.50674188 191.99960534 48.82255255 188.3359375 53.13671875 C182.74068001 59.71363267 177.06210216 66.17889179 171.17602539 72.49755859 C167.36303938 76.59150147 163.64283704 80.75429908 160 85 C161.72879722 89.80433701 164.19294085 94.12659179 166.6875 98.5625 C167.35144775 99.75045166 167.35144775 99.75045166 168.02880859 100.96240234 C171.61064571 107.35271066 175.26732333 113.69647317 179 120 C186.43245044 112.80730602 193.11496012 104.94946564 199.6171875 96.91796875 C202.20755975 93.74582437 204.84688013 90.61961259 207.5 87.5 C213.15479961 80.84398391 218.78179728 74.15709122 224.12890625 67.25 C226.77355805 64.06979241 227.58794689 64.04052981 231.8125 63.625 C233.83203125 63.4765625 233.83203125 63.4765625 236 64 C240.84360182 68.20236471 244.11186055 73.34663859 247.61328125 78.67578125 C248.22769577 79.6009404 248.84211029 80.52609955 249.47514343 81.47929382 C251.42639918 84.42011376 253.36953994 87.3661943 255.3125 90.3125 C256.63813897 92.31350419 257.96430511 94.31415923 259.29101562 96.31445312 C262.53346035 101.20560821 265.76926811 106.10110147 269 111 C269.78914796 109.74662926 270.57707414 108.49248923 271.36450195 107.23803711 C271.80341263 106.53972275 272.2423233 105.84140839 272.6945343 105.12193298 C274.99776239 101.37821482 277.10929591 97.52600915 279.22460938 93.67382812 C281.7829743 89.10851285 281.7829743 89.10851285 284 88 C287.1091992 88.03404502 290.19292904 88.13083121 293.29785156 88.27075195 C303.29421309 88.66678153 313.28686017 88.91594313 323.28964615 89.08108234 C329.33665155 89.18750348 335.37181508 89.34708009 341.41308594 89.63549805 C373.00061462 91.81400275 373.00061462 91.81400275 400.19257736 78.20480251 C405.98947801 72.56513755 411.13363451 66.37690101 415.87200928 59.83073425 C418 57 418 57 420 56 C425.68428373 55.44089013 425.68428373 55.44089013 428 56 C433.23933107 60.33130142 437.06439856 66.15945929 441.125 71.5625 C441.84042969 72.50802734 442.55585938 73.45355469 443.29296875 74.42773438 C445.1993642 76.94880873 447.10138258 79.47306507 449 82 C449.56960449 82.71792725 450.13920898 83.43585449 450.72607422 84.17553711 C452 86 452 86 452 88 C461.24 88 470.48 88 480 88 C480 93.28 480 98.56 480 104 C474.96316374 104.11499626 469.93090361 104.2144576 464.89379883 104.2746582 C463.18172755 104.29975714 461.46976296 104.33384429 459.75805664 104.37719727 C457.29286355 104.43805739 454.82909015 104.46625432 452.36328125 104.48828125 C451.22080681 104.52699089 451.22080681 104.52699089 450.05525208 104.56648254 C446.15905887 104.56852513 444.29105426 104.23251707 441.21289062 101.7734375 C440.48263672 100.85820313 439.75238281 99.94296875 439 99 C438.03743286 97.8102356 438.03743286 97.8102356 437.05541992 96.59643555 C436.45318604 95.784729 435.85095215 94.97302246 435.23046875 94.13671875 C434.56982422 93.25048828 433.90917969 92.36425781 433.22851562 91.45117188 C432.55498047 90.53916016 431.88144531 89.62714844 431.1875 88.6875 C430.49462891 87.75615234 429.80175781 86.82480469 429.08789062 85.86523438 C427.38825122 83.57951241 425.69242659 81.29106478 424 79 C420.15387927 80.57859826 417.75846654 83.02655255 414.8671875 85.97265625 C414.15032272 86.69732338 414.15032272 86.69732338 413.41897583 87.43663025 C411.89946386 88.97389041 410.3868361 90.51769326 408.875 92.0625 C407.35515441 93.60997477 405.83386581 95.15595926 404.30960083 96.69908142 C402.93081258 98.09570801 401.55683935 99.49708323 400.18310547 100.89868164 C397.2499043 103.72199437 395.7971753 104.12505739 391.84921265 104.12025452 C390.97980545 104.12162918 390.11039825 104.12300385 389.21464539 104.12442017 C387.78074211 104.11902725 387.78074211 104.11902725 386.31787109 104.11352539 C384.81050636 104.11374443 384.81050636 104.11374443 383.27268982 104.1139679 C379.93958402 104.11326929 376.60653358 104.10547933 373.2734375 104.09765625 C370.96701081 104.09579188 368.66058372 104.09436807 366.35415649 104.09336853 C360.27468783 104.08954482 354.19524294 104.07971576 348.11578369 104.06866455 C341.91573407 104.0584473 335.71568061 104.05387024 329.515625 104.04882812 C317.34373954 104.03809338 305.17187174 104.02101869 293 104 C292.69525253 104.94481735 292.39050507 105.8896347 292.07652283 106.86308289 C291.10927222 109.6815879 290.07224183 111.74242538 288.44140625 114.20703125 C287.97412109 114.95919922 287.50683594 115.71136719 287.02539062 116.48632812 C286.04753672 118.04123334 285.04454087 119.58059868 284.01757812 121.10351562 C282.59608985 123.44867139 281.66028996 125.33735016 281 128 C281.66695596 130.17928168 281.66695596 130.17928168 283.02587891 132.22705078 C283.49935257 133.01064468 283.97282623 133.79423859 284.46064758 134.60157776 C285.22262703 135.78879677 285.22262703 135.78879677 286 137 C286.4698381 137.73351181 286.93967621 138.46702362 287.42375183 139.22276306 C288.90994309 141.49053144 290.42783545 143.73368306 291.95703125 145.97265625 C292.50485764 146.78117538 293.05268402 147.58969452 293.61711121 148.42271423 C295.34539668 150.9717135 297.0788444 153.51715095 298.8125 156.0625 C299.99448569 157.80380228 301.1761295 159.54533668 302.35742188 161.28710938 C305.23434005 165.52743044 308.11588925 169.76456815 311 174 C313.5164536 170.81377153 315.51688947 167.47502017 317.51171875 163.94140625 C317.84363724 163.35640854 318.17555573 162.77141083 318.51753235 162.16868591 C319.57680235 160.30142325 320.63254209 158.43220183 321.6875 156.5625 C325.83867509 149.20834813 330.01356385 141.87277002 334.39453125 134.65234375 C335.0388208 133.58878662 335.68311035 132.52522949 336.34692383 131.42944336 C338 129 338 129 340 128 C344.43285296 127.19402674 346.70058563 127.17418535 350.55078125 129.62109375 C353.46566921 131.98759468 356.24204607 134.45221101 359 137 C359.9944696 137.91050814 360.9892637 138.82066198 361.984375 139.73046875 C363.50062607 141.12050908 365.01411193 142.51311736 366.52075195 143.91357422 C369.73081553 146.88713948 373.02560195 149.69906804 376.4375 152.4375 C380.62250085 155.80356544 384.58205604 159.33279984 388.5 163 C392.63913579 166.85662823 396.8102029 170.65232251 401.125 174.3125 C401.99382812 175.05113281 402.86265625 175.78976563 403.7578125 176.55078125 C404.86769531 177.26814453 404.86769531 177.26814453 406 178 C409.71563534 176.76145489 410.59458591 175.30982822 413 172.25 C413.7940625 171.25484375 414.588125 170.2596875 415.40625 169.234375 C415.82777344 168.70521484 416.24929688 168.17605469 416.68359375 167.63085938 C418.90558045 164.87810138 421.20479817 162.19172979 423.5 159.5 C429.15569768 152.84484237 434.78186441 146.1570045 440.12890625 139.25 C442 137 442 137 444 136 C446.69893181 135.91324462 449.37169231 135.88442103 452.0703125 135.90234375 C452.86654022 135.9037587 453.66276794 135.90517365 454.48312378 135.90663147 C457.0304538 135.91223655 459.57769647 135.92478986 462.125 135.9375 C463.85025915 135.94251435 465.57551967 135.94707737 467.30078125 135.95117188 C471.53391504 135.96135747 475.76685954 135.9809318 480 136 C480 141.28 480 146.56 480 152 C478.08316406 151.94457031 476.16632813 151.88914063 474.19140625 151.83203125 C460.72328914 150.87765542 460.72328914 150.87765542 448.5234375 155.05859375 C446.30939015 157.9152953 444.69183002 160.8090313 443 164 C441.26930681 166.25843514 439.38652808 168.37126749 437.5 170.5 C436.56212104 171.59902376 435.62718842 172.70056911 434.6953125 173.8046875 C434.24188477 174.34061523 433.78845703 174.87654297 433.32128906 175.42871094 C428.98023999 180.59112628 424.73890115 185.83797534 420.51171875 191.09375 C419.29935547 192.59421875 419.29935547 192.59421875 418.0625 194.125 C417.33160156 195.03507813 416.60070312 195.94515625 415.84765625 196.8828125 C413.37003485 199.72186281 412.32950249 199.94009046 408.5625 200.625 C401.93643827 200.51755035 397.59146993 195.24158519 393 191 C392.0055304 190.08949186 391.0107363 189.17933802 390.015625 188.26953125 C388.49937393 186.87949092 386.98588807 185.48688264 385.47924805 184.08642578 C382.26918447 181.11286052 378.97439805 178.30093196 375.5625 175.5625 C370.76740547 171.70707818 366.28017351 167.60150324 361.79443359 163.39770508 C357.06945874 158.99763445 352.12247163 154.93146807 347 151 C344.24253001 154.30538577 341.97104527 157.58942457 339.8984375 161.359375 C339.33036377 162.38538818 338.76229004 163.41140137 338.17700195 164.46850586 C337.58234131 165.55139893 336.98768066 166.63429199 336.375 167.75 C335.12751957 169.99677017 333.87881511 172.24286114 332.62890625 174.48828125 C332.01547363 175.59123535 331.40204102 176.69418945 330.77001953 177.83056641 C328.31870506 182.21994081 325.83647536 186.58953177 323.3125 190.9375 C322.91530762 191.63391602 322.51811523 192.33033203 322.10888672 193.04785156 C320.2807478 196.17520381 319.06490334 197.95673111 316 200 C310.40983607 200.63114754 310.40983607 200.63114754 308 200 C303.06472438 195.7408566 299.81984761 190.47164285 296.30859375 185.02734375 C295.68146988 184.06727921 295.05434601 183.10721466 294.40821838 182.11805725 C292.41222459 179.06157575 290.42410426 176.00009129 288.4375 172.9375 C286.4469053 169.87162333 284.45450829 166.80700152 282.45606995 163.74623108 C281.21483686 161.84501929 279.97810414 159.94085983 278.7464447 158.03343201 C278.18228348 157.1689595 277.61812225 156.304487 277.03686523 155.41381836 C276.54564682 154.65612656 276.05442841 153.89843475 275.54832458 153.11778259 C273.88380696 150.84107234 272.03959975 148.94263396 270 147 C269.73985107 147.85384277 269.47970215 148.70768555 269.21166992 149.58740234 C267.9504258 153.13962283 266.39370067 156.28016345 264.61328125 159.6015625 C264.27929321 160.22778503 263.94530518 160.85400757 263.60119629 161.49920654 C262.50945127 163.54357477 261.41111636 165.58431736 260.3125 167.625 C259.54933733 169.05008634 258.78656553 170.47538206 258.02416992 171.90087891 C256.45861676 174.82648906 254.89040738 177.75065306 253.3203125 180.67382812 C251.12023219 184.77206186 248.9337095 188.87740169 246.75 192.984375 C245.75445535 194.85376653 244.75850899 196.72294316 243.76229858 198.59197998 C242.84008651 200.32321292 241.9196495 202.05539105 240.99926758 203.78759766 C230.99515233 222.50242383 230.99515233 222.50242383 228 224 C220.90631154 224.69773985 220.90631154 224.69773985 217.640625 222.18359375 C213.7519991 217.96254945 211.27172571 212.69949116 208.5625 207.6875 C207.32085941 205.42997165 206.07731898 203.17348733 204.83203125 200.91796875 C204.19861816 199.7686084 203.56520508 198.61924805 202.91259766 197.43505859 C199.93129602 192.08058911 196.84849937 186.78728103 193.75 181.5 C193.17306396 180.51475342 192.59612793 179.52950684 192.00170898 178.5144043 C190.33668513 175.67496305 188.66878331 172.83723304 187 170 C185.96609252 168.23961465 184.93223609 166.4791993 183.8984375 164.71875 C181.60219536 160.81058668 179.30240331 156.90453649 177 153 C173.36738772 156.54114363 170.00547227 160.23248568 166.75 164.125 C166.03166992 164.97868164 166.03166992 164.97868164 165.29882812 165.84960938 C161.59502231 170.26171271 157.94899602 174.71980489 154.3125 179.1875 C151.27632634 182.88014364 148.1815003 186.52121788 145.0859375 190.1640625 C142.18755177 193.5805954 139.328449 197.02504838 136.5 200.5 C133.11497047 204.65214054 129.69907433 208.77603279 126.25 212.875 C125.80205078 213.41060547 125.35410156 213.94621094 124.89257812 214.49804688 C117.0914324 223.7365508 117.0914324 223.7365508 112.375 224.875 C106.54580351 224.46173607 102.69843499 220.16840141 98.56542969 216.41210938 C96.34517753 214.40931173 94.07004024 212.47331759 91.7956543 210.5324707 C89.99334043 208.9943165 88.19790788 207.44836736 86.40234375 205.90234375 C83.49299049 203.40849645 80.54056486 200.97415728 77.5625 198.5625 C72.24552722 194.25337131 67.08875414 189.77045664 61.94946289 185.25219727 C61.33578857 184.71522217 60.72211426 184.17824707 60.08984375 183.625 C59.26794556 182.90183594 59.26794556 182.90183594 58.42944336 182.1640625 C56.98582774 180.90207419 56.98582774 180.90207419 55 180 C47.602463 200.23040717 40.67266324 220.61548551 33.77392578 241.02026367 C28.24426654 257.36932574 22.62654953 273.68300636 17 290 C16.67 347.42 16.34 404.84 16 464 C169.12 464 322.24 464 480 464 C480 469.28 480 474.56 480 480 C434.67610043 480.06822524 389.35219627 480.13213779 344.02825928 480.16937256 C343.02253501 480.1702009 343.02253501 480.1702009 341.99649309 480.17104598 C327.42616292 480.18301676 312.8558322 480.19409761 298.28550066 480.20426132 C291.14052896 480.2092508 283.99555742 480.21443699 276.85058594 480.21972656 C276.13956385 480.2202496 275.42854177 480.22077263 274.69597356 480.22131152 C251.63705044 480.23836618 228.57816644 480.26841831 205.51926704 480.30518888 C181.8292727 480.34289733 158.13930002 480.36753668 134.44927617 480.37565996 C119.17888644 480.38092409 103.90859231 480.39775247 88.63823602 480.43166587 C78.63787306 480.452749 68.63756848 480.45921415 58.63718489 480.45400551 C52.86055212 480.45143405 47.08411612 480.45547849 41.30751801 480.4768219 C36.02486298 480.4961986 30.7425382 480.49732804 25.4598684 480.48359558 C23.54324879 480.48189681 21.62660908 480.48704594 19.71002939 480.49953273 C17.1149627 480.51546431 14.52110577 480.50700932 11.92605972 480.49219131 C11.17289935 480.50269937 10.41973897 480.51320742 9.64375556 480.5240339 C6.40800216 480.48195821 4.30287423 480.18868167 1.53538322 478.46461678 C-0.59370092 475.04698369 -0.54665736 471.9777708 -0.49219131 468.07394028 C-0.49911438 466.8615184 -0.49911438 466.8615184 -0.50617731 465.62460315 C-0.51681898 462.89880227 -0.49877674 460.17393442 -0.48101807 457.44818115 C-0.48276137 455.4813217 -0.48626184 453.51446315 -0.49137473 451.54760957 C-0.50034588 446.12937965 -0.48428165 440.71146423 -0.46426249 435.2932744 C-0.44703266 429.45552593 -0.45283102 423.61779604 -0.45587158 417.7800293 C-0.45797178 407.66125008 -0.44539261 397.54257381 -0.42292023 387.4238205 C-0.39044984 372.79371596 -0.37998492 358.16364601 -0.37496826 343.53351215 C-0.36656371 319.79868066 -0.3396062 296.06390282 -0.30175781 272.32910156 C-0.26502807 249.26920863 -0.23668971 226.20933038 -0.21972656 203.14941406 C-0.21893741 202.0834473 -0.21893741 202.0834473 -0.21813231 200.99594585 C-0.21285829 193.85944608 -0.20775502 186.72294619 -0.20277687 179.5864462 C-0.19263166 165.04821026 -0.18134665 150.50997527 -0.16937256 135.97174072 C-0.1688234 135.30327716 -0.16827424 134.63481359 -0.16770844 133.94609355 C-0.13089771 89.29737306 -0.06720885 44.64868368 0 0 Z M105 30 C104.78195206 30.64383636 104.56390411 31.28767273 104.33924866 31.95101929 C102.23850585 38.15342654 100.13690149 44.35554119 98.03443241 50.55736351 C96.95472389 53.74235751 95.87539351 56.92747838 94.79663086 60.11279297 C93.96132883 62.57910896 93.12558371 65.04527492 92.28939819 67.5112915 C91.45265215 69.97944699 90.61706195 72.44799463 89.78262329 74.91693115 C87.67648234 81.13265165 85.53575794 87.3326198 83.32763672 93.51269531 C82.90413437 94.70609528 82.48063202 95.89949524 82.04429626 97.12905884 C81.23871343 99.39286369 80.42447231 101.65361177 79.60035706 103.91073608 C79.24295944 104.91810822 78.88556183 105.92548035 78.51733398 106.96337891 C78.19909164 107.84313385 77.8808493 108.72288879 77.55296326 109.62930298 C76.94715437 112.22656292 77.041371 113.53384173 78 116 C79.79399478 118.19608314 79.79399478 118.19608314 82.0625 120.3125 C82.866875 121.09109375 83.67125 121.8696875 84.5 122.671875 C87.92946874 125.86556777 91.42491949 128.97043586 95 132 C98.5600138 128.48496832 102.00322768 124.88411162 105.375 121.1875 C105.85976807 120.65688965 106.34453613 120.1262793 106.84399414 119.57958984 C113.21270793 112.59194621 119.35690146 105.41928929 125.50073242 98.234375 C129.60907637 93.43729648 133.77618221 88.69589155 138 84 C132.77555877 73.97432646 127.24784883 64.17855611 121.45947266 54.46875 C119.80278369 51.66640159 118.17223148 48.84962801 116.54296875 46.03125 C115.95539795 45.02070557 115.36782715 44.01016113 114.76245117 42.96899414 C113.5995578 40.968766 112.442044 38.96539931 111.2902832 36.95874023 C110.76136475 36.05325439 110.23244629 35.14776855 109.6875 34.21484375 C109.21699219 33.40136475 108.74648437 32.58788574 108.26171875 31.74975586 C107.84535156 31.17233643 107.42898437 30.59491699 107 30 C106.34 30 105.68 30 105 30 Z M16 83 C15.65065676 88.61866778 15.39851363 94.23088098 15.23095703 99.85791016 C15.16106508 101.76560626 15.06589586 103.67256624 14.94384766 105.57763672 C14.00328261 116.20038496 14.00328261 116.20038496 17.30450439 125.99871826 C20.54006766 129.56923402 24.29935337 132.28527774 28.32843018 134.89599609 C30.40428956 136.26701682 32.23019274 137.83729137 34.0703125 139.5078125 C35.08835787 140.38042281 36.10657234 141.25283589 37.125 142.125 C37.64835937 142.57875 38.17171875 143.0325 38.7109375 143.5 C41.36112803 145.76203131 43.85787942 147.51577802 47 149 C48.54081195 144.77784468 50.05409938 140.54633177 51.5625 136.3125 C52.00013672 135.11431641 52.43777344 133.91613281 52.88867188 132.68164062 C53.50258789 130.94624023 53.50258789 130.94624023 54.12890625 129.17578125 C54.51119385 128.11270752 54.89348145 127.04963379 55.28735352 125.9543457 C56.05847655 122.75757974 56.08943326 121.08532922 55 118 C53.57303311 116.10061141 53.57303311 116.10061141 51.68359375 114.4765625 C51.00103516 113.8475 50.31847656 113.2184375 49.61523438 112.5703125 C48.89658203 111.92835937 48.17792969 111.28640625 47.4375 110.625 C46.74591797 109.99078125 46.05433594 109.3565625 45.34179688 108.703125 C41.90277147 105.56216983 38.41408426 102.48111523 34.90234375 99.421875 C30.64687344 95.71331976 26.52147858 91.87442194 22.40625 88.01171875 C19.44005752 85.18075234 19.44005752 85.18075234 16 83 Z M230 87 C228.62508701 88.50787161 227.32635538 90.08539761 226.0625 91.6875 C224.85787109 93.19376953 224.85787109 93.19376953 223.62890625 94.73046875 C223.20109863 95.26591309 222.77329102 95.80135742 222.33251953 96.35302734 C220.10267068 99.10908457 217.79981924 101.80231324 215.5 104.5 C211.38694825 109.33850787 207.34275966 114.22659543 203.34375 119.16015625 C201.59671197 121.276984 199.83061948 123.36213291 198.03125 125.43359375 C197.52787109 126.01625 197.02449219 126.59890625 196.50585938 127.19921875 C195.52345966 128.33324695 194.53541299 129.4624149 193.54101562 130.5859375 C190.25643098 134.3377681 190.25643098 134.3377681 189 139 C190.00695551 141.53990002 190.00695551 141.53990002 191.65625 144.1640625 C192.25977295 145.19168701 192.8632959 146.21931152 193.48510742 147.27807617 C194.15002197 148.38256104 194.81493652 149.4870459 195.5 150.625 C196.18139298 151.77698353 196.86146923 152.92974684 197.5402832 154.08325195 C198.96140806 156.49587956 200.38825179 158.90498914 201.81884766 161.31201172 C205.33264615 167.2370983 208.75401638 173.21566656 212.1875 179.1875 C213.40990026 181.3061373 214.63254126 183.42463573 215.85546875 185.54296875 C218.24695752 189.68967864 220.6294689 193.84127671 223 198 C225.65798139 195.62591385 227.10737615 193.17886206 228.71484375 190.01171875 C229.23014648 189.00625 229.74544922 188.00078125 230.27636719 186.96484375 C230.82454102 185.88332031 231.37271484 184.80179687 231.9375 183.6875 C236.27424634 175.23365119 240.67679234 166.82841908 245.25 158.5 C245.73799072 157.60506836 246.22598145 156.71013672 246.72875977 155.78808594 C249.06013941 151.51526294 251.41570723 147.25941533 253.8203125 143.02734375 C254.67211278 141.49752821 255.52368823 139.96758745 256.375 138.4375 C256.77493164 137.75300781 257.17486328 137.06851563 257.58691406 136.36328125 C259.63824532 132.79659111 259.63824532 132.79659111 259.44775391 128.84912109 C257.33237381 124.68613869 254.77764565 120.86141157 252.1875 116.98046875 C251.61797607 116.12189774 251.04845215 115.26332672 250.46166992 114.3787384 C249.26032762 112.57099515 248.05657925 110.76484884 246.85058594 108.96020508 C244.99861593 106.18542627 243.15913032 103.40264742 241.3203125 100.61914062 C240.15178968 98.86408507 238.98254397 97.10951056 237.8125 95.35546875 C237.26037842 94.51807663 236.70825684 93.68068451 236.1394043 92.81791687 C235.62547119 92.053246 235.11153809 91.28857513 234.58203125 90.50073242 C234.13061768 89.82298264 233.6792041 89.14523285 233.21411133 88.44694519 C232.81345459 87.96945328 232.41279785 87.49196136 232 87 C231.34 87 230.68 87 230 87 Z M146 100 C138.98461182 107.61163274 132.02921206 115.25281294 125.328125 123.14453125 C118.40968962 131.28010935 111.33930352 139.2406761 104 147 C103.30390625 147.76699219 102.6078125 148.53398437 101.890625 149.32421875 C99.44312153 151.49359682 97.3620622 151.74905326 94.1328125 151.5703125 C89.81672484 150.41619382 87.07839748 147.07839748 84 144 C82.25941599 142.38562148 80.50917929 140.78159502 78.75 139.1875 C77.94046875 138.43855469 77.1309375 137.68960938 76.296875 136.91796875 C74.22638617 135.18904015 72.41349583 134.14422047 70 133 C68.45884591 137.0550807 66.94570211 141.12006044 65.4375 145.1875 C64.99986328 146.33798828 64.56222656 147.48847656 64.11132812 148.67382812 C63.70205078 149.78564453 63.29277344 150.89746094 62.87109375 152.04296875 C62.48880615 153.06414795 62.10651855 154.08532715 61.71264648 155.13745117 C60.93256779 158.27086081 60.95706045 159.96139546 62 163 C64.08250239 165.100101 66.08447754 166.90938557 68.375 168.75 C69.01058838 169.27730713 69.64617676 169.80461426 70.30102539 170.34790039 C72.19074349 171.91124067 74.09307768 173.45771944 76 175 C76.93972656 175.76699219 77.87945312 176.53398437 78.84765625 177.32421875 C80.58806445 178.74437084 82.33028271 180.1623073 84.07421875 181.578125 C88.92923884 185.59696673 93.67106844 189.74569617 98.421875 193.88671875 C99.01162109 194.39509277 99.60136719 194.9034668 100.20898438 195.42724609 C101.44954714 196.51662795 102.66848814 197.63094243 103.86914062 198.76416016 C104.47435547 199.32280762 105.07957031 199.88145508 105.703125 200.45703125 C106.24098633 200.96854736 106.77884766 201.48006348 107.33300781 202.00708008 C108.97270815 203.20410279 108.97270815 203.20410279 111.05102539 202.81860352 C114.24655631 201.47642449 116.07087991 198.76479595 118.1875 196.125 C118.67089844 195.53783203 119.15429688 194.95066406 119.65234375 194.34570312 C121.1105458 192.57091774 122.55614922 190.78646802 124 189 C125.49958961 187.16633097 126.99955838 185.33297192 128.5 183.5 C129.221875 182.613125 129.94375 181.72625 130.6875 180.8125 C133.72367366 177.11985636 136.8184997 173.47878212 139.9140625 169.8359375 C143.55386512 165.54544391 147.11971561 161.19862024 150.66796875 156.83203125 C152.38265428 154.74970795 154.11101857 152.68694173 155.86328125 150.63671875 C156.353125 150.06308594 156.84296875 149.48945313 157.34765625 148.8984375 C158.2940015 147.79310624 159.2430378 146.69007073 160.1953125 145.58984375 C163.09465125 142.20300557 165.5991983 138.74390755 168 135 C165.79273661 131.20770955 163.58399012 127.41628486 161.375 123.625 C160.44880859 122.03365234 160.44880859 122.03365234 159.50390625 120.41015625 C157.67409744 117.27058955 155.8372624 114.13520903 154 111 C153.42926758 110.01483398 152.85853516 109.02966797 152.27050781 108.01464844 C151.74038086 107.11004883 151.21025391 106.20544922 150.6640625 105.2734375 C150.19693848 104.47083496 149.72981445 103.66823242 149.24853516 102.84130859 C148.1224844 100.85736487 148.1224844 100.85736487 146 100 Z M16 147 C16 176.7 16 206.4 16 237 C17.96248711 234.05626933 18.91067135 231.65820994 20.03125 228.32275391 C20.42505859 227.15789459 20.81886719 225.99303528 21.22460938 224.7928772 C21.64979017 223.5207892 22.0749191 222.24868388 22.5 220.9765625 C22.94032953 219.66989025 23.38109115 218.36336353 23.82226562 217.05697632 C24.98264734 213.61768617 26.13796632 210.17671777 27.29199219 206.73529053 C29.13771825 201.23391307 30.99106861 195.73510016 32.84448242 190.23630905 C33.48967597 188.31973052 34.1327057 186.40243685 34.77539062 184.48501587 C35.16919922 183.31385223 35.56300781 182.1426886 35.96875 180.93603516 C36.31357422 179.90805817 36.65839844 178.88008118 37.01367188 177.82095337 C37.66584318 175.95570711 38.3691951 174.1075013 39.12451172 172.28158569 C40.28888089 169.24715554 40.22830318 168.02458114 39 165 C36.98416582 162.77892002 34.71155366 160.93606099 32.375 159.0625 C31.15364583 158.05338542 29.93229167 157.04427083 28.7109375 156.03515625 C28.10217773 155.54160645 27.49341797 155.04805664 26.86621094 154.53955078 C24.34244835 152.4575457 21.90279416 150.28361381 19.46728516 148.09936523 C18.03881207 146.80012786 18.03881207 146.80012786 16 147 Z " fill="#000000" transform="translate(16,16)"/>
<path d="M0 0 C2.86342595 1.48733558 2.86342595 1.48733558 5.859375 0.5546875 C6.86613281 0.10351562 7.87289062 -0.34765625 8.91015625 -0.8125 C9.98910156 -1.26367188 11.06804687 -1.71484375 12.1796875 -2.1796875 C13.34886719 -2.67726563 14.51804688 -3.17484375 15.72265625 -3.6875 C43.68344736 -14.89796732 73.34135285 -13.43315917 100.91015625 -1.8125 C102.43962891 -0.9153125 102.43962891 -0.9153125 104 0 C106.86342595 1.48733558 106.86342595 1.48733558 109.859375 0.5546875 C110.86613281 0.10351562 111.87289063 -0.34765625 112.91015625 -0.8125 C113.98910156 -1.26367188 115.06804687 -1.71484375 116.1796875 -2.1796875 C117.34886719 -2.67726563 118.51804687 -3.17484375 119.72265625 -3.6875 C142.47509228 -12.80975407 168.40383584 -14.51803834 191.91015625 -6.8125 C192.55549316 -6.60351074 193.20083008 -6.39452148 193.86572266 -6.17919922 C209.54077999 -0.9094431 222.23460218 7.65032286 233.91015625 19.1875 C234.62558594 19.83074219 235.34101563 20.47398437 236.078125 21.13671875 C251.80136123 35.60460678 262.85771561 60.00713232 264.0871582 81.24511719 C264.372188 96.31195108 264.64212554 110.75227414 259.91015625 125.1875 C259.59667236 126.15550537 259.59667236 126.15550537 259.27685547 127.14306641 C254.00709935 142.81812374 245.44733339 155.51194593 233.91015625 167.1875 C233.26691406 167.90292969 232.62367188 168.61835938 231.9609375 169.35546875 C217.13886597 185.46362024 192.66641972 196.06811483 170.94433594 197.36450195 C151.06125946 197.75598706 134.44371719 196.40300503 116.14453125 188.5546875 C115.0771875 188.10351562 114.00984375 187.65234375 112.91015625 187.1875 C111.935625 186.73375 110.96109375 186.28 109.95703125 185.8125 C105.74950931 184.94941858 103.08022292 186.44578554 99.41015625 188.3125 C75.09308102 199.82263878 45.826517 201.03324222 20.48730469 191.97705078 C16.10815745 190.36110348 11.86052911 188.744988 7.8203125 186.375 C4.96050888 184.88897111 4.96050888 184.88897111 1.984375 185.81640625 C0.96988281 186.26886719 -0.04460937 186.72132813 -1.08984375 187.1875 C-2.23839844 187.65027344 -3.38695312 188.11304688 -4.5703125 188.58984375 C-5.17166016 188.83903564 -5.77300781 189.08822754 -6.39257812 189.3449707 C-33.03396039 200.37077593 -62.57676024 200.61951838 -89.37109375 189.78125 C-99.31264897 185.5985225 -107.65090196 179.86579926 -116.08984375 173.1875 C-116.74855469 172.68476563 -117.40726563 172.18203125 -118.0859375 171.6640625 C-137.70996869 155.98296598 -149.62017429 129.25455727 -152.40234375 104.875 C-155.27988839 75.30483128 -146.48878468 48.43707081 -128.08984375 25.1875 C-127.58710937 24.52878906 -127.084375 23.87007813 -126.56640625 23.19140625 C-98.40012197 -12.05715182 -38.71239417 -22.70866106 0 0 Z M-108.08984375 29.1875 C-108.72148438 29.73792969 -109.353125 30.28835938 -110.00390625 30.85546875 C-125.01351238 44.73421415 -134.49788921 66.19423846 -135.46875 86.41796875 C-136.1632669 111.70059475 -129.78620595 132.96383016 -113.08984375 152.1875 C-112.44402344 152.93386719 -111.79820313 153.68023437 -111.1328125 154.44921875 C-96.0667504 170.59369372 -73.44996875 180.13616502 -51.5546875 181.21875 C-27.47846382 181.00160255 -6.0080268 173.46863975 11.91015625 157.1875 C12.54179687 156.63707031 13.1734375 156.08664062 13.82421875 155.51953125 C28.83382488 141.64078585 38.31820171 120.18076154 39.2890625 99.95703125 C39.9835794 74.67440525 33.60651845 53.41116984 16.91015625 34.1875 C16.26433594 33.44113281 15.61851562 32.69476563 14.953125 31.92578125 C-0.70551262 15.14631483 -23.66925878 6.10664837 -46.3125 5.15625 C-69.61438018 5.34902667 -90.8323589 13.50669566 -108.08984375 29.1875 Z M28.97265625 9.6875 C28.29315918 9.90108154 27.61366211 10.11466309 26.91357422 10.3347168 C24.01227191 11.29995919 22.10027775 11.9973785 19.91015625 14.1875 C20.73257813 14.95191406 21.555 15.71632813 22.40234375 16.50390625 C29.73003196 23.47903691 35.61591639 30.59420439 40.984375 39.16796875 C42.74157253 42.16288322 42.74157253 42.16288322 44.91015625 44.1875 C45.32265625 43.754375 45.73515625 43.32125 46.16015625 42.875 C49.1359411 40.00549318 51.61076398 37.73576508 55.84765625 37.375 C59.35256625 37.74960221 61.0705131 38.87699333 63.65258789 41.23510742 C64.34949738 41.87000092 65.04640686 42.50489441 65.76443481 43.1590271 C69.26226152 46.46572226 72.69513031 49.82982347 76.09375 53.23828125 C76.83472427 53.9782988 77.57569855 54.71831635 78.33912659 55.48075867 C79.88901484 57.0299716 81.43766183 58.58042727 82.98510742 60.13208008 C85.36197874 62.51435505 87.74420271 64.89118497 90.12695312 67.26757812 C91.6370399 68.7783249 93.14681687 70.28938141 94.65625 71.80078125 C95.36970078 72.51220779 96.08315155 73.22363434 96.81822205 73.95661926 C97.8004348 74.94356026 97.8004348 74.94356026 98.80249023 75.95043945 C99.38014633 76.52889114 99.95780243 77.10734283 100.55296326 77.70332336 C103.1205892 80.51118522 103.35639604 83.15912225 103.29882812 86.91796875 C102.53992147 91.34937345 99.78015664 94.63725227 97.16015625 98.1875 C96.57105469 99.01636719 95.98195313 99.84523438 95.375 100.69921875 C91.17139715 106.57706171 86.83283127 112.35908365 82.44799805 118.1027832 C77.83987404 124.17114786 73.5696736 130.45586472 69.36132812 136.80664062 C62.23367788 147.43939645 62.23367788 147.43939645 57.84765625 148.8515625 C53.76168171 148.76918398 52.32302102 148.5285622 49.03515625 145.8125 C48.33390625 144.94625 47.63265625 144.08 46.91015625 143.1875 C46.25015625 142.5275 45.59015625 141.8675 44.91015625 141.1875 C44.29269531 142.15429688 43.67523438 143.12109375 43.0390625 144.1171875 C37.8727557 152.09886435 32.46649911 159.26899724 25.91015625 166.1875 C23.88510745 168.50064853 21.89833698 170.84246632 19.91015625 173.1875 C39.98438457 182.11441417 64.08961556 183.91336101 84.91015625 176.1875 C109.40018053 166.7122607 126.15821415 149.98523915 137.05273438 126.18603516 C145.12193992 107.37780149 146.09699352 83.47798851 138.91015625 64.1875 C129.31868894 40.97166811 113.13070285 22.37909019 89.91015625 12.1875 C70.35209961 4.21994464 49.10975472 3.34049048 28.97265625 9.6875 Z M123.91015625 14.1875 C124.73257812 14.95191406 125.555 15.71632813 126.40234375 16.50390625 C138.62862711 28.12862556 146.81882234 40.94817647 153.91015625 56.1875 C156.15553659 52.34405618 157.01282985 48.2236981 158.03515625 43.9375 C158.21691406 43.19242187 158.39867187 42.44734375 158.5859375 41.6796875 C159.03163124 39.8499974 159.47147584 38.01888425 159.91015625 36.1875 C162.57682292 36.52083333 165.24348958 36.85416667 167.91015625 37.1875 C168.59207031 37.27273926 169.27398437 37.35797852 169.9765625 37.44580078 C170.70746094 37.53716309 171.43835938 37.62852539 172.19140625 37.72265625 C174.0321875 37.95275391 174.0321875 37.95275391 175.91015625 38.1875 C175.75759872 38.77996521 175.6050412 39.37243042 175.44786072 39.98284912 C173.86330185 46.14423108 172.29195466 52.30887369 170.72827148 58.47558594 C170.14279619 60.77723265 169.55394631 63.07802369 168.96166992 65.37792969 C168.11140605 68.68205652 167.27328658 71.98906065 166.4375 75.296875 C166.16985336 76.32617126 165.90220673 77.35546753 165.62644958 78.41595459 C165.38612503 79.37664856 165.14580048 80.33734253 164.89819336 81.32714844 C164.68279404 82.17098083 164.46739471 83.01481323 164.24546814 83.88421631 C163.89130489 86.31699147 164.14340221 87.8722631 164.91015625 90.1875 C165.88597656 89.89875 166.86179687 89.61 167.8671875 89.3125 C169.1522824 88.93728981 170.43744206 88.56230138 171.72265625 88.1875 C172.98722656 87.81625 174.25179687 87.445 175.5546875 87.0625 C178.91015625 86.1875 178.91015625 86.1875 181.91015625 86.1875 C183.23015625 90.8075 184.55015625 95.4275 185.91015625 100.1875 C181.65508541 101.88560209 177.54996729 103.33145161 173.078125 104.3359375 C165.71552472 106.02409705 165.71552472 106.02409705 158.91015625 109.1875 C156.3462327 113.47653261 155.8903501 117.24256518 155.91015625 122.1875 C155.91015625 123.1775 155.91015625 124.1675 155.91015625 125.1875 C173.07015625 125.1875 190.23015625 125.1875 207.91015625 125.1875 C207.91015625 130.4675 207.91015625 135.7475 207.91015625 141.1875 C206.17523926 141.10894775 204.44032227 141.03039551 202.65283203 140.94946289 C196.88647555 140.70647501 191.12029274 140.5347572 185.3503437 140.41031742 C181.85465031 140.33236692 178.36454469 140.22696188 174.87207031 140.0559082 C160.21420718 138.64477973 160.21420718 138.64477973 146.70532227 142.61956787 C143.34086894 146.05720761 141.46974537 149.91038357 139.74562073 154.35162354 C138.41878876 157.2672467 136.35248547 159.3899427 134.16015625 161.6875 C133.43441406 162.45835937 132.70867187 163.22921875 131.9609375 164.0234375 C130.94580078 165.09464844 130.94580078 165.09464844 129.91015625 166.1875 C127.88510745 168.50064853 125.89833698 170.84246632 123.91015625 173.1875 C145.83017245 182.93522729 169.58996518 183.4441238 191.95166016 174.98535156 C202.49596521 170.68981567 211.4732686 164.85357565 219.91015625 157.1875 C220.54179687 156.63707031 221.1734375 156.08664062 221.82421875 155.51953125 C236.83382488 141.64078585 246.31820171 120.18076154 247.2890625 99.95703125 C247.9835794 74.67440525 241.60651845 53.41116984 224.91015625 34.1875 C224.26433594 33.44113281 223.61851562 32.69476563 222.953125 31.92578125 C207.28649382 15.1377491 184.34257959 6.12872435 161.6953125 5.15234375 C149.84588703 5.26240033 133.19424273 6.27799914 123.91015625 14.1875 Z M53.2421875 59.41015625 C51.69674802 61.0839733 51.69674802 61.0839733 51.984375 63.18359375 C52.18675781 63.98925781 52.38914062 64.79492188 52.59765625 65.625 C54.50342051 74.38441336 55.07249346 83.27237455 55.91015625 92.1875 C63.50015625 89.2175 71.09015625 86.2475 78.91015625 83.1875 C79.2322558 80.05564874 79.2322558 80.05564874 76.92236328 77.82739258 C76.01341309 76.92142334 75.10446289 76.0154541 74.16796875 75.08203125 C73.68439911 74.5979631 73.20082947 74.11389496 72.7026062 73.61515808 C71.67886033 72.59375264 70.65141991 71.57603888 69.62060547 70.56176758 C68.03953462 69.00431297 66.47222505 67.43394492 64.90625 65.86132812 C59.80314934 59.33030232 59.80314934 59.33030232 53.2421875 59.41015625 Z M62.55078125 107.21484375 C60.00532638 108.15244473 57.57952582 108.73140268 54.91015625 109.1875 C53.18086788 116.09909038 53.18086788 116.09909038 52.91015625 123.1875 C54.89015625 124.1775 54.89015625 124.1775 56.91015625 125.1875 C58.87782334 122.63204737 60.83255542 120.06697753 62.78515625 117.5 C63.34074219 116.77876953 63.89632812 116.05753906 64.46875 115.31445312 C67.18073948 111.73658749 69.55616732 108.53226194 70.91015625 104.1875 C68.15314798 104.1875 65.06264978 106.16572501 62.55078125 107.21484375 Z " fill="#000000" transform="translate(208.08984375,266.8125)"/>
<path d="M0 0 C5.28 0 10.56 0 16 0 C16 5.28 16 10.56 16 16 C21.28 16 26.56 16 32 16 C32 10.72 32 5.44 32 0 C37.28 0 42.56 0 48 0 C48 5.28 48 10.56 48 16 C50.31 16 52.62 16 55 16 C61.58594643 17.78761403 66.21276784 22.50339548 70 28 C73.01077524 33.98140681 72.65045191 40.46591493 72 47 C71.03125 49.515625 71.03125 49.515625 69.875 51.5625 C67.63196724 54.7680776 67.63196724 54.7680776 68.625 57.6875 C69.07875 58.450625 69.5325 59.21375 70 60 C73.13360202 66.54369834 73.14596237 74.45966808 71.3828125 81.4453125 C68.62281109 87.67363426 63.28930952 92.15477759 57.4375 95.4375 C55 96 55 96 48 96 C48 101.28 48 106.56 48 112 C42.72 112 37.44 112 32 112 C32 106.72 32 101.44 32 96 C26.72 96 21.44 96 16 96 C16 101.28 16 106.56 16 112 C10.72 112 5.44 112 0 112 C0 106.72 0 101.44 0 96 C-5.28 96 -10.56 96 -16 96 C-16 90.72 -16 85.44 -16 80 C-10.72 80 -5.44 80 0 80 C0 64.16 0 48.32 0 32 C-5.28 32 -10.56 32 -16 32 C-16 26.72 -16 21.44 -16 16 C-10.72 16 -5.44 16 0 16 C0 10.72 0 5.44 0 0 Z M16 32 C16 37.28 16 42.56 16 48 C20.44801928 48.06910041 24.89415558 48.12876017 29.34228516 48.16479492 C30.85341727 48.17982543 32.36450618 48.20025564 33.87548828 48.22631836 C36.05512187 48.26295689 38.23417575 48.27978338 40.4140625 48.29296875 C41.7232666 48.3086792 43.0324707 48.32438965 44.38134766 48.34057617 C48.28317015 47.97334892 50.68641731 47.0568466 54 45 C55.42041821 42.15916359 55.31452272 40.14522722 55 37 C52.76793569 34.15219381 51.45007001 33.15002334 48 32 C45.5589224 31.9154613 43.14740787 31.88394214 40.70703125 31.90234375 C40.00100266 31.9037587 39.29497406 31.90517365 38.56755066 31.90663147 C36.31582374 31.91222236 34.06419679 31.92477312 31.8125 31.9375 C30.28450665 31.94251618 28.75651173 31.94707888 27.22851562 31.95117188 C23.48560772 31.9613373 19.74291557 31.98091431 16 32 Z M16 64 C16 69.28 16 74.56 16 80 C20.44801928 80.06910041 24.89415558 80.12876017 29.34228516 80.16479492 C30.85341727 80.17982543 32.36450618 80.20025564 33.87548828 80.22631836 C36.05512187 80.26295689 38.23417575 80.27978338 40.4140625 80.29296875 C41.7232666 80.3086792 43.0324707 80.32438965 44.38134766 80.34057617 C48.28317015 79.97334892 50.68641731 79.0568466 54 77 C55.42041821 74.15916359 55.31452272 72.14522722 55 69 C52.76793569 66.15219381 51.45007001 65.15002334 48 64 C45.5589224 63.9154613 43.14740787 63.88394214 40.70703125 63.90234375 C40.00100266 63.9037587 39.29497406 63.90517365 38.56755066 63.90663147 C36.31582374 63.91222236 34.06419679 63.92477312 31.8125 63.9375 C30.28450665 63.94251618 28.75651173 63.94707888 27.22851562 63.95117188 C23.48560772 63.9613373 19.74291557 63.98091431 16 64 Z " fill="#000000" transform="translate(128,304)"/>
</svg>
