<svg width="92" height="92" viewBox="0 0 92 92" fill="none" xmlns="http://www.w3.org/2000/svg">
<path d="M61.3333 15.334C61.3333 13.2169 59.6171 11.5007 57.5 11.5007H34.5C32.3829 11.5007 30.6667 13.2169 30.6667 15.334V61.334C30.6667 63.4511 32.3829 65.1673 34.5 65.1673H57.5C59.6171 65.1673 61.3333 63.4511 61.3333 61.334V15.334ZM69 61.334C69 67.6853 63.8513 72.834 57.5 72.834H34.5C28.1487 72.834 23 67.6853 23 61.334V15.334C23 8.98271 28.1487 3.83398 34.5 3.83398H57.5C63.8513 3.83398 69 8.98271 69 15.334V61.334Z" fill="#7C8189"/>
<path d="M53.6665 72.8327H38.3332V78.5827C38.3332 79.6412 39.1913 80.4993 40.2498 80.4993H51.7498C52.8084 80.4993 53.6665 79.6412 53.6665 78.5827V72.8327ZM61.3332 80.4993C61.3332 84.7335 57.9007 88.166 53.6665 88.166H38.3332C34.099 88.166 30.6665 84.7335 30.6665 80.4993V65.166H61.3332V80.4993Z" fill="#7C8189"/>
<path d="M38.3335 38.3327C38.3335 34.0985 41.766 30.666 46.0002 30.666C50.2343 30.666 53.6668 34.0985 53.6668 38.3327C53.6668 42.5669 50.2343 45.9993 46.0002 45.9993C41.766 45.9993 38.3335 42.5669 38.3335 38.3327Z" fill="#7C8189"/>
</svg>
