<svg width="16" height="16" viewBox="0 0 16 16" fill="none" xmlns="http://www.w3.org/2000/svg">
<path d="M2.6665 7.99984C2.29831 7.99984 1.99984 8.29831 1.99984 8.6665L1.99984 12.6665C1.99984 13.0347 2.29831 13.3332 2.6665 13.3332L10.6665 13.3332C11.0347 13.3332 11.3332 13.0347 11.3332 12.6665L11.3332 8.6665C11.3332 8.29831 11.0347 7.99984 10.6665 7.99984L2.6665 7.99984ZM10.6665 6.6665C11.7711 6.6665 12.6665 7.56193 12.6665 8.6665L12.6665 12.6665C12.6665 13.7711 11.7711 14.6665 10.6665 14.6665L2.6665 14.6665C1.56193 14.6665 0.666504 13.7711 0.666504 12.6665L0.666504 8.6665C0.666504 7.56193 1.56193 6.6665 2.6665 6.6665L10.6665 6.6665Z" fill="#0C1013"/>
<path d="M12.6668 9.3335L12.6668 12.0002L13.5002 12.0002C13.7763 12.0002 14.0002 11.7763 14.0002 11.5002L14.0002 9.8335C14.0002 9.55735 13.7763 9.3335 13.5002 9.3335L12.6668 9.3335ZM14.0002 8.00016C14.7365 8.00016 15.3335 8.59712 15.3335 9.3335L15.3335 12.0002C15.3335 12.7365 14.7365 13.3335 14.0002 13.3335L11.3335 13.3335L11.3335 8.00016L14.0002 8.00016Z" fill="#0C1013"/>
<path d="M6.66683 12C5.93045 12 5.3335 11.403 5.3335 10.6667C5.3335 9.93029 5.93045 9.33333 6.66683 9.33333C7.40321 9.33333 8.00016 9.93029 8.00016 10.6667C8.00016 11.403 7.40321 12 6.66683 12Z" fill="#0C1013"/>
<path d="M3.16682 1.3335C3.44295 1.3335 3.66682 1.55736 3.66682 1.8335V2.35758L4.27684 2.0529C4.52378 1.92962 4.82397 2.02996 4.94742 2.27686C5.07069 2.52379 4.97034 2.82398 4.72346 2.94743L4.284 3.16618L4.72346 3.38623C4.97034 3.50969 5.0707 3.80987 4.94742 4.0568C4.82397 4.3037 4.52378 4.40403 4.27684 4.28076L3.66682 3.97542V4.50016C3.66682 4.7763 3.44295 5.00016 3.16682 5.00016C2.89067 5.00016 2.66682 4.77631 2.66682 4.50016V3.97542L2.05679 4.28076C1.80986 4.40405 1.50967 4.30369 1.38622 4.0568C1.26292 3.80986 1.36327 3.50968 1.61018 3.38623L2.04833 3.16618L1.61018 2.94743C1.36327 2.82398 1.26292 2.5238 1.38622 2.27686C1.50967 2.02995 1.80985 1.9296 2.05679 2.0529L2.66682 2.35758V1.8335C2.66682 1.55735 2.89067 1.3335 3.16682 1.3335ZM7.83348 1.3335C8.10962 1.3335 8.33348 1.55736 8.33348 1.8335V2.35758L8.94351 2.0529C9.19045 1.92962 9.49063 2.02996 9.61408 2.27686C9.73736 2.52379 9.63701 2.82398 9.39012 2.94743L8.95067 3.16618L9.39012 3.38623C9.63701 3.50969 9.73737 3.80987 9.61408 4.0568C9.49064 4.3037 9.19044 4.40403 8.94351 4.28076L8.33348 3.97542V4.50016C8.33348 4.7763 8.10962 5.00016 7.83348 5.00016C7.55734 5.00016 7.33348 4.77631 7.33348 4.50016V3.97542L6.72346 4.28076C6.47652 4.40405 6.17634 4.30369 6.05288 4.0568C5.92959 3.80986 6.02994 3.50968 6.27684 3.38623L6.71499 3.16618L6.27684 2.94743C6.02994 2.82398 5.92959 2.5238 6.05288 2.27686C6.17634 2.02995 6.47652 1.9296 6.72346 2.0529L7.33348 2.35758V1.8335C7.33348 1.55735 7.55734 1.3335 7.83348 1.3335ZM12.5002 1.3335C12.7763 1.3335 13.0002 1.55736 13.0002 1.8335V2.35758L13.6102 2.0529C13.8571 1.92962 14.1573 2.02996 14.2808 2.27686C14.404 2.52379 14.3037 2.82398 14.0568 2.94743L13.6173 3.16618L14.0568 3.38623C14.3037 3.50969 14.404 3.80987 14.2808 4.0568C14.1573 4.3037 13.8571 4.40403 13.6102 4.28076L13.0002 3.97542V4.50016C13.0002 4.7763 12.7763 5.00016 12.5002 5.00016C12.224 5.00016 12.0002 4.77631 12.0002 4.50016V3.97542L11.3901 4.28076C11.1432 4.40405 10.843 4.30369 10.7196 4.0568C10.5963 3.80986 10.6966 3.50968 10.9435 3.38623L11.3817 3.16618L10.9435 2.94743C10.6966 2.82398 10.5963 2.5238 10.7196 2.27686C10.843 2.02995 11.1432 1.9296 11.3901 2.0529L12.0002 2.35758V1.8335C12.0002 1.55735 12.224 1.3335 12.5002 1.3335Z" fill="#0C1013"/>
</svg>
