<svg width="16" height="16" viewBox="0 0 16 16" fill="none" xmlns="http://www.w3.org/2000/svg">
<path d="M3.33313 6.16699C3.60927 6.16699 3.83313 6.39085 3.83313 6.66699V7.19043L4.44348 6.88574C4.69037 6.76264 4.99097 6.86353 5.11438 7.11035C5.23732 7.3572 5.13652 7.6569 4.88977 7.78027L4.45032 7.99902L4.88977 8.21973C5.13653 8.3431 5.23734 8.64279 5.11438 8.88965C4.99097 9.13647 4.69037 9.23735 4.44348 9.11426L3.83313 8.80859V9.33301C3.83313 9.60915 3.60927 9.83301 3.33313 9.83301C3.05707 9.83291 2.83313 9.60909 2.83313 9.33301V8.80859L2.22375 9.11426C1.97681 9.23755 1.67631 9.13655 1.55286 8.88965C1.42975 8.64284 1.52985 8.34323 1.77649 8.21973L2.21497 7.99902L1.77649 7.78027C1.52985 7.65678 1.42977 7.35716 1.55286 7.11035C1.67631 6.86345 1.97681 6.76245 2.22375 6.88574L2.83313 7.19043V6.66699C2.83313 6.39091 3.05707 6.16709 3.33313 6.16699ZM8.00012 6.16699C8.2762 6.16707 8.50012 6.3909 8.50012 6.66699V7.19043L9.11047 6.88574C9.35732 6.76284 9.65703 6.86362 9.7804 7.11035C9.90349 7.35717 9.80342 7.65678 9.55676 7.78027L9.11731 7.99902L9.55676 8.21973C9.80342 8.34323 9.90351 8.64283 9.7804 8.88965C9.65703 9.13638 9.35732 9.23715 9.11047 9.11426L8.50012 8.80859V9.33301C8.50012 9.6091 8.2762 9.83293 8.00012 9.83301C7.72398 9.83301 7.50012 9.60915 7.50012 9.33301V8.80859L6.88977 9.11426C6.64288 9.23734 6.34325 9.13646 6.21985 8.88965C6.0966 8.64272 6.19661 8.34317 6.44348 8.21973L6.88196 7.99902L6.44348 7.78027C6.19661 7.65683 6.09662 7.35727 6.21985 7.11035C6.34326 6.86354 6.64288 6.76265 6.88977 6.88574L7.50012 7.19043V6.66699C7.50012 6.39085 7.72398 6.16699 8.00012 6.16699ZM12.6671 6.16699C12.943 6.16724 13.1671 6.391 13.1671 6.66699V7.19043L13.7765 6.88574C14.0234 6.76245 14.3239 6.86345 14.4474 7.11035C14.5703 7.35706 14.4702 7.65672 14.2238 7.78027L13.7843 7.99902L14.2238 8.21973C14.4702 8.34329 14.5704 8.64294 14.4474 8.88965C14.3239 9.13655 14.0234 9.23755 13.7765 9.11426L13.1671 8.80859V9.33301C13.1671 9.609 12.943 9.83276 12.6671 9.83301C12.391 9.83301 12.1671 9.60915 12.1671 9.33301V8.80859L11.5568 9.11426C11.3098 9.23754 11.0093 9.13655 10.8859 8.88965C10.7628 8.64277 10.8637 8.34312 11.1105 8.21973L11.549 7.99902L11.1105 7.78027C10.8637 7.65688 10.7628 7.35723 10.8859 7.11035C11.0093 6.86345 11.3098 6.76245 11.5568 6.88574L12.1671 7.19043V6.66699C12.1671 6.39085 12.391 6.16699 12.6671 6.16699Z" fill="black"/>
</svg>
