<svg width="131" height="210" viewBox="0 0 131 210" fill="none" xmlns="http://www.w3.org/2000/svg">
<path d="M65.5 210.001C62.0625 210.001 58.6232 209.241 56.0055 207.721L5.62539 178.492C3.01095 176.973 1.57011 174.926 1.57011 172.727C1.57011 170.527 3.01095 168.48 5.62539 166.961L56.0023 137.735C61.2393 134.699 69.7575 134.699 74.9945 137.735L125.373 166.963C127.989 168.481 129.428 170.529 129.428 172.728C129.428 174.928 127.988 176.975 125.373 178.493L74.9961 207.721C72.3768 209.241 68.9376 210.001 65.5 210.001ZM65.4984 136.333C62.2189 136.333 58.9411 137.057 56.444 138.505L6.06715 167.731C3.73469 169.084 2.45189 170.858 2.45189 172.728C2.45189 174.599 3.73469 176.372 6.06715 177.725L56.4473 206.954C61.4366 209.85 69.5619 209.85 74.5528 206.954L124.93 177.727C127.262 176.374 128.545 174.6 128.545 172.73C128.545 170.859 127.262 169.086 124.93 167.733L74.5512 138.505C72.0557 137.057 68.7762 136.333 65.4984 136.333Z" fill="#4B6FFF"/>
<path opacity="0.4" d="M131 161.512V144.177L127.842 142.413C126.951 147.826 120.61 151.393 115.31 152.133L79.2112 173.345L63.4577 179.061L13.1721 152.985L14.3342 152.31C10.0361 150.293 7.72154 145.679 5.39722 141.468L2.01182 143.497L0.000450134 144.065V161.694C0.000450134 163.941 1.47554 166.188 4.42412 167.899L54.8027 197.127C60.7015 200.548 70.2986 200.548 76.1974 197.127L126.576 167.901C129.477 166.217 130.951 164.014 130.998 161.805C131 161.707 130.995 161.608 130.991 161.509L131 161.512Z" fill="#0C184B"/>
<path d="M131 146.103V134.633L127.842 132.869C126.951 138.282 120.61 141.849 115.31 142.59L79.2112 163.801L63.4577 169.517L13.1721 143.441L14.3342 142.766C10.0361 140.749 7.72154 136.135 5.39722 131.924L2.01182 133.953L0.000450134 134.521V146.285C0.000450134 148.532 1.47554 150.779 4.42412 152.49L54.8027 181.718C60.7015 185.139 70.2986 185.139 76.1974 181.718L126.576 152.492C129.477 150.808 130.951 148.607 130.998 146.396C131 146.298 130.995 146.199 130.991 146.099L131 146.103Z" fill="#0C184B"/>
<path opacity="0.3" d="M115.31 142.59L79.2112 163.802L65.4984 168.777V184.286C69.3728 184.286 73.2472 183.431 76.1974 181.72L126.576 152.494C129.477 150.81 130.951 148.609 130.998 146.398C131 146.3 130.995 146.201 130.991 146.101L130.998 146.105V134.635L128.113 133.021H127.811C126.827 138.348 120.56 141.856 115.31 142.59Z" fill="#0F054C"/>
<path d="M54.8027 170.067L4.42409 140.839C-1.4747 137.418 -1.4747 131.849 4.42409 128.426L54.8027 99.1999C60.7014 95.7784 70.2986 95.7784 76.1973 99.1999L126.576 128.427C132.475 131.849 132.475 137.418 126.576 140.839L76.1973 170.065C70.2986 173.488 60.7014 173.488 54.8027 170.067Z" fill="#F1F4FF"/>
<path d="M126.576 140.839L76.1974 170.065C70.2986 173.486 60.7015 173.486 54.8027 170.065L4.42413 140.837C1.78687 139.308 0.332995 137.349 0.0526429 135.346C-0.292907 137.825 1.16097 140.374 4.42413 142.267L54.8027 171.495C60.7015 174.916 70.2986 174.916 76.1974 171.495L126.576 142.269C129.837 140.376 131.293 137.827 130.946 135.349C130.665 137.352 129.212 139.311 126.576 140.839Z" fill="white"/>
<path opacity="0.5" d="M83.4132 153.657L33.3998 124.643C29.7992 122.555 30.2508 118.907 34.4088 116.494C38.5651 114.084 44.8535 113.821 48.4524 115.91L98.4658 144.924C102.066 147.013 101.615 150.66 97.4569 153.073C93.3005 155.484 87.0122 155.746 83.4132 153.657Z" fill="#0C184B"/>
<path d="M30.9728 45.0303V105.513L30.976 105.515C30.9923 106.825 31.7861 108.076 33.3998 109.011L83.4132 138.026C87.0122 140.114 93.3005 139.852 97.4569 137.441C99.7877 136.088 100.953 134.347 100.891 132.711V72.2137L30.9728 45.0303Z" fill="#0C184B"/>
<path opacity="0.3" d="M87.1637 139.238C90.5296 139.752 94.5197 139.146 97.4569 137.441C99.7877 136.088 100.953 134.347 100.891 132.711V72.2138L87.4082 66.9727H87.1621V139.238H87.1637Z" fill="#0C184B"/>
<path d="M83.4132 77.5431L33.3998 48.5285C29.7992 46.4403 30.2508 42.7928 34.4088 40.3802C38.5651 37.9693 44.8535 37.7072 48.4524 39.7955L98.4658 68.8101C102.066 70.8983 101.615 74.5458 97.4569 76.9584C93.3005 79.3693 87.0122 79.6314 83.4132 77.5431Z" fill="#9394AA"/>
<path d="M88.4041 73.6532C86.0179 73.6532 84.0815 71.709 84.0815 69.3096V42.4373C84.0815 33.2719 77.4085 21.6579 69.5081 17.0752L58.0316 10.4173C54.9999 8.65825 52.2616 8.22913 50.5208 9.23969C48.78 10.2502 47.7809 12.8462 47.7809 16.3643V43.2366C47.7809 45.6361 45.8461 47.5802 43.4582 47.5802C41.0704 47.5802 39.1356 45.6361 39.1356 43.2366V16.3627C39.1356 9.55907 41.6441 4.35888 46.1982 1.71702C50.7523 -0.924832 56.4897 -0.507177 62.3526 2.89464L73.8291 9.55252C84.4238 15.6994 92.7235 30.1436 92.7235 42.4373V69.3096C92.7268 71.709 90.792 73.6532 88.4041 73.6532Z" fill="#0C184B"/>
</svg>
