<?xml version="1.0" encoding="UTF-8"?>
<svg xmlns="http://www.w3.org/2000/svg" xmlns:xlink="http://www.w3.org/1999/xlink" width="48px" height="48px" viewBox="0 0 48 48" version="1.1">
<g id="surface1">
<path style=" stroke:none;fill-rule:nonzero;fill:rgb( 5.882353%,5.882353%,5.882353%);fill-opacity:1;" d="M 24.113281 12.503906 C 24.277344 12.5 24.277344 12.5 24.445312 12.5 C 24.566406 12.5 24.6875 12.5 24.8125 12.5 C 24.941406 12.5 25.066406 12.496094 25.195312 12.496094 C 25.617188 12.496094 26.039062 12.492188 26.460938 12.492188 C 26.605469 12.492188 26.75 12.492188 26.898438 12.492188 C 27.578125 12.488281 28.261719 12.488281 28.945312 12.488281 C 29.734375 12.484375 30.519531 12.484375 31.308594 12.480469 C 31.917969 12.476562 32.523438 12.472656 33.132812 12.472656 C 33.496094 12.472656 33.859375 12.472656 34.222656 12.46875 C 34.566406 12.46875 34.910156 12.46875 35.25 12.46875 C 35.375 12.46875 35.503906 12.46875 35.628906 12.464844 C 36.574219 12.457031 37.246094 12.613281 37.996094 13.304688 C 38.0625 13.367188 38.128906 13.429688 38.199219 13.492188 C 38.246094 13.546875 38.296875 13.597656 38.347656 13.65625 C 38.347656 13.722656 38.347656 13.792969 38.347656 13.863281 C 38.40625 13.863281 38.464844 13.863281 38.523438 13.863281 C 38.652344 14.058594 38.652344 14.058594 38.792969 14.328125 C 38.839844 14.414062 38.886719 14.5 38.933594 14.589844 C 39.265625 15.386719 39.265625 16.15625 39.257812 17.027344 C 39.257812 17.148438 39.257812 17.273438 39.257812 17.398438 C 39.257812 17.789062 39.253906 18.179688 39.25 18.570312 C 39.25 18.835938 39.25 19.101562 39.25 19.363281 C 39.246094 20.011719 39.242188 20.660156 39.238281 21.308594 C 39.339844 21.339844 39.4375 21.371094 39.539062 21.40625 C 39.839844 21.507812 40.050781 21.621094 40.3125 21.816406 C 40.578125 22.007812 40.84375 22.191406 41.121094 22.363281 C 41.386719 22.550781 41.386719 22.550781 41.476562 22.863281 C 41.59375 22.898438 41.710938 22.933594 41.832031 22.964844 C 42.035156 23.113281 42.035156 23.113281 42.191406 23.277344 C 42.191406 23.34375 42.191406 23.414062 42.191406 23.484375 C 42.242188 23.507812 42.289062 23.53125 42.34375 23.558594 C 42.589844 23.71875 42.761719 23.910156 42.960938 24.140625 C 43.03125 24.222656 43.101562 24.300781 43.171875 24.382812 C 43.335938 24.597656 43.429688 24.777344 43.53125 25.035156 C 43.617188 25.140625 43.707031 25.242188 43.800781 25.34375 C 44.066406 25.707031 44.242188 26.054688 44.425781 26.484375 C 44.480469 26.601562 44.535156 26.722656 44.589844 26.847656 C 45.429688 28.695312 45.800781 30.492188 45.789062 32.585938 C 45.789062 32.707031 45.789062 32.828125 45.789062 32.953125 C 45.789062 34.085938 45.675781 35.179688 45.375 36.257812 C 45.355469 36.328125 45.339844 36.394531 45.320312 36.464844 C 45.203125 36.902344 45.0625 37.230469 44.78125 37.550781 C 44.601562 37.613281 44.601562 37.613281 44.425781 37.601562 C 44.367188 37.601562 44.304688 37.601562 44.246094 37.601562 C 44.007812 37.535156 43.882812 37.445312 43.710938 37.242188 C 43.664062 36.988281 43.664062 36.988281 43.671875 36.699219 C 43.671875 36.558594 43.671875 36.558594 43.671875 36.414062 C 43.710938 36.101562 43.796875 35.859375 43.910156 35.578125 C 44.660156 33.386719 44.292969 30.539062 43.519531 28.441406 C 43.285156 27.839844 42.996094 27.285156 42.683594 26.734375 C 42.546875 26.484375 42.546875 26.484375 42.546875 26.277344 C 42.488281 26.277344 42.429688 26.277344 42.367188 26.277344 C 42.011719 25.8125 42.011719 25.8125 42.011719 25.550781 C 41.953125 25.550781 41.894531 25.550781 41.832031 25.550781 C 41.707031 25.402344 41.707031 25.402344 41.570312 25.203125 C 41.394531 24.949219 41.269531 24.804688 41.027344 24.621094 C 41.027344 24.550781 41.027344 24.484375 41.027344 24.414062 C 40.96875 24.390625 40.910156 24.371094 40.847656 24.347656 C 40.613281 24.222656 40.476562 24.113281 40.28125 23.929688 C 38.664062 22.480469 36.273438 21.894531 34.277344 22.167969 C 32.9375 22.382812 31.773438 22.878906 30.570312 23.585938 C 30.449219 23.65625 30.332031 23.722656 30.210938 23.792969 C 30.210938 23.863281 30.210938 23.929688 30.210938 24 C 30.113281 24.0625 30.015625 24.125 29.917969 24.1875 C 29.679688 24.339844 29.503906 24.496094 29.320312 24.722656 C 29.257812 24.722656 29.199219 24.722656 29.140625 24.722656 C 29.09375 24.878906 29.09375 24.878906 29.050781 25.035156 C 28.914062 25.175781 28.914062 25.175781 28.738281 25.332031 C 27.164062 26.886719 26.347656 29.566406 26.171875 31.878906 C 26.015625 34.777344 26.886719 37.28125 28.425781 39.515625 C 28.460938 39.578125 28.5 39.636719 28.539062 39.699219 C 29.75 41.492188 31.882812 42.609375 33.773438 42.980469 C 34.015625 43.011719 34.257812 43.027344 34.503906 43.035156 C 34.558594 43.035156 34.617188 43.039062 34.675781 43.039062 C 35.644531 43.074219 36.601562 43.039062 37.542969 42.710938 C 37.796875 42.625 37.992188 42.601562 38.257812 42.621094 C 38.285156 42.550781 38.316406 42.484375 38.347656 42.414062 C 38.5 42.335938 38.65625 42.261719 38.816406 42.195312 C 39.53125 41.859375 40.316406 41.421875 40.847656 40.757812 C 40.953125 40.648438 41.058594 40.539062 41.167969 40.429688 C 41.222656 40.375 41.273438 40.320312 41.328125 40.261719 C 41.476562 40.136719 41.476562 40.136719 41.652344 40.136719 C 41.671875 40.082031 41.691406 40.027344 41.710938 39.96875 C 41.910156 39.566406 42.144531 39.175781 42.546875 39.046875 C 42.886719 39.019531 43.078125 39.097656 43.359375 39.308594 C 43.558594 39.671875 43.574219 39.835938 43.503906 40.25 C 43.402344 40.566406 43.210938 40.746094 42.996094 40.964844 C 42.957031 41.046875 42.917969 41.132812 42.878906 41.21875 C 42.609375 41.6875 42.203125 42.03125 41.742188 42.207031 C 41.714844 42.308594 41.683594 42.410156 41.652344 42.515625 C 41.457031 42.683594 41.457031 42.683594 41.210938 42.847656 C 41.132812 42.902344 41.050781 42.957031 40.96875 43.011719 C 40.761719 43.136719 40.761719 43.136719 40.582031 43.136719 C 40.582031 43.207031 40.582031 43.273438 40.582031 43.34375 C 40.3125 43.488281 40.046875 43.625 39.777344 43.757812 C 39.722656 43.785156 39.667969 43.8125 39.609375 43.84375 C 37.007812 45.132812 34.378906 45.226562 31.675781 44.273438 C 31.464844 44.171875 31.464844 44.171875 31.375 43.964844 C 31.296875 43.953125 31.222656 43.941406 31.144531 43.925781 C 30.761719 43.847656 30.488281 43.671875 30.15625 43.449219 C 30.09375 43.40625 30.03125 43.367188 29.96875 43.324219 C 29.386719 42.933594 28.859375 42.484375 28.335938 42 C 28.257812 41.929688 28.179688 41.863281 28.101562 41.792969 C 27.898438 41.597656 27.734375 41.398438 27.5625 41.164062 C 27.421875 40.972656 27.28125 40.78125 27.125 40.601562 C 26.984375 40.4375 26.871094 40.265625 26.753906 40.078125 C 26.714844 40.019531 26.675781 39.957031 26.636719 39.890625 C 26.546875 39.722656 26.546875 39.722656 26.546875 39.515625 C 26.460938 39.484375 26.371094 39.449219 26.28125 39.414062 C 26.28125 39.3125 26.28125 39.207031 26.28125 39.101562 C 26.21875 39.101562 26.160156 39.101562 26.101562 39.101562 C 25.6875 38.121094 25.320312 37.144531 25.027344 36.101562 C 25 36.011719 24.976562 35.917969 24.949219 35.820312 C 24.128906 32.703125 24.660156 29.339844 25.960938 26.515625 C 26.214844 26 26.488281 25.488281 26.816406 25.035156 C 26.875 25.035156 26.933594 25.035156 26.996094 25.035156 C 27 24.976562 27.003906 24.917969 27.011719 24.859375 C 27.113281 24.515625 27.296875 24.339844 27.53125 24.101562 C 27.621094 24.070312 27.707031 24.035156 27.800781 24 C 27.84375 23.847656 27.84375 23.847656 27.886719 23.691406 C 27.945312 23.691406 28.007812 23.691406 28.066406 23.691406 C 28.085938 23.628906 28.109375 23.570312 28.128906 23.507812 C 28.277344 23.210938 28.449219 23.054688 28.691406 22.863281 C 28.78125 22.863281 28.871094 22.863281 28.960938 22.863281 C 29.003906 22.707031 29.003906 22.707031 29.050781 22.550781 C 29.671875 21.902344 30.523438 21.570312 31.285156 21.207031 C 31.375 21.164062 31.460938 21.121094 31.554688 21.078125 C 32.789062 20.488281 34.003906 20.359375 35.324219 20.351562 C 35.46875 20.351562 35.46875 20.351562 35.617188 20.351562 C 37.144531 20.355469 37.144531 20.355469 37.71875 20.691406 C 37.71875 20.011719 37.710938 19.335938 37.703125 18.65625 C 37.699219 18.425781 37.699219 18.199219 37.695312 17.96875 C 37.695312 17.636719 37.691406 17.304688 37.6875 16.972656 C 37.6875 16.820312 37.6875 16.820312 37.683594 16.664062 C 37.675781 16.035156 37.601562 15.515625 37.273438 15 C 37.101562 14.835938 36.929688 14.71875 36.738281 14.585938 C 36.738281 14.519531 36.738281 14.449219 36.738281 14.378906 C 36.09375 14.261719 35.457031 14.261719 34.804688 14.261719 C 34.683594 14.261719 34.5625 14.261719 34.441406 14.261719 C 34.179688 14.257812 33.917969 14.257812 33.65625 14.257812 C 33.242188 14.257812 32.832031 14.257812 32.417969 14.253906 C 32.277344 14.253906 32.132812 14.253906 31.992188 14.253906 C 31.921875 14.25 31.851562 14.25 31.777344 14.25 C 30.816406 14.246094 29.855469 14.242188 28.894531 14.242188 C 28.246094 14.242188 27.59375 14.238281 26.945312 14.234375 C 26.601562 14.234375 26.257812 14.230469 25.914062 14.230469 C 25.59375 14.234375 25.269531 14.230469 24.945312 14.226562 C 24.773438 14.226562 24.597656 14.226562 24.421875 14.230469 C 24.265625 14.226562 24.265625 14.226562 24.109375 14.226562 C 24.015625 14.226562 23.925781 14.226562 23.832031 14.226562 C 23.535156 14.15625 23.429688 14.03125 23.238281 13.757812 C 23.144531 13.410156 23.140625 13.171875 23.238281 12.828125 C 23.300781 12.828125 23.359375 12.828125 23.417969 12.828125 C 23.417969 12.757812 23.417969 12.691406 23.417969 12.621094 C 23.660156 12.480469 23.84375 12.503906 24.113281 12.503906 Z M 24.113281 12.503906 "/>
<path style=" stroke:none;fill-rule:nonzero;fill:rgb(3.921569%,3.921569%,3.921569%);fill-opacity:1;" d="M 14.496094 12.457031 C 14.679688 12.457031 14.863281 12.457031 15.050781 12.457031 C 15.433594 12.457031 15.816406 12.457031 16.203125 12.457031 C 16.695312 12.460938 17.1875 12.457031 17.679688 12.453125 C 18.0625 12.449219 18.441406 12.453125 18.820312 12.453125 C 19.003906 12.453125 19.183594 12.453125 19.367188 12.449219 C 19.621094 12.449219 19.875 12.449219 20.125 12.453125 C 20.238281 12.449219 20.238281 12.449219 20.355469 12.449219 C 20.710938 12.453125 20.878906 12.476562 21.140625 12.761719 C 21.304688 13.101562 21.335938 13.273438 21.273438 13.65625 C 21.027344 14.027344 20.898438 14.160156 20.492188 14.238281 C 20.363281 14.238281 20.230469 14.238281 20.097656 14.234375 C 20.027344 14.234375 19.957031 14.238281 19.882812 14.238281 C 19.644531 14.238281 19.40625 14.238281 19.167969 14.234375 C 19.003906 14.234375 18.835938 14.234375 18.671875 14.238281 C 18.234375 14.238281 17.800781 14.238281 17.363281 14.238281 C 16.664062 14.234375 15.96875 14.238281 15.269531 14.242188 C 15.027344 14.242188 14.785156 14.238281 14.542969 14.238281 C 14.390625 14.238281 14.242188 14.238281 14.09375 14.238281 C 13.992188 14.238281 13.992188 14.238281 13.890625 14.238281 C 13.292969 14.242188 12.734375 14.378906 12.261719 14.820312 C 11.847656 15.421875 11.65625 15.859375 11.667969 16.632812 C 11.664062 16.75 11.664062 16.75 11.664062 16.867188 C 11.664062 17.125 11.667969 17.382812 11.667969 17.644531 C 11.667969 17.828125 11.667969 18.015625 11.667969 18.203125 C 11.667969 18.601562 11.667969 19.003906 11.667969 19.402344 C 11.671875 20.039062 11.671875 20.671875 11.667969 21.308594 C 11.667969 22.882812 11.667969 24.460938 11.671875 26.035156 C 11.671875 27.261719 11.675781 28.484375 11.671875 29.710938 C 11.671875 30.339844 11.671875 30.96875 11.675781 31.597656 C 11.675781 31.992188 11.675781 32.386719 11.671875 32.777344 C 11.671875 32.960938 11.675781 33.140625 11.675781 33.320312 C 11.683594 34.46875 11.574219 35.347656 11.171875 36.414062 C 11.113281 36.585938 11.054688 36.757812 10.996094 36.929688 C 11.09375 36.929688 11.09375 36.929688 11.195312 36.929688 C 12.8125 36.921875 14.429688 36.914062 16.046875 36.910156 C 16.828125 36.90625 17.609375 36.90625 18.390625 36.898438 C 19.070312 36.894531 19.753906 36.894531 20.433594 36.890625 C 20.796875 36.890625 21.15625 36.890625 21.515625 36.886719 C 21.855469 36.882812 22.195312 36.882812 22.535156 36.882812 C 22.660156 36.882812 22.785156 36.882812 22.910156 36.882812 C 23.078125 36.878906 23.25 36.878906 23.421875 36.882812 C 23.5625 36.878906 23.5625 36.878906 23.707031 36.878906 C 24.015625 36.945312 24.121094 37.066406 24.3125 37.34375 C 24.359375 37.550781 24.359375 37.550781 24.359375 37.757812 C 24.359375 37.859375 24.359375 37.859375 24.359375 37.964844 C 24.289062 38.277344 24.171875 38.390625 23.957031 38.585938 C 23.714844 38.628906 23.507812 38.644531 23.265625 38.640625 C 23.199219 38.640625 23.128906 38.640625 23.054688 38.640625 C 22.824219 38.644531 22.589844 38.640625 22.355469 38.640625 C 22.1875 38.640625 22.019531 38.644531 21.851562 38.644531 C 21.398438 38.644531 20.941406 38.644531 20.484375 38.644531 C 20.105469 38.644531 19.726562 38.644531 19.34375 38.644531 C 18.445312 38.648438 17.546875 38.648438 16.648438 38.644531 C 15.722656 38.644531 14.800781 38.644531 13.875 38.648438 C 13.078125 38.652344 12.285156 38.652344 11.488281 38.652344 C 11.015625 38.652344 10.539062 38.652344 10.066406 38.652344 C 9.617188 38.65625 9.171875 38.65625 8.722656 38.652344 C 8.5625 38.652344 8.398438 38.652344 8.234375 38.652344 C 7.332031 38.660156 6.605469 38.632812 5.808594 38.070312 C 5.71875 38.003906 5.625 37.9375 5.527344 37.871094 C 5.425781 37.785156 5.425781 37.785156 5.320312 37.695312 C 5.210938 37.605469 5.210938 37.605469 5.101562 37.515625 C 4.78125 37.222656 4.78125 37.222656 4.648438 37.035156 C 4.648438 36.933594 4.648438 36.828125 4.648438 36.722656 C 4.558594 36.691406 4.472656 36.65625 4.378906 36.621094 C 4.257812 36.332031 4.257812 36.332031 4.144531 35.96875 C 4.105469 35.847656 4.070312 35.730469 4.03125 35.605469 C 3.886719 35.121094 3.832031 34.734375 3.828125 34.21875 C 3.828125 34.085938 3.828125 33.953125 3.828125 33.820312 C 3.828125 33.671875 3.828125 33.527344 3.828125 33.378906 C 3.824219 33.226562 3.824219 33.070312 3.824219 32.917969 C 3.820312 32.410156 3.820312 31.90625 3.820312 31.398438 C 3.820312 31.226562 3.816406 31.050781 3.816406 30.878906 C 3.816406 30.152344 3.8125 29.429688 3.8125 28.703125 C 3.8125 27.667969 3.808594 26.628906 3.804688 25.589844 C 3.800781 24.859375 3.796875 24.128906 3.796875 23.398438 C 3.796875 22.964844 3.796875 22.527344 3.792969 22.09375 C 3.789062 21.683594 3.789062 21.273438 3.792969 20.863281 C 3.792969 20.710938 3.789062 20.5625 3.789062 20.410156 C 3.785156 20.207031 3.789062 20 3.789062 19.792969 C 3.789062 19.679688 3.789062 19.5625 3.789062 19.445312 C 3.863281 19.035156 4.007812 18.878906 4.289062 18.621094 C 4.632812 18.578125 4.859375 18.597656 5.183594 18.722656 C 5.386719 19.0625 5.386719 19.363281 5.386719 19.765625 C 5.386719 19.894531 5.386719 20.023438 5.386719 20.15625 C 5.386719 20.300781 5.386719 20.441406 5.386719 20.585938 C 5.386719 20.734375 5.386719 20.886719 5.390625 21.035156 C 5.390625 21.359375 5.390625 21.683594 5.390625 22.007812 C 5.390625 22.519531 5.390625 23.03125 5.394531 23.546875 C 5.398438 24.820312 5.402344 26.09375 5.402344 27.367188 C 5.40625 28.355469 5.40625 29.34375 5.410156 30.335938 C 5.414062 30.84375 5.414062 31.351562 5.414062 31.859375 C 5.414062 32.179688 5.414062 32.496094 5.414062 32.8125 C 5.417969 32.960938 5.417969 33.105469 5.417969 33.253906 C 5.414062 34.242188 5.421875 35.191406 6.035156 35.949219 C 6.085938 36.015625 6.136719 36.082031 6.191406 36.152344 C 6.347656 36.335938 6.347656 36.335938 6.613281 36.414062 C 6.613281 36.480469 6.613281 36.550781 6.613281 36.621094 C 7.320312 36.796875 8.050781 36.765625 8.761719 36.621094 C 8.761719 36.550781 8.761719 36.484375 8.761719 36.414062 C 8.867188 36.371094 8.867188 36.371094 8.976562 36.328125 C 9.054688 36.289062 9.128906 36.25 9.207031 36.207031 C 9.234375 36.105469 9.265625 36.003906 9.296875 35.898438 C 9.355469 35.898438 9.414062 35.898438 9.476562 35.898438 C 9.503906 35.828125 9.535156 35.761719 9.5625 35.691406 C 9.652344 35.546875 9.652344 35.546875 9.742188 35.398438 C 10.027344 34.871094 10.023438 34.40625 10.023438 33.792969 C 10.023438 33.714844 10.023438 33.640625 10.023438 33.5625 C 10.023438 33.308594 10.023438 33.058594 10.023438 32.804688 C 10.023438 32.625 10.023438 32.441406 10.023438 32.261719 C 10.027344 31.871094 10.027344 31.480469 10.027344 31.089844 C 10.027344 30.472656 10.027344 29.851562 10.03125 29.234375 C 10.03125 29.023438 10.03125 28.8125 10.03125 28.597656 C 10.03125 28.492188 10.03125 28.386719 10.03125 28.277344 C 10.035156 26.839844 10.039062 25.398438 10.039062 23.960938 C 10.042969 22.988281 10.042969 22.015625 10.046875 21.046875 C 10.046875 20.53125 10.050781 20.019531 10.050781 19.507812 C 10.046875 19.023438 10.050781 18.539062 10.050781 18.054688 C 10.054688 17.878906 10.054688 17.703125 10.050781 17.523438 C 10.046875 16.050781 10.175781 14.78125 11.082031 13.65625 C 11.128906 13.59375 11.175781 13.535156 11.226562 13.476562 C 11.351562 13.34375 11.351562 13.34375 11.53125 13.34375 C 11.554688 13.28125 11.574219 13.21875 11.597656 13.152344 C 11.773438 12.804688 11.976562 12.734375 12.292969 12.597656 C 13.011719 12.410156 13.761719 12.457031 14.496094 12.457031 Z M 14.496094 12.457031 "/>
<path style=" stroke:none;fill-rule:nonzero;fill:rgb(4.313726%, .313726%,4.313726%);fill-opacity:1;" d="M 7.074219 3.066406 C 7.179688 3.0625 7.179688 3.0625 7.285156 3.0625 C 7.515625 3.0625 7.742188 3.0625 7.972656 3.066406 C 8.132812 3.066406 8.292969 3.066406 8.453125 3.066406 C 8.789062 3.066406 9.121094 3.066406 9.457031 3.070312 C 9.886719 3.070312 10.3125 3.070312 10.742188 3.070312 C 11.074219 3.070312 11.402344 3.070312 11.734375 3.070312 C 11.890625 3.070312 12.050781 3.070312 12.207031 3.070312 C 12.429688 3.070312 12.648438 3.074219 12.871094 3.074219 C 12.9375 3.074219 13 3.074219 13.066406 3.074219 C 13.453125 3.078125 13.765625 3.148438 14.121094 3.308594 C 14.121094 3.378906 14.121094 3.445312 14.121094 3.515625 C 14.171875 3.523438 14.222656 3.53125 14.273438 3.539062 C 14.5625 3.652344 14.730469 3.847656 14.960938 4.078125 C 15.425781 4.542969 15.90625 4.957031 16.414062 5.355469 C 16.546875 5.460938 16.675781 5.574219 16.804688 5.691406 C 16.804688 5.757812 16.804688 5.828125 16.804688 5.898438 C 16.859375 5.925781 16.910156 5.957031 16.964844 5.988281 C 17.160156 6.101562 17.160156 6.101562 17.429688 6.308594 C 17.429688 6.378906 17.429688 6.445312 17.429688 6.515625 C 18.214844 6.882812 18.984375 6.871094 19.816406 6.867188 C 19.964844 6.867188 20.113281 6.867188 20.265625 6.867188 C 20.585938 6.871094 20.90625 6.871094 21.226562 6.871094 C 21.730469 6.871094 22.238281 6.871094 22.746094 6.871094 C 23.914062 6.878906 25.078125 6.878906 26.246094 6.878906 C 27.316406 6.878906 28.386719 6.882812 29.457031 6.886719 C 29.960938 6.886719 30.464844 6.890625 30.96875 6.886719 C 31.28125 6.886719 31.59375 6.890625 31.90625 6.890625 C 32.054688 6.890625 32.199219 6.890625 32.34375 6.890625 C 33.4375 6.886719 34.292969 6.980469 35.128906 7.863281 C 35.746094 8.59375 36.140625 9.265625 36.234375 10.304688 C 36.195312 10.734375 36.132812 10.898438 35.84375 11.171875 C 35.5 11.265625 35.230469 11.242188 34.925781 11.03125 C 34.734375 10.695312 34.625 10.351562 34.503906 9.972656 C 34.394531 9.671875 34.242188 9.449219 34.054688 9.207031 C 34.054688 9.136719 34.054688 9.070312 34.054688 9 C 33.980469 8.980469 33.980469 8.980469 33.90625 8.960938 C 33.699219 8.898438 33.699219 8.898438 33.503906 8.789062 C 33.191406 8.664062 32.933594 8.664062 32.601562 8.660156 C 32.539062 8.660156 32.476562 8.660156 32.410156 8.660156 C 32.195312 8.660156 31.980469 8.660156 31.761719 8.660156 C 31.609375 8.65625 31.453125 8.65625 31.300781 8.65625 C 30.96875 8.652344 30.636719 8.652344 30.304688 8.652344 C 29.777344 8.652344 29.253906 8.648438 28.730469 8.644531 C 27.898438 8.640625 27.066406 8.636719 26.238281 8.632812 C 24.75 8.628906 23.261719 8.621094 21.777344 8.617188 C 21.253906 8.613281 20.730469 8.609375 20.210938 8.609375 C 19.886719 8.609375 19.558594 8.605469 19.234375 8.605469 C 19.085938 8.605469 18.933594 8.605469 18.785156 8.605469 C 18.578125 8.601562 18.375 8.601562 18.167969 8.601562 C 17.996094 8.601562 17.996094 8.601562 17.820312 8.601562 C 17.226562 8.574219 17.035156 8.460938 16.625 7.964844 C 16.359375 7.726562 16.078125 7.511719 15.796875 7.292969 C 15.652344 7.175781 15.511719 7.054688 15.375 6.929688 C 15.375 6.863281 15.375 6.792969 15.375 6.722656 C 15.285156 6.691406 15.199219 6.65625 15.105469 6.621094 C 15.105469 6.550781 15.105469 6.484375 15.105469 6.414062 C 15.039062 6.386719 14.976562 6.363281 14.90625 6.335938 C 14.640625 6.195312 14.476562 6.039062 14.261719 5.804688 C 13.648438 5.15625 13.238281 4.851562 12.390625 4.84375 C 12.277344 4.84375 12.160156 4.84375 12.042969 4.84375 C 11.914062 4.84375 11.789062 4.839844 11.664062 4.839844 C 11.601562 4.839844 11.535156 4.839844 11.46875 4.839844 C 11.132812 4.839844 10.796875 4.835938 10.457031 4.835938 C 10.109375 4.835938 9.761719 4.835938 9.417969 4.832031 C 9.148438 4.828125 8.878906 4.828125 8.613281 4.828125 C 8.484375 4.828125 8.355469 4.828125 8.226562 4.824219 C 7.03125 4.804688 7.03125 4.804688 6 5.417969 C 5.511719 6.113281 5.4375 6.625 5.441406 7.503906 C 5.441406 7.59375 5.441406 7.683594 5.441406 7.773438 C 5.441406 7.96875 5.441406 8.160156 5.441406 8.355469 C 5.441406 8.765625 5.4375 9.175781 5.4375 9.585938 C 5.433594 10.347656 5.429688 11.113281 5.429688 11.878906 C 5.429688 12.410156 5.429688 12.941406 5.425781 13.472656 C 5.421875 13.675781 5.421875 13.878906 5.425781 14.082031 C 5.425781 14.363281 5.421875 14.648438 5.421875 14.929688 C 5.421875 15.015625 5.421875 15.097656 5.421875 15.183594 C 5.417969 15.617188 5.390625 15.785156 5.15625 16.140625 C 4.847656 16.402344 4.667969 16.394531 4.289062 16.34375 C 4.023438 16.242188 4.023438 16.242188 3.84375 15.929688 C 3.824219 15.625 3.816406 15.328125 3.816406 15.019531 C 3.816406 14.925781 3.816406 14.832031 3.816406 14.738281 C 3.8125 14.429688 3.8125 14.117188 3.8125 13.808594 C 3.8125 13.59375 3.8125 13.378906 3.8125 13.164062 C 3.8125 12.714844 3.808594 12.261719 3.808594 11.808594 C 3.808594 11.234375 3.808594 10.65625 3.804688 10.078125 C 3.804688 9.632812 3.800781 9.191406 3.800781 8.746094 C 3.800781 8.53125 3.800781 8.320312 3.800781 8.109375 C 3.789062 5.984375 3.789062 5.984375 4.199219 5.171875 C 4.269531 5.023438 4.269531 5.023438 4.339844 4.871094 C 4.988281 3.773438 5.90625 3.050781 7.074219 3.066406 Z M 7.074219 3.066406 "/>
<path style=" stroke:none;fill-rule:nonzero;fill:rgb(5.882353%,5.882353%,5.882353%);fill-opacity:1;" d="M 37.09375 25.242188 C 37.140625 25.394531 37.140625 25.394531 37.183594 25.550781 C 37.234375 25.566406 37.289062 25.578125 37.339844 25.589844 C 37.746094 25.722656 37.957031 26.117188 38.179688 26.507812 C 38.238281 26.636719 38.292969 26.765625 38.347656 26.898438 C 38.371094 26.957031 38.394531 27.015625 38.421875 27.074219 C 38.699219 27.886719 38.644531 28.738281 38.632812 29.59375 C 38.628906 29.753906 38.628906 29.914062 38.628906 30.074219 C 38.625 30.460938 38.621094 30.851562 38.613281 31.242188 C 38.726562 31.253906 38.839844 31.265625 38.953125 31.277344 C 39.386719 31.328125 39.570312 31.492188 39.867188 31.863281 C 40.019531 32.292969 40.066406 32.660156 40.070312 33.121094 C 40.070312 33.246094 40.074219 33.367188 40.074219 33.496094 C 40.074219 33.628906 40.074219 33.761719 40.074219 33.898438 C 40.074219 34.039062 40.074219 34.175781 40.078125 34.316406 C 40.078125 34.605469 40.078125 34.894531 40.078125 35.1875 C 40.078125 35.554688 40.082031 35.925781 40.082031 36.296875 C 40.085938 36.585938 40.085938 36.871094 40.085938 37.15625 C 40.085938 37.359375 40.085938 37.5625 40.089844 37.765625 C 40.085938 38.964844 40.085938 38.964844 39.6875 39.515625 C 39.203125 39.941406 38.808594 39.992188 38.214844 39.992188 C 38.132812 39.996094 38.050781 39.996094 37.964844 40 C 37.699219 40.003906 37.433594 40.007812 37.167969 40.007812 C 36.984375 40.011719 36.800781 40.015625 36.613281 40.015625 C 36.148438 40.023438 35.683594 40.027344 35.21875 40.03125 C 34.960938 40.035156 34.707031 40.039062 34.453125 40.039062 C 34.078125 40.046875 33.703125 40.050781 33.328125 40.050781 C 33.191406 40.054688 33.054688 40.054688 32.917969 40.054688 C 32.730469 40.058594 32.542969 40.058594 32.351562 40.058594 C 32.246094 40.058594 32.140625 40.058594 32.03125 40.058594 C 31.484375 40.015625 31.054688 39.871094 30.660156 39.414062 C 30.4375 38.972656 30.355469 38.652344 30.355469 38.144531 C 30.355469 38.015625 30.355469 37.890625 30.355469 37.761719 C 30.355469 37.625 30.355469 37.492188 30.355469 37.351562 C 30.355469 37.210938 30.355469 37.070312 30.355469 36.925781 C 30.355469 36.632812 30.355469 36.335938 30.355469 36.039062 C 30.359375 35.664062 30.355469 35.285156 30.355469 34.90625 C 30.355469 34.613281 30.355469 34.324219 30.355469 34.03125 C 30.355469 33.824219 30.355469 33.617188 30.355469 33.410156 C 30.355469 33.285156 30.355469 33.160156 30.355469 33.027344 C 30.355469 32.863281 30.355469 32.863281 30.355469 32.691406 C 30.402344 32.257812 30.550781 31.921875 30.78125 31.578125 C 31.113281 31.28125 31.410156 31.230469 31.820312 31.242188 C 31.820312 31.144531 31.816406 31.046875 31.8125 30.949219 C 31.804688 30.585938 31.800781 30.222656 31.796875 29.855469 C 31.792969 29.699219 31.792969 29.542969 31.789062 29.386719 C 31.757812 28.097656 31.875 26.996094 32.613281 25.960938 C 32.925781 25.589844 33.207031 25.359375 33.609375 25.136719 C 33.707031 25.082031 33.707031 25.082031 33.808594 25.027344 C 34.898438 24.429688 36.046875 24.527344 37.09375 25.242188 Z M 33.714844 27.324219 C 33.664062 27.394531 33.609375 27.464844 33.558594 27.539062 C 33.304688 27.910156 33.332031 28.183594 33.332031 28.652344 C 33.332031 28.78125 33.332031 28.914062 33.332031 29.046875 C 33.332031 29.210938 33.335938 29.375 33.335938 29.546875 C 33.335938 30.074219 33.339844 30.597656 33.339844 31.136719 C 34.578125 31.136719 35.820312 31.136719 37.09375 31.136719 C 37.109375 30.628906 37.121094 30.121094 37.132812 29.597656 C 37.140625 29.441406 37.144531 29.28125 37.152344 29.121094 C 37.160156 28.3125 37.105469 27.742188 36.640625 27.09375 C 36.308594 26.707031 36.078125 26.507812 35.605469 26.429688 C 35.4375 26.429688 35.4375 26.429688 35.261719 26.429688 C 35.148438 26.429688 35.035156 26.429688 34.917969 26.429688 C 34.382812 26.519531 34.054688 26.855469 33.714844 27.324219 Z M 31.910156 32.898438 C 31.835938 33.242188 31.8125 33.460938 31.820312 33.804688 C 31.820312 33.902344 31.824219 34 31.824219 34.097656 C 31.828125 34.203125 31.828125 34.308594 31.832031 34.414062 C 31.835938 34.523438 31.835938 34.628906 31.839844 34.738281 C 31.84375 35.082031 31.851562 35.425781 31.859375 35.765625 C 31.863281 36 31.871094 36.230469 31.875 36.464844 C 31.886719 37.035156 31.898438 37.601562 31.910156 38.171875 C 32.773438 38.175781 33.632812 38.175781 34.492188 38.179688 C 34.894531 38.179688 35.292969 38.179688 35.691406 38.179688 C 36.078125 38.179688 36.464844 38.183594 36.847656 38.183594 C 36.996094 38.183594 37.144531 38.183594 37.289062 38.183594 C 37.496094 38.183594 37.703125 38.183594 37.90625 38.183594 C 38.023438 38.183594 38.140625 38.183594 38.261719 38.183594 C 38.515625 38.207031 38.515625 38.207031 38.613281 38.070312 C 38.625 37.808594 38.628906 37.554688 38.625 37.296875 C 38.625 37.175781 38.625 37.175781 38.625 37.054688 C 38.625 36.886719 38.625 36.71875 38.625 36.550781 C 38.625 36.296875 38.625 36.042969 38.625 35.789062 C 38.625 35.625 38.625 35.460938 38.625 35.296875 C 38.625 35.1875 38.625 35.1875 38.625 35.074219 C 38.625 34.339844 38.570312 33.632812 38.523438 32.898438 C 36.34375 32.898438 34.160156 32.898438 31.910156 32.898438 Z M 31.910156 32.898438 "/>
<path style=" stroke:none;fill-rule:nonzero;fill:rgb(4.705882%,4.705882%,4.705882%);fill-opacity:1;" d="M 14.839844 30.722656 C 14.839844 30.792969 14.839844 30.859375 14.839844 30.929688 C 14.898438 30.929688 14.957031 30.929688 15.015625 30.929688 C 15.164062 31.273438 15.113281 31.652344 15.113281 32.03125 C 15.113281 32.113281 15.109375 32.195312 15.109375 32.28125 C 15.109375 32.488281 15.109375 32.691406 15.105469 32.898438 C 15.242188 32.894531 15.242188 32.894531 15.378906 32.890625 C 15.714844 32.882812 16.050781 32.878906 16.386719 32.875 C 16.53125 32.871094 16.675781 32.867188 16.820312 32.867188 C 17.027344 32.859375 17.238281 32.859375 17.445312 32.855469 C 17.511719 32.855469 17.574219 32.851562 17.640625 32.851562 C 17.953125 32.847656 18.113281 32.871094 18.363281 33.09375 C 18.515625 33.328125 18.550781 33.4375 18.546875 33.722656 C 18.546875 33.792969 18.550781 33.859375 18.550781 33.929688 C 18.476562 34.253906 18.382812 34.351562 18.144531 34.550781 C 17.832031 34.617188 17.519531 34.613281 17.203125 34.609375 C 17.066406 34.609375 17.066406 34.609375 16.925781 34.613281 C 16.730469 34.613281 16.539062 34.613281 16.34375 34.613281 C 16.046875 34.609375 15.75 34.613281 15.453125 34.617188 C 15.261719 34.617188 15.074219 34.617188 14.886719 34.617188 C 14.753906 34.617188 14.753906 34.617188 14.617188 34.621094 C 14.007812 34.613281 14.007812 34.613281 13.710938 34.328125 C 13.570312 33.992188 13.539062 33.765625 13.539062 33.390625 C 13.539062 33.269531 13.539062 33.148438 13.539062 33.019531 C 13.539062 32.894531 13.539062 32.769531 13.542969 32.636719 C 13.539062 32.511719 13.539062 32.386719 13.539062 32.253906 C 13.539062 32.132812 13.539062 32.011719 13.539062 31.882812 C 13.539062 31.773438 13.539062 31.664062 13.539062 31.546875 C 13.597656 31.171875 13.71875 30.996094 13.945312 30.722656 C 14.238281 30.554688 14.519531 30.671875 14.839844 30.722656 Z M 14.839844 30.722656 "/>
<path style=" stroke:none;fill-rule:nonzero;fill:rgb(11.372549%,11.372549%,11.372549%);fill-opacity:1;" d="M 35.730469 34.402344 C 36.042969 34.789062 36.023438 35.128906 36.019531 35.640625 C 36 36.042969 35.972656 36.335938 35.792969 36.683594 C 35.480469 36.890625 35.203125 36.925781 34.859375 36.828125 C 34.605469 36.605469 34.527344 36.535156 34.414062 36.207031 C 34.34375 35.589844 34.347656 35.011719 34.59375 34.449219 C 34.996094 34.183594 35.324219 34.136719 35.730469 34.402344 Z M 35.730469 34.402344 "/>
<path style=" stroke:none;fill-rule:nonzero;fill:rgb(8.627451%,8.627451%,8.627451%);fill-opacity:1;" d="M 20.917969 32.898438 C 21.210938 33.117188 21.210938 33.117188 21.363281 33.414062 C 21.417969 33.789062 21.382812 33.980469 21.25 34.324219 C 21.070312 34.589844 21.019531 34.605469 20.738281 34.65625 C 20.480469 34.65625 20.480469 34.65625 20.199219 34.636719 C 20.109375 34.628906 20.015625 34.625 19.921875 34.617188 C 19.609375 34.539062 19.5 34.429688 19.308594 34.136719 C 19.257812 33.929688 19.257812 33.929688 19.257812 33.722656 C 19.253906 33.65625 19.253906 33.585938 19.25 33.515625 C 19.476562 32.6875 20.320312 32.796875 20.917969 32.898438 Z M 20.917969 32.898438 "/>
<path style=" stroke:none;fill-rule:nonzero;fill:rgb(30.588236%,30.588236%,30.588236%);fill-opacity:1;" d="M 29.050781 22.550781 C 29.109375 22.585938 29.167969 22.621094 29.230469 22.65625 C 29.140625 22.722656 29.050781 22.792969 28.960938 22.863281 C 28.992188 22.757812 29.019531 22.65625 29.050781 22.550781 Z M 28.691406 22.863281 C 28.78125 22.894531 28.871094 22.929688 28.960938 22.964844 C 28.417969 23.613281 28.417969 23.613281 28.15625 23.792969 C 28.066406 23.757812 27.980469 23.726562 27.886719 23.691406 C 27.945312 23.691406 28.007812 23.691406 28.066406 23.691406 C 28.085938 23.628906 28.109375 23.570312 28.128906 23.507812 C 28.277344 23.210938 28.445312 23.050781 28.691406 22.863281 Z M 28.691406 22.863281 "/>
<path style=" stroke:none;fill-rule:nonzero;fill:rgb(30.588236%,30.588236%,30.588236%);fill-opacity:1;" d="M 33.339844 25.242188 C 33.398438 25.277344 33.457031 25.308594 33.519531 25.34375 C 33.253906 25.617188 32.988281 25.890625 32.714844 26.171875 C 32.65625 26.136719 32.597656 26.105469 32.535156 26.070312 C 32.800781 25.796875 33.066406 25.523438 33.339844 25.242188 Z M 33.339844 25.242188 "/>
<path style=" stroke:none;fill-rule:nonzero;fill:rgb(38.82353%,38.82353%,38.82353%);fill-opacity:1;" d="M 9.652344 35.585938 C 9.683594 35.6875 9.710938 35.792969 9.742188 35.898438 C 9.59375 36.066406 9.449219 36.238281 9.296875 36.414062 C 9.207031 36.378906 9.117188 36.34375 9.027344 36.308594 C 9.085938 36.277344 9.144531 36.242188 9.207031 36.207031 C 9.234375 36.105469 9.265625 36.003906 9.296875 35.898438 C 9.355469 35.898438 9.414062 35.898438 9.476562 35.898438 C 9.503906 35.828125 9.535156 35.761719 9.5625 35.691406 C 9.59375 35.65625 9.625 35.621094 9.652344 35.585938 Z M 9.652344 35.585938 "/>
</g>
</svg>
