<svg width="48" height="48" viewBox="0 0 48 48" fill="none" xmlns="http://www.w3.org/2000/svg">
<g clip-path="url(#clip0_57837_5472)">
<path d="M43.7568 10.8291H6.12481C4.67635 10.8291 3.77107 9.26113 4.4953 8.00673C4.83144 7.42455 5.45255 7.0659 6.12481 7.06593H38.112C39.5605 7.06588 40.4658 5.49783 39.7415 4.24346C39.4053 3.66133 38.7842 3.30273 38.112 3.30273H6.12481C3.00717 3.3026 0.480011 5.8299 0.480011 8.94753V39.0531C0.480011 42.1707 3.00727 44.6979 6.12481 44.6979H43.7568C45.8352 44.6979 47.52 43.0131 47.52 40.9347V14.5923C47.52 12.514 45.8351 10.8292 43.7568 10.8291ZM43.7568 40.9347H6.12481C5.08559 40.9348 4.24321 40.0924 4.24321 39.0531V14.2701C4.84737 14.4843 5.4838 14.5933 6.12481 14.5923H43.7568V40.9347ZM32.4672 26.8227C32.4672 24.65 34.8192 23.2921 36.7008 24.3785C38.5824 25.4648 38.5824 28.1807 36.7008 29.267C36.2718 29.5147 35.785 29.6451 35.2896 29.6451C33.7308 29.6452 32.4672 28.3816 32.4672 26.8227Z" fill="black"/>
</g>
<defs>
<clipPath id="clip0_57837_5472">
<rect width="48" height="48" fill="white"/>
</clipPath>
</defs>
</svg>
