<svg width="168" height="165" viewBox="0 0 168 165" fill="none" xmlns="http://www.w3.org/2000/svg">
<path d="M67.5 165.001C64.0625 165.001 60.6233 164.241 58.0056 162.721L7.62541 133.492C5.01097 131.973 3.57013 129.926 3.57013 127.727C3.57013 125.527 5.01097 123.48 7.62541 121.961L58.0023 92.7354C63.2394 89.6989 71.7575 89.6989 76.9945 92.7354L127.373 121.963C129.989 123.481 131.428 125.529 131.428 127.728C131.428 129.928 129.988 131.975 127.373 133.493L76.9961 162.721C74.3768 164.241 70.9376 165.001 67.5 165.001ZM67.4984 91.3334C64.2189 91.3334 60.9411 92.0574 58.444 93.5052L8.06717 122.731C5.73471 124.084 4.45191 125.858 4.45191 127.728C4.45191 129.599 5.73471 131.372 8.06717 132.725L58.4473 161.954C63.4366 164.85 71.5619 164.85 76.5528 161.954L126.93 132.727C129.262 131.374 130.545 129.6 130.545 127.73C130.545 125.859 129.262 124.086 126.93 122.733L76.5512 93.5052C74.0557 92.0574 70.7762 91.3334 67.4984 91.3334Z" fill="#4B6FFF"/>
<path opacity="0.4" d="M133 116.512V99.1768L129.842 97.4128C128.951 102.826 122.61 106.393 117.31 107.133L81.2112 128.345L65.4577 134.061L15.172 107.985L16.3342 107.31C12.036 105.293 9.72151 100.679 7.3972 96.4678L4.0118 98.4971L2.00043 99.0654V116.694C2.00043 118.941 3.47552 121.188 6.4241 122.899L56.8027 152.127C62.7014 155.548 72.2986 155.548 78.1973 152.127L128.576 122.901C131.477 121.217 132.951 119.014 132.998 116.805C133 116.707 132.995 116.608 132.991 116.509L133 116.512Z" fill="#0C184B"/>
<path d="M133 101.103V89.6328L129.842 87.8689C128.951 93.282 122.61 96.8492 117.31 97.5895L81.2112 118.801L65.4577 124.517L15.172 98.4412L16.3342 97.7664C12.036 95.7486 9.72151 91.1347 7.3972 86.9238L4.0118 88.9531L2.00043 89.5215V101.285C2.00043 103.532 3.47552 105.779 6.4241 107.49L56.8027 136.718C62.7014 140.139 72.2986 140.139 78.1973 136.718L128.576 107.492C131.477 105.808 132.951 103.607 132.998 101.396C133 101.298 132.995 101.199 132.991 101.099L133 101.103Z" fill="#0C184B"/>
<path opacity="0.3" d="M117.31 97.5898L81.2112 118.802L67.4984 123.777V139.286C71.3728 139.286 75.2472 138.431 78.1974 136.72L128.576 107.494C131.477 105.81 132.951 103.609 132.998 101.398C133 101.3 132.995 101.201 132.991 101.101L132.998 101.105V89.6348L130.113 88.0215H129.811C128.827 93.3478 122.56 96.8561 117.31 97.5898Z" fill="#0F054C"/>
<path d="M56.8027 125.067L6.42409 95.8391C0.525302 92.4176 0.525302 86.8489 6.42409 83.4257L56.8027 54.1999C62.7014 50.7784 72.2986 50.7784 78.1973 54.1999L128.576 83.4274C134.475 86.8489 134.475 92.4176 128.576 95.8391L78.1973 125.065C72.2986 128.488 62.7014 128.488 56.8027 125.067Z" fill="#F1F4FF"/>
<path d="M128.576 95.8391L78.1974 125.065C72.2986 128.486 62.7015 128.486 56.8027 125.065L6.42412 95.8374C3.78686 94.3077 2.33298 92.3488 2.05263 90.3457C1.70708 92.8254 3.16096 95.3739 6.42412 97.2673L56.8027 126.495C62.7015 129.916 72.2986 129.916 78.1974 126.495L128.576 97.2689C131.837 95.3756 133.293 92.827 132.946 90.349C132.665 92.3521 131.212 94.311 128.576 95.8391Z" fill="white"/>
<path opacity="0.5" d="M78.4442 113.157L28.4307 84.1428C24.8302 82.0545 25.2817 78.407 29.4397 75.9945C33.5961 73.5835 39.8844 73.3215 43.4833 75.4098L93.4967 104.424C97.0973 106.513 96.6458 110.16 92.4878 112.573C88.3314 114.984 82.0431 115.246 78.4442 113.157Z" fill="#0C184B"/>
<path d="M1.60449 24.9073L44.3165 0.255829C45.2716 -0.163933 46.4177 -0.0876127 47.7167 0.637431L145.137 56.8093V71.6917L132.224 64.2505L102.998 81.1173L1.60449 24.9073Z" fill="#0C124C"/>
<path d="M5.57778 24.9827L102.998 81.095V96.037L5.57778 39.8652C2.48326 38.1099 0 33.3017 0 29.1804C0 25.0591 2.52146 23.1892 5.57778 24.9446V24.9827Z" fill="#7F86A5"/>
<path d="M102.998 96.0382V81.0964L145.137 56.8477V71.7301L102.998 96.0382Z" fill="#0C124C"/>
<path fill-rule="evenodd" clip-rule="evenodd" d="M133.485 67.6471C135.281 66.6168 135.624 66.8073 136.464 67.3033C137.305 67.7994 165.723 84.2427 166.187 84.5133C166.684 84.7804 166.875 85.0474 167.372 85.6197L164.353 84.8951L142.161 96.566L141.575 96.9088L144.793 102.982C144.78 102.989 144.14 103.326 143.799 103.364C143.455 103.402 142.233 103.974 140.972 103.288C136.502 100.921 112.358 87.5274 111.135 86.8024C109.913 86.0774 109.875 85.8863 109.875 85.4283V82.6813C109.875 82.0327 109.798 81.4602 110.295 81.1549C110.324 81.1374 110.361 81.1236 110.403 81.1139L133.332 67.7614C133.355 67.7473 133.38 67.7347 133.404 67.7213C133.428 67.6889 133.455 67.6644 133.485 67.6471Z" fill="url(#paint0_linear_57585_9377)"/>
<path d="M167.945 87.5287C167.945 88.7498 167.295 89.8946 166.225 90.5052L144.831 102.984C142.539 104.319 139.635 102.64 139.635 100.007C139.635 98.786 140.285 97.6412 141.355 97.0306L162.749 84.5522C165.041 83.2166 167.945 84.8957 167.945 87.5287Z" fill="#D3D3D3"/>
<path d="M166.76 87.491C166.76 88.2161 166.378 88.903 165.729 89.2846L143.953 101.839C142.577 102.641 140.82 101.648 140.82 100.046C140.82 99.3207 141.202 98.6338 141.851 98.2522L163.628 85.6975C165.003 84.8961 166.76 85.8883 166.76 87.491Z" fill="#9394AA"/>
<defs>
<linearGradient id="paint0_linear_57585_9377" x1="128.308" y1="89.7576" x2="125.431" y2="94.9359" gradientUnits="userSpaceOnUse">
<stop stop-color="#F2F4FF"/>
<stop offset="1" stop-color="#B3B3B3"/>
</linearGradient>
</defs>
</svg>
