<svg width="131" height="210" viewBox="0 0 131 210" fill="none" xmlns="http://www.w3.org/2000/svg">
<path d="M65.5 210C62.0625 210 58.6232 209.24 56.0055 207.72L5.62539 178.491C3.01095 176.973 1.57011 174.925 1.57011 172.726C1.57011 170.526 3.01095 168.479 5.62539 166.96L56.0023 137.734C61.2393 134.698 69.7575 134.698 74.9945 137.734L125.373 166.962C127.989 168.48 129.428 170.528 129.428 172.727C129.428 174.927 127.988 176.974 125.373 178.492L74.9961 207.72C72.3768 209.24 68.9376 210 65.5 210ZM65.4984 136.332C62.2189 136.332 58.9411 137.056 56.444 138.504L6.06715 167.73C3.73469 169.083 2.45189 170.857 2.45189 172.727C2.45189 174.598 3.73469 176.371 6.06715 177.724L56.4473 206.953C61.4366 209.849 69.5619 209.849 74.5528 206.953L124.93 177.726C127.262 176.373 128.545 174.599 128.545 172.729C128.545 170.858 127.262 169.085 124.93 167.732L74.5512 138.504C72.0557 137.056 68.7762 136.332 65.4984 136.332Z" fill="#4B6FFF"/>
<path opacity="0.4" d="M131 161.513V144.178L127.842 142.414C126.951 147.827 120.61 151.394 115.31 152.134L79.2112 173.346L63.4577 179.062L13.1721 152.986L14.3342 152.311C10.0361 150.294 7.72153 145.68 5.39722 141.469L2.01182 143.498L0.000442505 144.066V161.695C0.000442505 163.942 1.47553 166.189 4.42411 167.9L54.8027 197.128C60.7015 200.549 70.2986 200.549 76.1974 197.128L126.576 167.902C129.477 166.218 130.951 164.015 130.998 161.806C131 161.708 130.995 161.609 130.991 161.51L131 161.513Z" fill="#0C184B"/>
<path d="M131 146.101V134.631L127.842 132.867C126.951 138.28 120.61 141.847 115.31 142.588L79.2112 163.799L63.4577 169.516L13.1721 143.439L14.3342 142.764C10.0361 140.747 7.72153 136.133 5.39722 131.922L2.01182 133.951L0.000442505 134.52V146.283C0.000442505 148.53 1.47553 150.777 4.42411 152.488L54.8027 181.716C60.7015 185.137 70.2986 185.137 76.1974 181.716L126.576 152.49C129.477 150.806 130.951 148.605 130.998 146.394C131 146.296 130.995 146.197 130.991 146.097L131 146.101Z" fill="#0C184B"/>
<path opacity="0.3" d="M115.31 142.588L79.2112 163.8L65.4984 168.776V184.284C69.3728 184.284 73.2472 183.429 76.1974 181.718L126.576 152.492C129.477 150.808 130.951 148.607 130.998 146.396C131 146.298 130.995 146.199 130.991 146.099L130.998 146.103V134.633L128.113 133.02H127.811C126.827 138.346 120.56 141.854 115.31 142.588Z" fill="#0F054C"/>
<path d="M54.8027 170.066L4.42409 140.838C-1.4747 137.417 -1.4747 131.848 4.42409 128.425L54.8027 99.1989C60.7014 95.7774 70.2986 95.7774 76.1973 99.1989L126.576 128.426C132.475 131.848 132.475 137.417 126.576 140.838L76.1973 170.064C70.2986 173.487 60.7014 173.487 54.8027 170.066Z" fill="#F1F4FF"/>
<path d="M126.576 140.837L76.1974 170.063C70.2986 173.484 60.7015 173.484 54.8027 170.063L4.42413 140.835C1.78687 139.306 0.332995 137.347 0.0526429 135.344C-0.292907 137.823 1.16097 140.372 4.42413 142.265L54.8027 171.493C60.7015 174.914 70.2986 174.914 76.1974 171.493L126.576 142.267C129.837 140.374 131.293 137.825 130.946 135.347C130.665 137.35 129.212 139.309 126.576 140.837Z" fill="white"/>
<path opacity="0.5" d="M79.4442 154.157L29.4307 125.143C25.8302 123.055 26.2817 119.407 30.4397 116.994C34.5961 114.584 40.8844 114.321 44.4833 116.41L94.4967 145.424C98.0973 147.513 97.6458 151.16 93.4878 153.573C89.3314 155.984 83.0431 156.246 79.4442 154.157Z" fill="#0C184B"/>
<path d="M27.9067 102.789L28.1445 19.0612C28.1445 17.6517 29.0808 16.2421 30.9237 15.1738C34.6392 13.0224 40.7177 13.0076 44.4629 15.1738L44.2251 98.9014C40.4799 96.7351 34.4014 96.75 30.6859 98.9014C28.8281 99.9697 27.9067 101.379 27.9067 102.789Z" fill="#7F86A5"/>
<path d="M105.813 50.5334L105.575 134.261L44.2251 98.9033L44.4629 15.1758L105.813 50.5334Z" fill="#7F86A5"/>
<path d="M111.372 47.2969L111.134 131.024L105.575 134.259L105.813 50.5314L111.372 47.2969Z" fill="#9398AC"/>
<path d="M50.0362 11.9405C43.1997 7.99378 32.0977 7.99378 25.3058 11.9405L30.9237 15.1751C34.6391 13.0237 40.7177 13.0088 44.4629 15.1751L105.798 50.5327L111.372 47.2981L50.0362 11.9405Z" fill="#9398AC"/>
<path d="M106.2 68.3521C106.066 68.3521 105.932 68.2779 105.858 68.1592C105.754 67.9663 105.813 67.7289 106.006 67.6251L108.072 66.4529C108.265 66.3491 108.503 66.4084 108.607 66.6013C108.711 66.7942 108.652 67.0316 108.459 67.1354L106.393 68.3076C106.393 68.3076 106.259 68.3669 106.2 68.3669V68.3521Z" fill="#F1F4FF"/>
<path d="M109.321 66.5709C109.187 66.5709 109.053 66.4967 108.979 66.378C108.875 66.1851 108.934 65.9477 109.127 65.8438L111.193 64.6717C111.386 64.5678 111.624 64.6272 111.728 64.82C111.832 65.0129 111.773 65.2503 111.58 65.3542L109.514 66.5263C109.514 66.5263 109.38 66.5857 109.321 66.5857V66.5709Z" fill="#F1F4FF"/>
<path d="M110.034 127.362C110.034 116.1 100.894 101.693 89.5988 95.1941C83.4311 91.6331 77.9024 91.2028 74.1572 93.3542L70.1891 95.6392C73.9343 93.5026 79.4481 93.9329 85.6307 97.4939C96.9109 103.993 106.066 118.4 106.066 129.661C106.066 134.765 104.178 138.326 101.072 140.122L105.04 137.837C108.147 136.027 110.034 132.466 110.034 127.362Z" fill="url(#paint0_linear_59292_30445)"/>
<path d="M106.066 129.66C106.066 140.922 96.9258 144.779 85.6307 138.28C74.3504 131.782 65.1954 117.375 65.1954 106.113C65.1954 94.8513 74.3356 90.9936 85.6307 97.4924C96.9109 103.991 106.066 118.398 106.066 129.66Z" fill="#F7F4EF"/>
<path d="M103.064 127.926C103.064 137.54 95.2613 140.834 85.6307 135.285C76.0001 129.736 68.1976 117.451 68.1976 107.836C68.1976 98.2213 76.0001 94.9274 85.6307 100.477C95.2613 106.026 103.064 118.311 103.064 127.926Z" fill="#F1F4FF"/>
<path d="M87.2061 134.378C77.5755 128.829 69.7729 116.544 69.7729 106.929C69.7729 102.968 71.1105 100.104 73.3547 98.457C70.1742 99.7776 68.1976 103.012 68.1976 107.834C68.1976 117.449 76.0001 129.734 85.6307 135.284C91.2931 138.548 96.3016 138.726 99.4821 136.396C96.3313 137.702 91.9916 137.138 87.2061 134.378Z" fill="#BDB9B0"/>
<path d="M76.4608 111.472L77.8876 110.641L82.2124 111.768L80.7857 112.599L76.4608 111.472Z" fill="white"/>
<path d="M85.6455 116.679L87.0723 115.848L87.0574 123.726L85.6158 124.557L85.6455 116.679Z" fill="#BDB9B0"/>
<path d="M94.1466 129.468L95.5733 128.637L93.8048 132.88L92.378 133.711L94.1466 129.468Z" fill="#BDB9B0"/>
<path d="M85.6158 124.557L87.0574 123.727L95.5734 128.638L94.1466 129.469L85.6158 124.557Z" fill="white"/>
<path d="M85.6455 113.858L87.0872 113.027L91.1296 114.214L89.7029 115.045L85.6455 113.858Z" fill="white"/>
<path d="M89.7029 115.046L91.1296 114.215V116.841L89.7029 117.672V115.046Z" fill="#BDB9B0"/>
<path d="M85.6753 105.104L87.102 104.273L87.0872 113.028L85.6455 113.858L85.6753 105.104Z" fill="#BDB9B0"/>
<path d="M80.8154 102.3L82.2421 101.484L87.102 104.274L85.6752 105.105L80.8154 102.3Z" fill="white"/>
<path d="M85.6158 124.557L94.1466 129.468L92.378 133.712L80.7411 127.02L80.7708 115.402L76.446 114.111L76.4608 111.47L80.7857 112.598L80.8154 102.301L85.6753 105.105L85.6455 113.859L89.7029 115.046V117.672L85.6455 116.678L85.6158 124.557Z" fill="#F7F4EF"/>
<path d="M117.97 57.6077C117.97 46.3461 108.83 31.939 97.5351 25.4402C91.3674 21.8792 85.8387 21.4489 82.0935 23.6003L78.1253 25.8853C81.8706 23.7487 87.3844 24.179 93.5669 27.74C104.847 34.2388 114.002 48.6459 114.002 59.9075C114.002 65.0116 112.115 68.5725 109.009 70.3679L112.977 68.0829C116.083 66.2727 117.97 62.7118 117.97 57.6077Z" fill="url(#paint1_linear_59292_30445)"/>
<path d="M114.002 59.906C114.002 71.1676 104.862 75.0253 93.567 68.5266C82.2867 62.0278 73.1317 47.6206 73.1317 36.359C73.1317 25.0974 82.2718 21.2397 93.567 27.7385C104.847 34.2373 114.002 48.6444 114.002 59.906Z" fill="#FED369"/>
<path d="M111 58.1875C111 67.8022 103.198 71.0961 93.567 65.5469C83.9364 59.9977 76.1339 47.7123 76.1339 38.0976C76.1339 28.483 83.9364 25.1891 93.567 30.7383C103.198 36.2875 111 48.5729 111 58.1875Z" fill="#EDB02C"/>
<path d="M95.1572 64.6245C85.5266 59.0753 77.7241 46.7899 77.7241 37.1753C77.7241 33.2137 79.0617 30.3501 81.3058 28.7031C78.1254 30.0237 76.1487 33.2582 76.1487 38.0804C76.1487 47.695 83.9513 59.9804 93.5818 65.5296C99.2443 68.7938 104.253 68.9719 107.433 66.6424C104.282 67.9481 99.9428 67.3843 95.1572 64.6245Z" fill="#C79425"/>
<path d="M93.1211 57.6232L94.0574 57.0742L94.0425 60.7391L93.1062 61.288L93.1211 57.6232Z" fill="#C79425"/>
<path d="M91.8133 48.8974L92.7496 48.3633L92.7347 53.0964L91.7984 53.6306L91.8133 48.8974Z" fill="#C79425"/>
<path d="M91.7984 53.6318L92.7347 53.0977L94.7857 54.2698L93.8345 54.8188L91.7984 53.6318Z" fill="#FFEDC3"/>
<path d="M96.8069 59.3427L97.7432 58.8086L97.7283 62.8592L96.792 63.4082L96.8069 59.3427Z" fill="#C79425"/>
<path d="M97.2379 54.8638L96.3016 55.4128C95.8111 55.6947 94.9937 55.487 93.8493 54.8341L94.7856 54.2852C95.93 54.9528 96.7623 55.1457 97.2379 54.8638Z" fill="#FFEDC3"/>
<path d="M91.8133 45.8263L92.7496 45.2773L94.4587 46.2566L93.5075 46.8056L91.8133 45.8263Z" fill="#FFEDC3"/>
<path d="M91.8281 41.674L92.7644 41.125L92.7496 45.2795L91.8133 45.8285L91.8281 41.674Z" fill="#C79425"/>
<path d="M96.5245 46.7178L95.5882 47.2668C95.1869 47.5042 94.5033 47.3706 93.5075 46.8068L94.4438 46.2578C95.4396 46.8365 96.1232 46.9552 96.5245 46.7178Z" fill="#FFEDC3"/>
<path d="M88.2315 36.3779L89.1678 35.8438L91.5903 37.2385L90.654 37.7875L88.2315 36.3779Z" fill="#FFEDC3"/>
<path d="M100.106 58.6611L99.1699 59.2101C99.913 58.7798 100.344 57.8747 100.359 56.3761C100.359 53.9279 99.1254 51.821 97.4905 50.3966L98.4268 49.8477C100.062 51.272 101.295 53.3641 101.295 55.8271C101.295 57.3109 100.849 58.2308 100.106 58.6611Z" fill="url(#paint2_linear_59292_30445)"/>
<path d="M93.1805 35.5138L94.1168 34.9648L94.102 38.689L93.1657 39.2232L93.1805 35.5138Z" fill="#C79425"/>
<path d="M93.1657 39.2256L94.102 38.6914L94.6519 39.003L93.7156 39.5371L93.1657 39.2256Z" fill="#FED369"/>
<path d="M93.7156 39.5373L94.6519 38.9883C94.86 39.107 95.068 39.2405 95.2761 39.3592L94.3398 39.9082C94.1317 39.7747 93.9236 39.656 93.7156 39.5373Z" fill="#FED369"/>
<path d="M90.6689 34.0615L91.6052 33.5273L94.1169 34.9666L93.1806 35.5156L90.6689 34.0615Z" fill="#FFEDC3"/>
<path d="M99.4226 49.5668L98.4863 50.1158C99.1997 49.7003 99.6009 48.6914 99.6158 47.5192C99.6158 45.2342 98.5309 43.3647 96.8663 41.8068L97.8026 41.2578C99.4672 42.8157 100.552 44.6853 100.552 46.9702C100.552 48.1424 100.136 49.1513 99.4226 49.5668Z" fill="url(#paint3_linear_59292_30445)"/>
<path d="M90.654 37.7844L88.2315 36.3896L88.1721 54.788L90.5946 56.1828V59.8476L93.0914 61.3017V57.6368L94.1169 58.2155C94.1763 58.2452 94.2209 58.2748 94.2803 58.3045V61.9694L96.7772 63.4234V59.3728C98.9024 59.8921 100.344 59.1057 100.344 56.3905C100.344 53.9423 99.1105 51.8354 97.4757 50.411V50.3071C98.7835 50.5 99.5861 49.1647 99.5861 47.5325C99.5861 45.2476 98.5011 43.3781 96.8366 41.8201V37.6657L94.3398 36.2116V39.9358C94.1169 39.8022 93.9088 39.6835 93.7007 39.5648L93.1508 39.2533V35.5439L90.6391 34.0898V37.7992L90.654 37.7844ZM96.0638 46.0933C96.0638 47.4138 95.291 47.8293 93.5224 46.8055L91.8281 45.8262V41.6718L93.567 42.6659C95.2612 43.6451 96.0786 44.6541 96.0786 46.0933H96.0638ZM93.8345 54.8177L91.7835 53.6307V48.8976L93.8493 50.0846C95.8408 51.2271 96.8217 52.4437 96.8217 54.0462C96.8217 55.7376 95.8111 55.9454 93.8493 54.8177H93.8345Z" fill="#FED369"/>
<path d="M94.3546 36.1974L95.291 35.6484L97.8026 37.1025L96.8663 37.6367L94.3546 36.1974Z" fill="#FFEDC3"/>
<path d="M96.8663 37.6357L97.8026 37.1016L97.7878 41.256L96.8515 41.805L96.8663 37.6357Z" fill="#C79425"/>
<path d="M106.348 104.123C106.348 92.8617 97.2081 78.4546 85.913 71.9558C79.7453 68.3948 74.2166 67.9645 70.4714 70.116L66.5033 72.4009C70.2485 70.2643 75.7623 70.6946 81.9449 74.2556C93.2251 80.7544 102.38 95.1615 102.38 106.423C102.38 111.527 100.493 115.088 97.3865 116.883L101.355 114.599C104.461 112.788 106.348 109.227 106.348 104.123Z" fill="url(#paint4_linear_59292_30445)"/>
<path d="M102.365 106.422C102.365 117.683 93.2251 121.541 81.93 115.042C70.6498 108.543 61.4948 94.1363 61.4948 82.8747C61.4948 71.6131 70.6349 67.7553 81.93 74.2541C93.2103 80.7529 102.365 95.16 102.365 106.422Z" fill="#FED369"/>
<path d="M99.378 104.703C99.378 114.318 91.5755 117.612 81.9449 112.063C72.3143 106.513 64.5118 94.2279 64.5118 84.6133C64.5118 74.9986 72.3143 71.7047 81.9449 77.2539C91.5755 82.8031 99.378 95.0885 99.378 104.703Z" fill="#EDB02C"/>
<path d="M83.5203 111.14C73.8897 105.591 66.0872 93.3056 66.0872 83.6909C66.0872 79.7293 67.4247 76.8657 69.6689 75.2188C66.4884 76.5393 64.5118 79.7738 64.5118 84.596C64.5118 94.2106 72.3143 106.496 81.9449 112.045C87.6073 115.309 92.6158 115.488 95.7963 113.158C92.6455 114.464 88.3058 113.9 83.5203 111.14Z" fill="#C79425"/>
<path d="M81.4842 104.139L82.4205 103.59V107.255L81.4842 107.804V104.139Z" fill="#C79425"/>
<path d="M80.1763 95.4131L81.1126 94.8789L81.0977 99.612L80.1614 100.146L80.1763 95.4131Z" fill="#C79425"/>
<path d="M80.1614 100.147L81.0977 99.6133L83.1487 100.785L82.2124 101.334L80.1614 100.147Z" fill="#FFEDC3"/>
<path d="M85.17 105.873L86.1063 105.324V109.375L85.17 109.924V105.873Z" fill="#C79425"/>
<path d="M85.6009 101.379L84.6646 101.928C84.1742 102.21 83.3568 102.003 82.2124 101.35L83.1487 100.801C84.2931 101.468 85.1254 101.661 85.6009 101.379Z" fill="#FFEDC3"/>
<path d="M80.1912 92.342L81.1275 91.793L82.8218 92.7722L81.8855 93.3212L80.1912 92.342Z" fill="#FFEDC3"/>
<path d="M80.1912 88.1896L81.1275 87.6406V91.7951L80.1912 92.3441V88.1896Z" fill="#C79425"/>
<path d="M84.9024 93.2334L83.9661 93.7824C83.5648 94.0198 82.8812 93.8862 81.8854 93.3224L82.8217 92.7734C83.8175 93.3521 84.5011 93.4708 84.9024 93.2334Z" fill="#FFEDC3"/>
<path d="M76.5946 82.8935L77.5309 82.3594L79.9682 83.7541L79.0319 84.3031L76.5946 82.8935Z" fill="#FFEDC3"/>
<path d="M88.4842 105.177L87.5479 105.726C88.291 105.295 88.722 104.39 88.7368 102.892C88.7368 100.444 87.5033 98.3367 85.8685 96.9123L86.8048 96.3633C88.4396 97.7877 89.6731 99.8797 89.6731 102.343C89.6731 103.827 89.2273 104.746 88.4842 105.177Z" fill="url(#paint5_linear_59292_30445)"/>
<path d="M81.5436 82.0295L82.4948 81.4805L82.4799 85.2047L81.5436 85.7388V82.0295Z" fill="#C79425"/>
<path d="M81.5436 85.7412L82.4799 85.207L83.0149 85.5186L82.0786 86.0528L81.5436 85.7412Z" fill="#FED369"/>
<path d="M82.0786 86.0529L83.0149 85.5039C83.223 85.6226 83.4311 85.7561 83.6392 85.8748L82.7028 86.4238C82.4948 86.2903 82.2867 86.1716 82.0786 86.0529Z" fill="#FED369"/>
<path d="M79.032 80.5771L79.9683 80.043L82.4948 81.4822L81.5436 82.0312L79.032 80.5771Z" fill="#FFEDC3"/>
<path d="M87.7857 96.0824L86.8494 96.6314C87.5627 96.2159 87.964 95.207 87.9789 94.0348C87.9789 91.7499 86.8939 89.8804 85.2294 88.3224L86.1657 87.7734C87.8303 89.3314 88.9152 91.2009 88.9152 93.4858C88.9152 94.658 88.499 95.6669 87.8005 96.0824H87.7857Z" fill="url(#paint6_linear_59292_30445)"/>
<path d="M79.0319 84.3L76.6094 82.9053L76.55 101.304L78.9725 102.698V106.363L81.4693 107.817V104.152L82.4948 104.731C82.5542 104.761 82.5988 104.79 82.6583 104.82V108.485L85.1551 109.939V105.888C87.2655 106.408 88.7071 105.621 88.722 102.906C88.722 100.458 87.4884 98.351 85.8536 96.9266V96.8228C87.1615 97.0157 87.964 95.6803 87.964 94.0482C87.964 91.7632 86.8791 89.8937 85.2145 88.3358V84.1813L82.7177 82.7272V86.4514C82.4948 86.3179 82.2867 86.1992 82.0787 86.0805L81.5288 85.7689V82.0595L79.0171 80.6055V84.3148L79.0319 84.3ZM84.4268 92.6089C84.4268 93.9295 83.654 94.3449 81.8854 93.3211L80.1912 92.3419V88.1874L81.93 89.1815C83.6243 90.1608 84.4417 91.1697 84.4417 92.6089H84.4268ZM82.2124 101.333L80.1615 100.146V95.4132L82.2273 96.6002C84.2188 97.7427 85.1997 98.9594 85.1997 100.562C85.1997 102.253 84.1891 102.461 82.2273 101.333H82.2124Z" fill="#FED369"/>
<path d="M82.7177 82.713L83.654 82.1641L86.1806 83.6181L85.2294 84.1523L82.7177 82.713Z" fill="#FFEDC3"/>
<path d="M85.2294 84.1513L86.1806 83.6172L86.1657 87.7717L85.2294 88.3207V84.1513Z" fill="#C79425"/>
<path d="M107.582 66.1389C107.582 54.8773 98.4417 40.4702 87.1466 33.9714C80.9789 30.4104 75.4502 29.9801 71.705 32.1316L67.7368 34.4165C71.482 32.2799 76.9958 32.7102 83.1784 36.2712C94.4587 42.77 103.614 57.1771 103.614 68.4387C103.614 73.5428 101.726 77.1038 98.62 78.8991L102.588 76.6142C105.694 74.804 107.582 71.243 107.582 66.1389Z" fill="url(#paint7_linear_59292_30445)"/>
<path d="M103.599 68.4373C103.599 79.6989 94.4587 83.5566 83.1636 77.0578C71.8833 70.559 62.7283 56.1519 62.7283 44.8903C62.7283 33.6287 71.8685 29.7709 83.1636 36.2697C94.4438 42.7685 103.599 57.1757 103.599 68.4373Z" fill="#F7F4EF"/>
<path d="M100.612 66.7188C100.612 76.3334 92.809 79.6273 83.1784 74.0781C73.5479 68.5289 65.7453 56.2435 65.7453 46.6289C65.7453 37.0143 73.5479 33.7203 83.1784 39.2695C92.809 44.8187 100.612 57.1041 100.612 66.7188Z" fill="#F1F4FF"/>
<path d="M84.7538 73.1558C75.1233 67.6066 67.3207 55.3212 67.3207 45.7065C67.3207 41.745 68.6583 38.8813 70.9024 37.2344C67.722 38.5549 65.7453 41.7895 65.7453 46.6116C65.7453 56.2263 73.5479 68.5117 83.1784 74.0609C88.8409 77.3251 93.8494 77.5031 97.0298 75.1737C93.8791 76.4794 89.5394 75.9155 84.7538 73.1558Z" fill="#BDB9B0"/>
<path d="M74.0086 50.2489L75.4353 49.418L79.7602 50.5456L78.3334 51.3765L74.0086 50.2489Z" fill="white"/>
<path d="M83.1933 55.4715L84.62 54.6406L84.5903 62.5045L83.1636 63.3354L83.1933 55.4715Z" fill="#BDB9B0"/>
<path d="M91.6795 68.245L93.1211 67.4141L91.3525 71.6724L89.9258 72.5033L91.6795 68.245Z" fill="#BDB9B0"/>
<path d="M83.1636 63.3348L84.5903 62.5039L93.1211 67.4151L91.6795 68.246L83.1636 63.3348Z" fill="white"/>
<path d="M83.1933 52.6512L84.62 51.8203L88.6774 52.9925L87.2506 53.8234L83.1933 52.6512Z" fill="white"/>
<path d="M87.2506 53.8231L88.6774 52.9922V55.6332L87.2506 56.4493V53.8231Z" fill="#BDB9B0"/>
<path d="M83.223 43.8973L84.6498 43.0664L84.62 51.8205L83.1933 52.6514L83.223 43.8973Z" fill="#BDB9B0"/>
<path d="M78.3632 41.0926L79.7899 40.2617L84.6498 43.066L83.223 43.8969L78.3632 41.0926Z" fill="white"/>
<path d="M83.1636 63.335L91.6795 68.2462L89.9258 72.5046L78.2888 65.7981L78.3186 54.1952L73.9937 52.8895L74.0086 50.2484L78.3334 51.3761L78.3631 41.0938L83.223 43.898L83.1933 52.6521L87.2506 53.8243V56.4505L83.1933 55.4712L83.1636 63.335Z" fill="#F7F4EF"/>
<path d="M76.9661 39.3147C76.9661 28.0531 67.826 13.646 56.5309 7.1472C50.3631 3.58621 44.8493 3.15593 41.0892 5.30736L37.1211 7.59232C40.8663 5.45573 46.3801 5.88601 52.5627 9.447C63.843 15.9458 72.9979 30.3529 72.9979 41.6145C72.9979 46.7186 71.1105 50.2796 68.0043 52.0749L71.9725 49.7899C75.0786 47.9798 76.9661 44.4188 76.9661 39.3147Z" fill="url(#paint8_linear_59292_30445)"/>
<path d="M72.9831 41.613C72.9831 52.8746 63.843 56.7324 52.5479 50.2336C41.2676 43.7348 32.1126 29.3277 32.1126 18.0661C32.1126 6.80446 41.2676 2.94673 52.5627 9.44552C63.843 15.9443 72.998 30.3514 72.998 41.613H72.9831Z" fill="#FED369"/>
<path d="M69.9958 39.8945C69.9958 49.5092 62.1933 52.8031 52.5627 47.2539C42.9322 41.7047 35.1296 29.4193 35.1296 19.8047C35.1296 10.19 42.9322 6.89613 52.5627 12.4453C62.1933 17.9945 69.9958 30.2799 69.9958 39.8945Z" fill="#EDB02C"/>
<path d="M54.1381 46.3316C44.5075 40.7824 36.705 28.497 36.705 18.8823C36.705 14.9207 38.0426 12.0571 40.2867 10.4102C37.1063 11.7307 35.1296 14.9652 35.1296 19.7874C35.1296 29.4021 42.9322 41.6874 52.5627 47.2366C58.2251 50.5009 63.2336 50.6789 66.4141 48.3494C63.2634 49.6551 58.9237 49.0913 54.1381 46.3316Z" fill="#C79425"/>
<path d="M47.3462 28.0117L53.0532 37.8934L53.0383 45.2528L47.3462 28.0117Z" fill="#FFEDC3"/>
<path d="M47.3462 28.0091L48.5648 27.2969L54.2867 37.1786L53.0532 37.8908L47.3462 28.0091Z" fill="#EBC361"/>
<path d="M58.8196 34.6289L53.0383 45.2525L53.0532 37.8931L58.8196 34.6289Z" fill="#FED369"/>
<path d="M58.8196 34.6263L60.0383 33.9141L54.2718 44.5377L53.0383 45.2499L58.8196 34.6263Z" fill="#C79425"/>
<path d="M53.1275 15.8125L53.068 36.3327L47.3462 26.4509L53.1275 15.8125Z" fill="#FFEDC3"/>
<path d="M53.1275 15.8138L54.3462 15.1016L60.0532 32.3575L58.8196 33.0697L53.1275 15.8138Z" fill="#C79425"/>
<path d="M53.1275 15.8125L58.8196 33.0684L53.068 36.3327L53.1275 15.8125Z" fill="#FED369"/>
<path d="M20.0001 102.763L20.2379 19.0352C20.2379 21.6465 21.947 24.2579 25.395 26.2313L25.1572 109.959C21.7092 107.985 19.9852 105.374 20.0001 102.763Z" fill="#F1F4FF"/>
<path d="M86.1657 61.2772L85.9279 145.005L25.1572 109.974L25.395 26.2461L86.1657 61.2772Z" fill="#F1F4FF"/>
<path d="M91.7538 58.043L91.516 141.771L85.9279 145.005L86.1657 61.2775L91.7538 58.043Z" fill="#9398AC"/>
<path d="M30.9682 23.0101C27.223 20.8439 27.1933 17.3422 30.9237 15.176L25.3058 11.9414C18.5139 15.8882 18.5436 22.2979 25.3801 26.2447L86.1508 61.2758L91.7389 58.0413L30.9682 23.0101Z" fill="#9398AC"/>
<path d="M85.9428 97.4789L85.913 112.524L76.2825 106.96L76.3122 91.9297L85.9428 97.4789Z" fill="#9EA3B7"/>
<path d="M115.191 80.4141L115.161 95.4592L85.9131 112.522L85.9428 97.4771L115.191 80.4141Z" fill="#9EA3B7"/>
<path d="M111.282 78.1602L111.268 80.3709L85.9428 95.1787L78.3037 90.772L76.3122 91.9293L85.9428 97.4785L115.191 80.4154L111.282 78.1602Z" fill="#7F86A5"/>
<path d="M81.1126 103.918C80.637 103.651 80.206 103.622 79.8939 103.8L79.0022 104.319C79.3143 104.141 79.7453 104.156 80.2209 104.438C81.1721 104.987 81.93 106.307 81.93 107.39C81.93 107.925 81.7368 108.31 81.4247 108.488L82.3165 107.969C82.6286 107.791 82.8218 107.405 82.8218 106.871C82.8218 105.788 82.0638 104.467 81.1126 103.918Z" fill="url(#paint9_linear_59292_30445)"/>
<path d="M80.206 104.439C81.1572 104.988 81.9152 106.308 81.9152 107.391C81.9152 108.474 81.1424 108.92 80.1912 108.371C79.2549 107.822 78.4821 106.501 78.4821 105.418C78.4821 104.335 79.2549 103.89 80.1912 104.439H80.206Z" fill="#7F86A5"/>
<path d="M81.3801 97.0321C80.6221 96.6018 79.9534 96.5573 79.4481 96.8541L78.0213 97.685C78.5117 97.4031 79.1954 97.4327 79.9534 97.863C81.4693 98.7384 82.6731 100.845 82.6731 102.566C82.6731 103.427 82.361 104.035 81.8706 104.317L83.2973 103.486C83.7878 103.205 84.085 102.596 84.0999 101.736C84.0999 100.014 82.896 97.9075 81.3801 97.0321Z" fill="url(#paint10_linear_59292_30445)"/>
<path d="M79.9534 97.8649C81.4693 98.7403 82.6731 100.847 82.6731 102.568C82.6731 104.289 81.4544 105.002 79.9385 104.126C78.4374 103.266 77.2188 101.144 77.2336 99.4228C77.2336 97.7016 78.4523 96.9895 79.9534 97.85V97.8649Z" fill="#7F86A5"/>
<defs>
<linearGradient id="paint0_linear_59292_30445" x1="76.5351" y1="97.5532" x2="103.568" y2="125.166" gradientUnits="userSpaceOnUse">
<stop stop-color="#BEB9B0"/>
<stop offset="0.01" stop-color="#C3BEB5"/>
<stop offset="0.07" stop-color="#D4CFC6"/>
<stop offset="0.14" stop-color="#DFDAD2"/>
<stop offset="0.23" stop-color="#E6E1D9"/>
<stop offset="0.5" stop-color="#E8E3DB"/>
<stop offset="0.7" stop-color="#E5E0D8"/>
<stop offset="0.82" stop-color="#DDD8D0"/>
<stop offset="0.92" stop-color="#CFCAC2"/>
<stop offset="1" stop-color="#BEB9B0"/>
</linearGradient>
<linearGradient id="paint1_linear_59292_30445" x1="87.3398" y1="20.4993" x2="116.311" y2="66.85" gradientUnits="userSpaceOnUse">
<stop stop-color="#C79425"/>
<stop offset="0.03" stop-color="#CB992C"/>
<stop offset="0.14" stop-color="#DCB049"/>
<stop offset="0.24" stop-color="#E7BE5A"/>
<stop offset="0.31" stop-color="#EBC361"/>
<stop offset="1" stop-color="#C79425"/>
</linearGradient>
<linearGradient id="paint2_linear_59292_30445" x1="96.7623" y1="50.9011" x2="101.24" y2="58.0743" gradientUnits="userSpaceOnUse">
<stop stop-color="#C79425"/>
<stop offset="0.03" stop-color="#CB992C"/>
<stop offset="0.14" stop-color="#DCB049"/>
<stop offset="0.24" stop-color="#E7BE5A"/>
<stop offset="0.31" stop-color="#EBC361"/>
<stop offset="1" stop-color="#C79425"/>
</linearGradient>
<linearGradient id="paint3_linear_59292_30445" x1="96.1975" y1="42.2668" x2="100.438" y2="49.0389" gradientUnits="userSpaceOnUse">
<stop stop-color="#C79425"/>
<stop offset="0.03" stop-color="#CB992C"/>
<stop offset="0.14" stop-color="#DCB049"/>
<stop offset="0.24" stop-color="#E7BE5A"/>
<stop offset="0.31" stop-color="#EBC361"/>
<stop offset="1" stop-color="#C79425"/>
</linearGradient>
<linearGradient id="paint4_linear_59292_30445" x1="75.7028" y1="67.0149" x2="104.674" y2="113.366" gradientUnits="userSpaceOnUse">
<stop stop-color="#C79425"/>
<stop offset="0.03" stop-color="#CB992C"/>
<stop offset="0.14" stop-color="#DCB049"/>
<stop offset="0.24" stop-color="#E7BE5A"/>
<stop offset="0.31" stop-color="#EBC361"/>
<stop offset="1" stop-color="#C79425"/>
</linearGradient>
<linearGradient id="paint5_linear_59292_30445" x1="85.1254" y1="97.4316" x2="89.6179" y2="104.59" gradientUnits="userSpaceOnUse">
<stop stop-color="#C79425"/>
<stop offset="0.03" stop-color="#CB992C"/>
<stop offset="0.14" stop-color="#DCB049"/>
<stop offset="0.24" stop-color="#E7BE5A"/>
<stop offset="0.31" stop-color="#EBC361"/>
<stop offset="1" stop-color="#C79425"/>
</linearGradient>
<linearGradient id="paint6_linear_59292_30445" x1="84.5755" y1="88.7824" x2="88.8159" y2="95.5694" gradientUnits="userSpaceOnUse">
<stop stop-color="#C79425"/>
<stop offset="0.03" stop-color="#CB992C"/>
<stop offset="0.14" stop-color="#DCB049"/>
<stop offset="0.24" stop-color="#E7BE5A"/>
<stop offset="0.31" stop-color="#EBC361"/>
<stop offset="1" stop-color="#C79425"/>
</linearGradient>
<linearGradient id="paint7_linear_59292_30445" x1="74.0829" y1="36.3454" x2="101.116" y2="63.9581" gradientUnits="userSpaceOnUse">
<stop stop-color="#BEB9B0"/>
<stop offset="0.01" stop-color="#C3BEB5"/>
<stop offset="0.07" stop-color="#D4CFC6"/>
<stop offset="0.14" stop-color="#DFDAD2"/>
<stop offset="0.23" stop-color="#E6E1D9"/>
<stop offset="0.5" stop-color="#E8E3DB"/>
<stop offset="0.7" stop-color="#E5E0D8"/>
<stop offset="0.82" stop-color="#DDD8D0"/>
<stop offset="0.92" stop-color="#CFCAC2"/>
<stop offset="1" stop-color="#BEB9B0"/>
</linearGradient>
<linearGradient id="paint8_linear_59292_30445" x1="46.3207" y1="2.20633" x2="75.292" y2="48.5571" gradientUnits="userSpaceOnUse">
<stop stop-color="#C79425"/>
<stop offset="0.03" stop-color="#CB992C"/>
<stop offset="0.14" stop-color="#DCB049"/>
<stop offset="0.24" stop-color="#E7BE5A"/>
<stop offset="0.31" stop-color="#EBC361"/>
<stop offset="1" stop-color="#C79425"/>
</linearGradient>
<linearGradient id="paint9_linear_59292_30445" x1="80.533" y1="104.512" x2="82.0005" y2="107.392" gradientUnits="userSpaceOnUse">
<stop stop-color="#F1F4FF"/>
<stop offset="1" stop-color="#9398AC"/>
</linearGradient>
<linearGradient id="paint10_linear_59292_30445" x1="80.4587" y1="97.9669" x2="82.7859" y2="102.57" gradientUnits="userSpaceOnUse">
<stop stop-color="#F1F4FF"/>
<stop offset="1" stop-color="#9398AC"/>
</linearGradient>
</defs>
</svg>
